STARTFONT 2.3
FONT -FontForge-Source Sans Pro-Bold-R-Normal-SansPro--8-80-72-72-P-41-ISO10646-1
SIZE 8 72 72  2
FONTBOUNDINGBOX 22 13 -4 -3
COMMENT "Generated by fontforge, http://fontforge.sourceforge.net"
COMMENT "Copyright 2010, 2012, 2014 Adobe Systems Incorporated (http://www.adobe.com/), with Reserved Font Name `Source'."
STARTPROPERTIES 41
FOUNDRY "FontForge"
FAMILY_NAME "Source Sans Pro"
WEIGHT_NAME "Bold"
SLANT "R"
SETWIDTH_NAME "Normal"
ADD_STYLE_NAME "SansPro"
PIXEL_SIZE 8
POINT_SIZE 80
RESOLUTION_X 72
RESOLUTION_Y 72
SPACING "P"
AVERAGE_WIDTH 41
CHARSET_REGISTRY "ISO10646"
CHARSET_ENCODING "1"
FONTNAME_REGISTRY ""
CHARSET_COLLECTIONS "ISO8859-2 ISO8859-5 ISO8859-7 ISO8859-9 ISO8859-4 ISO10646-1"
BITS_PER_PIXEL 2
FONT_NAME "SourceSansPro-Bold"
FACE_NAME "Source Sans Pro Bold"
COPYRIGHT "Copyright 2010, 2012, 2014 Adobe Systems Incorporated (http://www.adobe.com/), with Reserved Font Name `Source'."
FONT_VERSION "2.021;PS 2.000;hotconv 1.0.86;makeotf.lib2.5.63406"
FONT_ASCENT 6
FONT_DESCENT 2
UNDERLINE_POSITION -1
UNDERLINE_THICKNESS 1
X_HEIGHT 3
CAP_HEIGHT 4
RAW_ASCENT 750
RAW_DESCENT 250
NORM_SPACE 2
RELATIVE_WEIGHT 70
RELATIVE_SETWIDTH 50
SUPERSCRIPT_X 0
SUPERSCRIPT_Y 2
SUPERSCRIPT_SIZE 4
SUBSCRIPT_X 0
SUBSCRIPT_Y 0
SUBSCRIPT_SIZE 4
FIGURE_WIDTH 4
AVG_LOWERCASE_WIDTH 42
AVG_UPPERCASE_WIDTH 49
ENDPROPERTIES
CHARS 1896
STARTCHAR space
ENCODING 32
SWIDTH 200 0
DWIDTH 2 0
BBX 1 1 0 0
BITMAP
00
ENDCHAR
STARTCHAR exclam
ENCODING 33
SWIDTH 340 0
DWIDTH 3 0
BBX 2 6 0 0
BITMAP
10
70
30
20
00
60
ENDCHAR
STARTCHAR quotedbl
ENCODING 34
SWIDTH 536 0
DWIDTH 4 0
BBX 4 3 0 3
BITMAP
66
66
65
ENDCHAR
STARTCHAR numbersign
ENCODING 35
SWIDTH 528 0
DWIDTH 4 0
BBX 4 6 0 0
BITMAP
10
25
BF
25
BE
58
ENDCHAR
STARTCHAR dollar
ENCODING 36
SWIDTH 528 0
DWIDTH 4 0
BBX 4 7 0 -1
BITMAP
18
7D
60
2D
0A
7D
18
ENDCHAR
STARTCHAR percent
ENCODING 37
SWIDTH 857 0
DWIDTH 7 0
BBX 7 5 0 0
BITMAP
7480
9940
76B4
05D8
08B4
ENDCHAR
STARTCHAR ampersand
ENCODING 38
SWIDTH 667 0
DWIDTH 5 0
BBX 5 5 0 0
BITMAP
2D00
3940
79C0
AB80
7D80
ENDCHAR
STARTCHAR quotesingle
ENCODING 39
SWIDTH 300 0
DWIDTH 2 0
BBX 2 3 0 3
BITMAP
60
60
60
ENDCHAR
STARTCHAR parenleft
ENCODING 40
SWIDTH 344 0
DWIDTH 3 0
BBX 3 7 0 -1
BITMAP
24
30
60
60
60
30
24
ENDCHAR
STARTCHAR parenright
ENCODING 41
SWIDTH 344 0
DWIDTH 3 0
BBX 2 7 0 -1
BITMAP
50
20
30
20
30
20
50
ENDCHAR
STARTCHAR asterisk
ENCODING 42
SWIDTH 457 0
DWIDTH 4 0
BBX 3 3 0 3
BITMAP
24
78
28
ENDCHAR
STARTCHAR plus
ENCODING 43
SWIDTH 528 0
DWIDTH 4 0
BBX 4 5 0 0
BITMAP
04
18
BF
18
04
ENDCHAR
STARTCHAR comma
ENCODING 44
SWIDTH 300 0
DWIDTH 2 0
BBX 2 3 0 -2
BITMAP
70
20
40
ENDCHAR
STARTCHAR hyphen
ENCODING 45
SWIDTH 332 0
DWIDTH 3 0
BBX 3 1 0 2
BITMAP
B4
ENDCHAR
STARTCHAR period
ENCODING 46
SWIDTH 300 0
DWIDTH 2 0
BBX 2 1 0 0
BITMAP
60
ENDCHAR
STARTCHAR slash
ENCODING 47
SWIDTH 339 0
DWIDTH 3 0
BBX 3 7 0 -1
BITMAP
14
20
20
20
50
90
80
ENDCHAR
STARTCHAR zero
ENCODING 48
SWIDTH 528 0
DWIDTH 4 0
BBX 4 5 0 0
BITMAP
3D
A6
97
A6
3D
ENDCHAR
STARTCHAR one
ENCODING 49
SWIDTH 528 0
DWIDTH 4 0
BBX 4 5 0 0
BITMAP
2C
7C
1C
1C
7E
ENDCHAR
STARTCHAR two
ENCODING 50
SWIDTH 528 0
DWIDTH 4 0
BBX 4 5 0 0
BITMAP
7D
4A
0D
78
BF
ENDCHAR
STARTCHAR three
ENCODING 51
SWIDTH 528 0
DWIDTH 4 0
BBX 4 5 0 0
BITMAP
7D
0A
2D
4A
7D
ENDCHAR
STARTCHAR four
ENCODING 52
SWIDTH 528 0
DWIDTH 4 0
BBX 4 5 0 0
BITMAP
1D
39
A9
FF
09
ENDCHAR
STARTCHAR five
ENCODING 53
SWIDTH 528 0
DWIDTH 4 0
BBX 4 5 0 0
BITMAP
7E
60
7D
5A
7D
ENDCHAR
STARTCHAR six
ENCODING 54
SWIDTH 528 0
DWIDTH 4 0
BBX 4 5 0 0
BITMAP
2E
60
BE
A7
2D
ENDCHAR
STARTCHAR seven
ENCODING 55
SWIDTH 528 0
DWIDTH 4 0
BBX 4 5 0 0
BITMAP
BF
0A
1C
28
24
ENDCHAR
STARTCHAR eight
ENCODING 56
SWIDTH 528 0
DWIDTH 4 0
BBX 4 5 0 0
BITMAP
7D
6A
3D
97
7D
ENDCHAR
STARTCHAR nine
ENCODING 57
SWIDTH 528 0
DWIDTH 4 0
BBX 4 5 0 0
BITMAP
7D
A6
7F
0A
78
ENDCHAR
STARTCHAR colon
ENCODING 58
SWIDTH 300 0
DWIDTH 2 0
BBX 2 4 0 0
BITMAP
60
00
00
60
ENDCHAR
STARTCHAR semicolon
ENCODING 59
SWIDTH 300 0
DWIDTH 2 0
BBX 2 6 0 -2
BITMAP
60
00
00
70
20
40
ENDCHAR
STARTCHAR less
ENCODING 60
SWIDTH 528 0
DWIDTH 4 0
BBX 4 4 0 1
BITMAP
06
79
79
06
ENDCHAR
STARTCHAR equal
ENCODING 61
SWIDTH 528 0
DWIDTH 4 0
BBX 4 3 0 1
BITMAP
BF
00
BF
ENDCHAR
STARTCHAR greater
ENCODING 62
SWIDTH 528 0
DWIDTH 4 0
BBX 4 4 0 1
BITMAP
90
2E
1E
90
ENDCHAR
STARTCHAR question
ENCODING 63
SWIDTH 463 0
DWIDTH 4 0
BBX 4 5 0 0
BITMAP
7C
0D
24
00
24
ENDCHAR
STARTCHAR at
ENCODING 64
SWIDTH 903 0
DWIDTH 7 0
BBX 7 8 0 -2
BITMAP
0BD0
2824
6788
99C8
9D98
5AB0
3400
1B80
ENDCHAR
STARTCHAR A
ENCODING 65
SWIDTH 573 0
DWIDTH 5 0
BBX 5 5 0 0
BITMAP
2C00
3900
7600
BF00
D240
ENDCHAR
STARTCHAR B
ENCODING 66
SWIDTH 605 0
DWIDTH 5 0
BBX 5 5 0 0
BITMAP
7E00
6340
7F00
6280
7F40
ENDCHAR
STARTCHAR C
ENCODING 67
SWIDTH 582 0
DWIDTH 5 0
BBX 5 5 0 0
BITMAP
2F00
7100
A000
7100
2F40
ENDCHAR
STARTCHAR D
ENCODING 68
SWIDTH 635 0
DWIDTH 5 0
BBX 5 5 0 0
BITMAP
7E00
6280
6280
6240
7E00
ENDCHAR
STARTCHAR E
ENCODING 69
SWIDTH 548 0
DWIDTH 4 0
BBX 4 5 0 0
BITMAP
7F
60
7E
60
7F
ENDCHAR
STARTCHAR F
ENCODING 70
SWIDTH 524 0
DWIDTH 4 0
BBX 4 5 0 0
BITMAP
7F
60
7E
60
60
ENDCHAR
STARTCHAR G
ENCODING 71
SWIDTH 638 0
DWIDTH 5 0
BBX 5 5 0 0
BITMAP
2F40
7100
A780
7180
2F40
ENDCHAR
STARTCHAR H
ENCODING 72
SWIDTH 674 0
DWIDTH 5 0
BBX 5 5 0 0
BITMAP
6180
6180
7F80
6180
6180
ENDCHAR
STARTCHAR I
ENCODING 73
SWIDTH 301 0
DWIDTH 2 0
BBX 2 5 0 0
BITMAP
60
60
60
60
60
ENDCHAR
STARTCHAR J
ENCODING 74
SWIDTH 509 0
DWIDTH 4 0
BBX 4 5 0 0
BITMAP
09
09
09
49
78
ENDCHAR
STARTCHAR K
ENCODING 75
SWIDTH 614 0
DWIDTH 5 0
BBX 5 5 0 0
BITMAP
6340
6900
7D00
7700
6280
ENDCHAR
STARTCHAR L
ENCODING 76
SWIDTH 518 0
DWIDTH 4 0
BBX 4 5 0 0
BITMAP
60
60
60
60
7F
ENDCHAR
STARTCHAR M
ENCODING 77
SWIDTH 762 0
DWIDTH 6 0
BBX 6 5 0 0
BITMAP
70D0
75D0
6E90
6A90
6590
ENDCHAR
STARTCHAR N
ENCODING 78
SWIDTH 665 0
DWIDTH 5 0
BBX 5 5 0 0
BITMAP
7180
7980
6E80
6780
6280
ENDCHAR
STARTCHAR O
ENCODING 79
SWIDTH 684 0
DWIDTH 5 0
BBX 5 5 0 0
BITMAP
2F40
71C0
A0C0
71C0
2F40
ENDCHAR
STARTCHAR P
ENCODING 80
SWIDTH 596 0
DWIDTH 5 0
BBX 5 5 0 0
BITMAP
7E00
6240
7E00
6000
6000
ENDCHAR
STARTCHAR Q
ENCODING 81
SWIDTH 684 0
DWIDTH 5 0
BBX 6 7 0 -2
BITMAP
2F40
71C0
A0C0
71C0
2F40
0A00
02D0
ENDCHAR
STARTCHAR R
ENCODING 82
SWIDTH 613 0
DWIDTH 5 0
BBX 5 5 0 0
BITMAP
7E00
6240
7F00
6700
6240
ENDCHAR
STARTCHAR S
ENCODING 83
SWIDTH 556 0
DWIDTH 4 0
BBX 4 5 0 0
BITMAP
2E
71
2E
17
7E
ENDCHAR
STARTCHAR T
ENCODING 84
SWIDTH 556 0
DWIDTH 4 0
BBX 5 5 0 0
BITMAP
BF40
1800
1800
1800
1800
ENDCHAR
STARTCHAR U
ENCODING 85
SWIDTH 665 0
DWIDTH 5 0
BBX 5 5 0 0
BITMAP
6180
6180
6180
7280
2E00
ENDCHAR
STARTCHAR V
ENCODING 86
SWIDTH 556 0
DWIDTH 4 0
BBX 5 5 0 0
BITMAP
D340
A300
7600
3900
2C00
ENDCHAR
STARTCHAR W
ENCODING 87
SWIDTH 813 0
DWIDTH 7 0
BBX 7 5 0 0
BITMAP
9724
AB30
6A70
7DA0
38E0
ENDCHAR
STARTCHAR X
ENCODING 88
SWIDTH 567 0
DWIDTH 5 0
BBX 5 5 0 0
BITMAP
A300
3A00
2C00
3A00
A340
ENDCHAR
STARTCHAR Y
ENCODING 89
SWIDTH 525 0
DWIDTH 4 0
BBX 4 5 0 0
BITMAP
97
6A
2C
18
18
ENDCHAR
STARTCHAR Z
ENCODING 90
SWIDTH 541 0
DWIDTH 4 0
BBX 4 5 0 0
BITMAP
BF
0A
2C
70
BF
ENDCHAR
STARTCHAR bracketleft
ENCODING 91
SWIDTH 344 0
DWIDTH 3 0
BBX 3 7 0 -1
BITMAP
74
60
60
60
60
60
74
ENDCHAR
STARTCHAR backslash
ENCODING 92
SWIDTH 339 0
DWIDTH 3 0
BBX 3 7 0 -1
BITMAP
80
50
60
20
20
24
14
ENDCHAR
STARTCHAR bracketright
ENCODING 93
SWIDTH 344 0
DWIDTH 3 0
BBX 2 7 0 -1
BITMAP
B0
20
20
20
20
20
B0
ENDCHAR
STARTCHAR asciicircum
ENCODING 94
SWIDTH 528 0
DWIDTH 4 0
BBX 4 3 0 2
BITMAP
28
39
66
ENDCHAR
STARTCHAR underscore
ENCODING 95
SWIDTH 500 0
DWIDTH 4 0
BBX 4 1 0 -1
BITMAP
FF
ENDCHAR
STARTCHAR grave
ENCODING 96
SWIDTH 555 0
DWIDTH 4 0
BBX 2 2 1 5
BITMAP
80
50
ENDCHAR
STARTCHAR a
ENCODING 97
SWIDTH 527 0
DWIDTH 4 0
BBX 4 4 0 0
BITMAP
7D
7E
AA
7A
ENDCHAR
STARTCHAR b
ENCODING 98
SWIDTH 573 0
DWIDTH 5 0
BBX 5 6 0 0
BITMAP
6000
6000
7E00
6340
6300
6E00
ENDCHAR
STARTCHAR c
ENCODING 99
SWIDTH 467 0
DWIDTH 4 0
BBX 4 4 0 0
BITMAP
2D
A0
A0
2D
ENDCHAR
STARTCHAR d
ENCODING 100
SWIDTH 573 0
DWIDTH 5 0
BBX 4 6 0 0
BITMAP
03
03
3F
A7
A7
7B
ENDCHAR
STARTCHAR e
ENCODING 101
SWIDTH 518 0
DWIDTH 4 0
BBX 4 4 0 0
BITMAP
2D
BE
A0
2D
ENDCHAR
STARTCHAR f
ENCODING 102
SWIDTH 341 0
DWIDTH 3 0
BBX 3 6 0 0
BITMAP
2C
70
B8
70
70
70
ENDCHAR
STARTCHAR g
ENCODING 103
SWIDTH 534 0
DWIDTH 4 0
BBX 4 6 0 -2
BITMAP
7F
AA
7D
7E
97
7D
ENDCHAR
STARTCHAR h
ENCODING 104
SWIDTH 571 0
DWIDTH 5 0
BBX 4 6 0 0
BITMAP
60
60
7E
67
63
63
ENDCHAR
STARTCHAR i
ENCODING 105
SWIDTH 276 0
DWIDTH 2 0
BBX 2 6 0 0
BITMAP
60
00
60
60
60
60
ENDCHAR
STARTCHAR j
ENCODING 106
SWIDTH 278 0
DWIDTH 2 0
BBX 3 8 -1 -2
BITMAP
18
00
18
18
18
18
28
74
ENDCHAR
STARTCHAR k
ENCODING 107
SWIDTH 548 0
DWIDTH 4 0
BBX 4 6 0 0
BITMAP
60
60
66
7C
79
67
ENDCHAR
STARTCHAR l
ENCODING 108
SWIDTH 286 0
DWIDTH 2 0
BBX 2 6 0 0
BITMAP
60
60
60
60
60
70
ENDCHAR
STARTCHAR m
ENCODING 109
SWIDTH 857 0
DWIDTH 7 0
BBX 7 4 0 0
BITMAP
6EB0
6774
6324
6324
ENDCHAR
STARTCHAR n
ENCODING 110
SWIDTH 572 0
DWIDTH 5 0
BBX 4 4 0 0
BITMAP
6E
67
63
63
ENDCHAR
STARTCHAR o
ENCODING 111
SWIDTH 555 0
DWIDTH 4 0
BBX 4 4 0 0
BITMAP
2D
A7
A7
2D
ENDCHAR
STARTCHAR p
ENCODING 112
SWIDTH 573 0
DWIDTH 5 0
BBX 5 6 0 -2
BITMAP
6E00
6340
6300
7E00
6000
6000
ENDCHAR
STARTCHAR q
ENCODING 113
SWIDTH 573 0
DWIDTH 5 0
BBX 4 6 0 -2
BITMAP
3F
A7
A7
7F
03
01
ENDCHAR
STARTCHAR r
ENCODING 114
SWIDTH 398 0
DWIDTH 3 0
BBX 3 4 0 0
BITMAP
6C
70
60
60
ENDCHAR
STARTCHAR s
ENCODING 115
SWIDTH 443 0
DWIDTH 4 0
BBX 4 4 0 0
BITMAP
7C
A4
1D
78
ENDCHAR
STARTCHAR t
ENCODING 116
SWIDTH 383 0
DWIDTH 3 0
BBX 3 6 0 0
BITMAP
30
70
F8
70
70
38
ENDCHAR
STARTCHAR u
ENCODING 117
SWIDTH 568 0
DWIDTH 5 0
BBX 4 4 0 0
BITMAP
A3
A3
67
7B
ENDCHAR
STARTCHAR v
ENCODING 118
SWIDTH 523 0
DWIDTH 4 0
BBX 4 4 0 0
BITMAP
97
66
39
2C
ENDCHAR
STARTCHAR w
ENCODING 119
SWIDTH 776 0
DWIDTH 6 0
BBX 6 4 0 0
BITMAP
9670
6B60
7A90
39D0
ENDCHAR
STARTCHAR x
ENCODING 120
SWIDTH 514 0
DWIDTH 4 0
BBX 4 4 0 0
BITMAP
A6
3C
3C
AA
ENDCHAR
STARTCHAR y
ENCODING 121
SWIDTH 521 0
DWIDTH 4 0
BBX 4 6 0 -2
BITMAP
97
66
39
2C
28
70
ENDCHAR
STARTCHAR z
ENCODING 122
SWIDTH 460 0
DWIDTH 4 0
BBX 4 4 0 0
BITMAP
BD
1C
74
BD
ENDCHAR
STARTCHAR braceleft
ENCODING 123
SWIDTH 344 0
DWIDTH 3 0
BBX 3 7 0 -1
BITMAP
34
30
20
A0
20
30
34
ENDCHAR
STARTCHAR bar
ENCODING 124
SWIDTH 268 0
DWIDTH 2 0
BBX 2 8 0 -2
BITMAP
50
50
50
50
50
50
50
50
ENDCHAR
STARTCHAR braceright
ENCODING 125
SWIDTH 344 0
DWIDTH 3 0
BBX 3 7 0 -1
BITMAP
A0
30
30
38
30
30
A0
ENDCHAR
STARTCHAR asciitilde
ENCODING 126
SWIDTH 528 0
DWIDTH 4 0
BBX 4 2 0 1
BITMAP
76
5E
ENDCHAR
STARTCHAR uni00A0
ENCODING 160
SWIDTH 208 0
DWIDTH 2 0
BBX 1 1 0 0
BITMAP
00
ENDCHAR
STARTCHAR exclamdown
ENCODING 161
SWIDTH 340 0
DWIDTH 3 0
BBX 2 6 0 -2
BITMAP
60
00
20
30
70
10
ENDCHAR
STARTCHAR cent
ENCODING 162
SWIDTH 528 0
DWIDTH 4 0
BBX 4 6 0 -1
BITMAP
04
2E
68
68
2E
04
ENDCHAR
STARTCHAR sterling
ENCODING 163
SWIDTH 528 0
DWIDTH 4 0
BBX 4 5 0 0
BITMAP
2E
34
BD
30
BF
ENDCHAR
STARTCHAR currency
ENCODING 164
SWIDTH 528 0
DWIDTH 4 0
BBX 4 3 0 1
BITMAP
BE
A6
BE
ENDCHAR
STARTCHAR yen
ENCODING 165
SWIDTH 528 0
DWIDTH 4 0
BBX 4 5 0 0
BITMAP
96
29
BF
6E
18
ENDCHAR
STARTCHAR brokenbar
ENCODING 166
SWIDTH 268 0
DWIDTH 2 0
BBX 2 8 0 -2
BITMAP
50
50
50
10
50
50
50
50
ENDCHAR
STARTCHAR section
ENCODING 167
SWIDTH 528 0
DWIDTH 4 0
BBX 4 7 0 -1
BITMAP
2D
74
7D
97
7E
19
7C
ENDCHAR
STARTCHAR dieresis
ENCODING 168
SWIDTH 555 0
DWIDTH 4 0
BBX 3 1 1 5
BITMAP
98
ENDCHAR
STARTCHAR copyright
ENCODING 169
SWIDTH 750 0
DWIDTH 6 0
BBX 6 6 0 0
BITMAP
1F40
6090
9F20
9F20
6090
1F40
ENDCHAR
STARTCHAR ordfeminine
ENCODING 170
SWIDTH 359 0
DWIDTH 3 0
BBX 3 3 0 3
BITMAP
74
B8
A8
ENDCHAR
STARTCHAR guillemotleft
ENCODING 171
SWIDTH 480 0
DWIDTH 4 0
BBX 4 3 0 1
BITMAP
29
98
29
ENDCHAR
STARTCHAR logicalnot
ENCODING 172
SWIDTH 528 0
DWIDTH 4 0
BBX 4 3 0 0
BITMAP
BF
03
01
ENDCHAR
STARTCHAR uni00AD
ENCODING 173
SWIDTH 332 0
DWIDTH 3 0
BBX 3 1 0 2
BITMAP
B4
ENDCHAR
STARTCHAR registered
ENCODING 174
SWIDTH 462 0
DWIDTH 4 0
BBX 4 6 0 1
BITMAP
38
55
75
59
55
38
ENDCHAR
STARTCHAR macron
ENCODING 175
SWIDTH 555 0
DWIDTH 4 0
BBX 3 1 1 5
BITMAP
F4
ENDCHAR
STARTCHAR degree
ENCODING 176
SWIDTH 365 0
DWIDTH 3 0
BBX 3 3 0 3
BITMAP
74
98
74
ENDCHAR
STARTCHAR plusminus
ENCODING 177
SWIDTH 528 0
DWIDTH 4 0
BBX 4 5 0 0
BITMAP
04
18
BF
18
BF
ENDCHAR
STARTCHAR two.sups
ENCODING 178
SWIDTH 376 0
DWIDTH 3 0
BBX 3 3 0 3
BITMAP
74
64
B8
ENDCHAR
STARTCHAR three.sups
ENCODING 179
SWIDTH 376 0
DWIDTH 3 0
BBX 3 3 0 3
BITMAP
74
74
74
ENDCHAR
STARTCHAR acute
ENCODING 180
SWIDTH 555 0
DWIDTH 4 0
BBX 2 2 2 5
BITMAP
50
80
ENDCHAR
STARTCHAR uni00B5
ENCODING 181
SWIDTH 594 0
DWIDTH 5 0
BBX 5 5 0 -1
BITMAP
6300
6300
6700
7A80
6000
ENDCHAR
STARTCHAR paragraph
ENCODING 182
SWIDTH 636 0
DWIDTH 5 0
BBX 5 6 0 -1
BITMAP
7B40
BB40
BB40
1740
0340
0240
ENDCHAR
STARTCHAR periodcentered
ENCODING 183
SWIDTH 300 0
DWIDTH 2 0
BBX 2 1 0 2
BITMAP
60
ENDCHAR
STARTCHAR cedilla
ENCODING 184
SWIDTH 555 0
DWIDTH 4 0
BBX 2 4 1 -3
BITMAP
10
60
30
A0
ENDCHAR
STARTCHAR one.sups
ENCODING 185
SWIDTH 376 0
DWIDTH 3 0
BBX 3 3 0 3
BITMAP
74
24
24
ENDCHAR
STARTCHAR ordmasculine
ENCODING 186
SWIDTH 373 0
DWIDTH 3 0
BBX 3 3 0 3
BITMAP
74
98
74
ENDCHAR
STARTCHAR guillemotright
ENCODING 187
SWIDTH 480 0
DWIDTH 4 0
BBX 4 3 0 1
BITMAP
58
25
58
ENDCHAR
STARTCHAR onequarter
ENCODING 188
SWIDTH 809 0
DWIDTH 6 0
BBX 7 5 0 0
BITMAP
7080
3200
3270
08A0
15F4
ENDCHAR
STARTCHAR onehalf
ENCODING 189
SWIDTH 846 0
DWIDTH 7 0
BBX 7 5 0 0
BITMAP
7080
3200
35B4
0860
14F4
ENDCHAR
STARTCHAR threequarters
ENCODING 190
SWIDTH 818 0
DWIDTH 7 0
BBX 7 5 0 0
BITMAP
7480
7540
7670
05A0
09F4
ENDCHAR
STARTCHAR questiondown
ENCODING 191
SWIDTH 463 0
DWIDTH 4 0
BBX 3 6 0 -2
BITMAP
24
00
24
70
A0
78
ENDCHAR
STARTCHAR Agrave
ENCODING 192
SWIDTH 573 0
DWIDTH 5 0
BBX 5 7 0 0
BITMAP
2000
1800
2C00
3900
7600
BF00
D240
ENDCHAR
STARTCHAR Aacute
ENCODING 193
SWIDTH 573 0
DWIDTH 5 0
BBX 5 7 0 0
BITMAP
0500
0800
2C00
3900
7600
BF00
D240
ENDCHAR
STARTCHAR Acircumflex
ENCODING 194
SWIDTH 573 0
DWIDTH 5 0
BBX 5 6 0 0
BITMAP
2900
2C00
3900
7600
BF00
D240
ENDCHAR
STARTCHAR Atilde
ENCODING 195
SWIDTH 573 0
DWIDTH 5 0
BBX 5 8 0 0
BITMAP
0100
3A00
6500
2C00
3900
7600
BF00
D240
ENDCHAR
STARTCHAR Adieresis
ENCODING 196
SWIDTH 573 0
DWIDTH 5 0
BBX 5 7 0 0
BITMAP
2600
0000
2C00
3900
7600
BF00
D240
ENDCHAR
STARTCHAR Aring
ENCODING 197
SWIDTH 573 0
DWIDTH 5 0
BBX 5 7 0 0
BITMAP
1C00
1C00
2C00
3900
7600
BF00
D240
ENDCHAR
STARTCHAR AE
ENCODING 198
SWIDTH 845 0
DWIDTH 7 0
BBX 7 5 0 0
BITMAP
0FF4
1B40
37F0
7F40
D3F4
ENDCHAR
STARTCHAR Ccedilla
ENCODING 199
SWIDTH 582 0
DWIDTH 5 0
BBX 5 8 0 -3
BITMAP
2F00
7100
A000
7100
2F40
0900
0600
0D00
ENDCHAR
STARTCHAR Egrave
ENCODING 200
SWIDTH 548 0
DWIDTH 4 0
BBX 4 7 0 0
BITMAP
20
18
7F
60
7E
60
7F
ENDCHAR
STARTCHAR Eacute
ENCODING 201
SWIDTH 548 0
DWIDTH 4 0
BBX 4 7 0 0
BITMAP
05
08
7F
60
7E
60
7F
ENDCHAR
STARTCHAR Ecircumflex
ENCODING 202
SWIDTH 548 0
DWIDTH 4 0
BBX 4 6 0 0
BITMAP
29
7F
60
7E
60
7F
ENDCHAR
STARTCHAR Edieresis
ENCODING 203
SWIDTH 548 0
DWIDTH 4 0
BBX 4 7 0 0
BITMAP
26
00
7F
60
7E
60
7F
ENDCHAR
STARTCHAR Igrave
ENCODING 204
SWIDTH 301 0
DWIDTH 2 0
BBX 2 7 0 0
BITMAP
80
60
60
60
60
60
60
ENDCHAR
STARTCHAR Iacute
ENCODING 205
SWIDTH 301 0
DWIDTH 2 0
BBX 3 7 0 0
BITMAP
24
60
60
60
60
60
60
ENDCHAR
STARTCHAR Icircumflex
ENCODING 206
SWIDTH 301 0
DWIDTH 2 0
BBX 3 6 0 0
BITMAP
A4
60
60
60
60
60
ENDCHAR
STARTCHAR Idieresis
ENCODING 207
SWIDTH 301 0
DWIDTH 2 0
BBX 3 7 0 0
BITMAP
94
00
60
60
60
60
60
ENDCHAR
STARTCHAR Eth
ENCODING 208
SWIDTH 660 0
DWIDTH 5 0
BBX 5 5 0 0
BITMAP
7E00
7280
BDC0
7280
7E00
ENDCHAR
STARTCHAR Ntilde
ENCODING 209
SWIDTH 665 0
DWIDTH 5 0
BBX 5 8 0 0
BITMAP
0100
2A00
2500
7180
7980
6E80
6780
6280
ENDCHAR
STARTCHAR Ograve
ENCODING 210
SWIDTH 684 0
DWIDTH 5 0
BBX 5 7 0 0
BITMAP
1400
0800
2F40
71C0
A0C0
71C0
2F40
ENDCHAR
STARTCHAR Oacute
ENCODING 211
SWIDTH 684 0
DWIDTH 5 0
BBX 5 7 0 0
BITMAP
0200
0900
2F40
71C0
A0C0
71C0
2F40
ENDCHAR
STARTCHAR Ocircumflex
ENCODING 212
SWIDTH 684 0
DWIDTH 5 0
BBX 5 6 0 0
BITMAP
1A00
2F40
71C0
A0C0
71C0
2F40
ENDCHAR
STARTCHAR Otilde
ENCODING 213
SWIDTH 684 0
DWIDTH 5 0
BBX 5 7 0 0
BITMAP
1E40
2600
2F40
71C0
A0C0
71C0
2F40
ENDCHAR
STARTCHAR Odieresis
ENCODING 214
SWIDTH 684 0
DWIDTH 5 0
BBX 5 7 0 0
BITMAP
2600
0000
2F40
71C0
A0C0
71C0
2F40
ENDCHAR
STARTCHAR multiply
ENCODING 215
SWIDTH 528 0
DWIDTH 4 0
BBX 4 3 0 1
BITMAP
66
2C
66
ENDCHAR
STARTCHAR Oslash
ENCODING 216
SWIDTH 684 0
DWIDTH 5 0
BBX 5 5 0 0
BITMAP
2FC0
6380
AEC0
75C0
AF40
ENDCHAR
STARTCHAR Ugrave
ENCODING 217
SWIDTH 665 0
DWIDTH 5 0
BBX 5 7 0 0
BITMAP
1400
0800
6180
6180
6180
7280
2E00
ENDCHAR
STARTCHAR Uacute
ENCODING 218
SWIDTH 665 0
DWIDTH 5 0
BBX 5 7 0 0
BITMAP
0600
0900
6180
6180
6180
7280
2E00
ENDCHAR
STARTCHAR Ucircumflex
ENCODING 219
SWIDTH 665 0
DWIDTH 5 0
BBX 5 6 0 0
BITMAP
1A00
6180
6180
6180
7280
2E00
ENDCHAR
STARTCHAR Udieresis
ENCODING 220
SWIDTH 665 0
DWIDTH 5 0
BBX 5 7 0 0
BITMAP
2600
0000
6180
6180
6180
7280
2E00
ENDCHAR
STARTCHAR Yacute
ENCODING 221
SWIDTH 525 0
DWIDTH 4 0
BBX 4 7 0 0
BITMAP
09
18
97
6A
2C
18
18
ENDCHAR
STARTCHAR Thorn
ENCODING 222
SWIDTH 617 0
DWIDTH 5 0
BBX 5 5 0 0
BITMAP
6000
7F40
6240
7E00
6000
ENDCHAR
STARTCHAR germandbls
ENCODING 223
SWIDTH 632 0
DWIDTH 5 0
BBX 5 6 0 0
BITMAP
2E00
6700
6600
6740
6180
6B40
ENDCHAR
STARTCHAR agrave
ENCODING 224
SWIDTH 527 0
DWIDTH 4 0
BBX 4 7 0 0
BITMAP
20
14
00
7D
7E
AA
7A
ENDCHAR
STARTCHAR aacute
ENCODING 225
SWIDTH 527 0
DWIDTH 4 0
BBX 4 7 0 0
BITMAP
05
08
00
7D
7E
AA
7A
ENDCHAR
STARTCHAR acircumflex
ENCODING 226
SWIDTH 527 0
DWIDTH 4 0
BBX 4 6 0 0
BITMAP
29
00
7D
7E
AA
7A
ENDCHAR
STARTCHAR atilde
ENCODING 227
SWIDTH 527 0
DWIDTH 4 0
BBX 4 7 0 0
BITMAP
01
3A
69
7D
7E
AA
7A
ENDCHAR
STARTCHAR adieresis
ENCODING 228
SWIDTH 527 0
DWIDTH 4 0
BBX 4 6 0 0
BITMAP
25
00
7D
7E
AA
7A
ENDCHAR
STARTCHAR aring
ENCODING 229
SWIDTH 527 0
DWIDTH 4 0
BBX 4 6 0 0
BITMAP
2C
2C
7D
7E
AA
7A
ENDCHAR
STARTCHAR ae
ENCODING 230
SWIDTH 786 0
DWIDTH 6 0
BBX 6 4 0 0
BITMAP
7EE0
7FF0
AB00
7AE0
ENDCHAR
STARTCHAR ccedilla
ENCODING 231
SWIDTH 467 0
DWIDTH 4 0
BBX 4 7 0 -3
BITMAP
2D
A0
A0
3D
18
0C
28
ENDCHAR
STARTCHAR egrave
ENCODING 232
SWIDTH 518 0
DWIDTH 4 0
BBX 4 7 0 0
BITMAP
20
24
00
2D
BE
A0
2D
ENDCHAR
STARTCHAR eacute
ENCODING 233
SWIDTH 518 0
DWIDTH 4 0
BBX 4 7 0 0
BITMAP
09
08
00
2D
BE
A0
2D
ENDCHAR
STARTCHAR ecircumflex
ENCODING 234
SWIDTH 518 0
DWIDTH 4 0
BBX 4 6 0 0
BITMAP
29
00
2D
BE
A0
2D
ENDCHAR
STARTCHAR edieresis
ENCODING 235
SWIDTH 518 0
DWIDTH 4 0
BBX 4 6 0 0
BITMAP
25
00
2D
BE
A0
2D
ENDCHAR
STARTCHAR igrave
ENCODING 236
SWIDTH 276 0
DWIDTH 2 0
BBX 2 7 0 0
BITMAP
80
90
00
60
60
60
60
ENDCHAR
STARTCHAR iacute
ENCODING 237
SWIDTH 276 0
DWIDTH 2 0
BBX 3 7 0 0
BITMAP
24
20
00
60
60
60
60
ENDCHAR
STARTCHAR icircumflex
ENCODING 238
SWIDTH 276 0
DWIDTH 2 0
BBX 3 6 0 0
BITMAP
A4
00
60
60
60
60
ENDCHAR
STARTCHAR idieresis
ENCODING 239
SWIDTH 276 0
DWIDTH 2 0
BBX 4 6 -1 0
BITMAP
65
00
18
18
18
18
ENDCHAR
STARTCHAR eth
ENCODING 240
SWIDTH 560 0
DWIDTH 4 0
BBX 4 6 0 0
BITMAP
26
2D
2A
7F
A7
7D
ENDCHAR
STARTCHAR ntilde
ENCODING 241
SWIDTH 572 0
DWIDTH 5 0
BBX 4 7 0 0
BITMAP
01
2A
25
6E
67
63
63
ENDCHAR
STARTCHAR ograve
ENCODING 242
SWIDTH 555 0
DWIDTH 4 0
BBX 4 7 0 0
BITMAP
20
14
00
2D
A7
A7
2D
ENDCHAR
STARTCHAR oacute
ENCODING 243
SWIDTH 555 0
DWIDTH 4 0
BBX 4 7 0 0
BITMAP
05
08
00
2D
A7
A7
2D
ENDCHAR
STARTCHAR ocircumflex
ENCODING 244
SWIDTH 555 0
DWIDTH 4 0
BBX 4 6 0 0
BITMAP
29
00
2D
A7
A7
2D
ENDCHAR
STARTCHAR otilde
ENCODING 245
SWIDTH 555 0
DWIDTH 4 0
BBX 4 7 0 0
BITMAP
01
3A
69
2D
A7
A7
2D
ENDCHAR
STARTCHAR odieresis
ENCODING 246
SWIDTH 555 0
DWIDTH 4 0
BBX 4 6 0 0
BITMAP
26
00
2D
A7
A7
2D
ENDCHAR
STARTCHAR divide
ENCODING 247
SWIDTH 528 0
DWIDTH 4 0
BBX 4 5 0 0
BITMAP
14
14
AA
14
04
ENDCHAR
STARTCHAR oslash
ENCODING 248
SWIDTH 555 0
DWIDTH 4 0
BBX 4 4 0 0
BITMAP
2E
AB
B7
7D
ENDCHAR
STARTCHAR ugrave
ENCODING 249
SWIDTH 568 0
DWIDTH 5 0
BBX 4 7 0 0
BITMAP
20
18
00
A3
A3
67
7B
ENDCHAR
STARTCHAR uacute
ENCODING 250
SWIDTH 568 0
DWIDTH 5 0
BBX 4 7 0 0
BITMAP
05
08
00
A3
A3
67
7B
ENDCHAR
STARTCHAR ucircumflex
ENCODING 251
SWIDTH 568 0
DWIDTH 5 0
BBX 4 6 0 0
BITMAP
29
00
A3
A3
67
7B
ENDCHAR
STARTCHAR udieresis
ENCODING 252
SWIDTH 568 0
DWIDTH 5 0
BBX 4 6 0 0
BITMAP
26
00
A3
A3
67
7B
ENDCHAR
STARTCHAR yacute
ENCODING 253
SWIDTH 521 0
DWIDTH 4 0
BBX 4 9 0 -2
BITMAP
09
08
00
97
66
39
2C
28
70
ENDCHAR
STARTCHAR thorn
ENCODING 254
SWIDTH 573 0
DWIDTH 5 0
BBX 5 8 0 -2
BITMAP
6000
6000
7E00
6340
6300
7E00
6000
6000
ENDCHAR
STARTCHAR ydieresis
ENCODING 255
SWIDTH 521 0
DWIDTH 4 0
BBX 4 8 0 -2
BITMAP
65
00
97
66
39
2C
28
70
ENDCHAR
STARTCHAR Amacron
ENCODING 256
SWIDTH 573 0
DWIDTH 5 0
BBX 5 7 0 0
BITMAP
3D00
0000
2C00
3900
7600
BF00
D240
ENDCHAR
STARTCHAR amacron
ENCODING 257
SWIDTH 527 0
DWIDTH 4 0
BBX 4 6 0 0
BITMAP
3D
00
7D
7E
AA
7A
ENDCHAR
STARTCHAR Abreve
ENCODING 258
SWIDTH 573 0
DWIDTH 5 0
BBX 5 7 0 0
BITMAP
2500
2D00
2C00
3900
7600
BF00
D240
ENDCHAR
STARTCHAR abreve
ENCODING 259
SWIDTH 527 0
DWIDTH 4 0
BBX 4 6 0 0
BITMAP
25
2C
7D
7E
AA
7A
ENDCHAR
STARTCHAR Aogonek
ENCODING 260
SWIDTH 573 0
DWIDTH 5 0
BBX 5 7 0 -2
BITMAP
2C00
3900
7600
BF00
D240
0200
0280
ENDCHAR
STARTCHAR aogonek
ENCODING 261
SWIDTH 527 0
DWIDTH 4 0
BBX 4 6 0 -2
BITMAP
7D
7E
AA
7A
09
0A
ENDCHAR
STARTCHAR Cacute
ENCODING 262
SWIDTH 582 0
DWIDTH 5 0
BBX 5 7 0 0
BITMAP
0200
0900
2F00
7100
A000
7100
2F40
ENDCHAR
STARTCHAR cacute
ENCODING 263
SWIDTH 467 0
DWIDTH 4 0
BBX 4 7 0 0
BITMAP
06
08
00
2D
A0
A0
2D
ENDCHAR
STARTCHAR Ccircumflex
ENCODING 264
SWIDTH 582 0
DWIDTH 5 0
BBX 5 6 0 0
BITMAP
1A00
2F00
7100
A000
7100
2F40
ENDCHAR
STARTCHAR ccircumflex
ENCODING 265
SWIDTH 467 0
DWIDTH 4 0
BBX 4 6 0 0
BITMAP
29
00
2D
A0
A0
2D
ENDCHAR
STARTCHAR Cdotaccent
ENCODING 266
SWIDTH 582 0
DWIDTH 5 0
BBX 5 7 0 0
BITMAP
0900
0000
2F00
7100
A000
7100
2F40
ENDCHAR
STARTCHAR cdotaccent
ENCODING 267
SWIDTH 467 0
DWIDTH 4 0
BBX 4 6 0 0
BITMAP
18
00
2D
A0
A0
2D
ENDCHAR
STARTCHAR Ccaron
ENCODING 268
SWIDTH 582 0
DWIDTH 5 0
BBX 5 7 0 0
BITMAP
1A00
0000
2F00
7100
A000
7100
2F40
ENDCHAR
STARTCHAR ccaron
ENCODING 269
SWIDTH 467 0
DWIDTH 4 0
BBX 4 6 0 0
BITMAP
29
00
2D
A0
A0
2D
ENDCHAR
STARTCHAR Dcaron
ENCODING 270
SWIDTH 635 0
DWIDTH 5 0
BBX 5 7 0 0
BITMAP
1A00
0000
7E00
6280
6280
6240
7E00
ENDCHAR
STARTCHAR dcaron
ENCODING 271
SWIDTH 614 0
DWIDTH 5 0
BBX 5 6 0 0
BITMAP
0380
0300
3F00
A700
A700
7B00
ENDCHAR
STARTCHAR Dcroat
ENCODING 272
SWIDTH 660 0
DWIDTH 5 0
BBX 5 5 0 0
BITMAP
7E00
7280
BDC0
7280
7E00
ENDCHAR
STARTCHAR dcroat
ENCODING 273
SWIDTH 573 0
DWIDTH 5 0
BBX 5 6 0 0
BITMAP
0300
1F80
0300
7F00
A700
7F00
ENDCHAR
STARTCHAR Emacron
ENCODING 274
SWIDTH 548 0
DWIDTH 4 0
BBX 4 7 0 0
BITMAP
3E
00
7F
60
7E
60
7F
ENDCHAR
STARTCHAR emacron
ENCODING 275
SWIDTH 518 0
DWIDTH 4 0
BBX 4 6 0 0
BITMAP
3D
00
2D
BE
A0
2D
ENDCHAR
STARTCHAR Ebreve
ENCODING 276
SWIDTH 548 0
DWIDTH 4 0
BBX 4 7 0 0
BITMAP
25
2D
7F
60
7E
60
7F
ENDCHAR
STARTCHAR ebreve
ENCODING 277
SWIDTH 518 0
DWIDTH 4 0
BBX 4 6 0 0
BITMAP
25
2C
2D
BE
A0
2D
ENDCHAR
STARTCHAR Edotaccent
ENCODING 278
SWIDTH 548 0
DWIDTH 4 0
BBX 4 7 0 0
BITMAP
18
00
7F
60
7E
60
7F
ENDCHAR
STARTCHAR edotaccent
ENCODING 279
SWIDTH 518 0
DWIDTH 4 0
BBX 4 6 0 0
BITMAP
18
00
2D
BE
A0
2D
ENDCHAR
STARTCHAR Eogonek
ENCODING 280
SWIDTH 548 0
DWIDTH 4 0
BBX 4 7 0 -2
BITMAP
7F
60
7E
60
7F
05
07
ENDCHAR
STARTCHAR eogonek
ENCODING 281
SWIDTH 518 0
DWIDTH 4 0
BBX 4 6 0 -2
BITMAP
2D
BE
A0
2D
08
0A
ENDCHAR
STARTCHAR Ecaron
ENCODING 282
SWIDTH 548 0
DWIDTH 4 0
BBX 4 7 0 0
BITMAP
29
00
7F
60
7E
60
7F
ENDCHAR
STARTCHAR ecaron
ENCODING 283
SWIDTH 518 0
DWIDTH 4 0
BBX 4 6 0 0
BITMAP
29
00
2D
BE
A0
2D
ENDCHAR
STARTCHAR Gcircumflex
ENCODING 284
SWIDTH 638 0
DWIDTH 5 0
BBX 5 6 0 0
BITMAP
0A00
2F40
7100
A780
7180
2F40
ENDCHAR
STARTCHAR gcircumflex
ENCODING 285
SWIDTH 534 0
DWIDTH 4 0
BBX 4 8 0 -2
BITMAP
29
00
7F
AA
7D
7E
97
7D
ENDCHAR
STARTCHAR Gbreve
ENCODING 286
SWIDTH 638 0
DWIDTH 5 0
BBX 5 7 0 0
BITMAP
1600
0E00
2F40
7100
A780
7180
2F40
ENDCHAR
STARTCHAR gbreve
ENCODING 287
SWIDTH 534 0
DWIDTH 4 0
BBX 4 8 0 -2
BITMAP
26
2C
7F
AA
7D
7E
97
7D
ENDCHAR
STARTCHAR Gdotaccent
ENCODING 288
SWIDTH 638 0
DWIDTH 5 0
BBX 5 7 0 0
BITMAP
0900
0000
2F40
7100
A780
7180
2F40
ENDCHAR
STARTCHAR gdotaccent
ENCODING 289
SWIDTH 534 0
DWIDTH 4 0
BBX 4 8 0 -2
BITMAP
18
00
7F
AA
7D
7E
97
7D
ENDCHAR
STARTCHAR uni0122
ENCODING 290
SWIDTH 638 0
DWIDTH 5 0
BBX 5 8 0 -3
BITMAP
2F40
7100
A780
7180
2F40
0900
0600
0D00
ENDCHAR
STARTCHAR uni0123
ENCODING 291
SWIDTH 534 0
DWIDTH 4 0
BBX 4 9 0 -2
BITMAP
1C
14
18
7F
AA
7D
7E
97
7D
ENDCHAR
STARTCHAR Hcircumflex
ENCODING 292
SWIDTH 674 0
DWIDTH 5 0
BBX 5 6 0 0
BITMAP
1A00
6180
6180
7F80
6180
6180
ENDCHAR
STARTCHAR hcircumflex
ENCODING 293
SWIDTH 571 0
DWIDTH 5 0
BBX 4 6 0 0
BITMAP
F0
60
7E
67
63
63
ENDCHAR
STARTCHAR Hbar
ENCODING 294
SWIDTH 712 0
DWIDTH 6 0
BBX 6 5 0 0
BITMAP
BFE0
71C0
7FC0
71C0
71C0
ENDCHAR
STARTCHAR hbar
ENCODING 295
SWIDTH 571 0
DWIDTH 5 0
BBX 4 6 0 0
BITMAP
60
FC
60
7F
63
63
ENDCHAR
STARTCHAR Itilde
ENCODING 296
SWIDTH 301 0
DWIDTH 2 0
BBX 4 8 -1 0
BITMAP
01
3A
59
18
18
18
18
18
ENDCHAR
STARTCHAR itilde
ENCODING 297
SWIDTH 276 0
DWIDTH 2 0
BBX 4 6 -1 0
BITMAP
3A
58
18
18
18
18
ENDCHAR
STARTCHAR Imacron
ENCODING 298
SWIDTH 301 0
DWIDTH 2 0
BBX 3 7 0 0
BITMAP
F4
00
60
60
60
60
60
ENDCHAR
STARTCHAR imacron
ENCODING 299
SWIDTH 276 0
DWIDTH 2 0
BBX 3 6 0 0
BITMAP
F4
00
60
60
60
60
ENDCHAR
STARTCHAR uni012C
ENCODING 300
SWIDTH 301 0
DWIDTH 2 0
BBX 3 7 0 0
BITMAP
94
B0
60
60
60
60
60
ENDCHAR
STARTCHAR uni012D
ENCODING 301
SWIDTH 276 0
DWIDTH 2 0
BBX 4 6 -1 0
BITMAP
65
2C
18
18
18
18
ENDCHAR
STARTCHAR Iogonek
ENCODING 302
SWIDTH 301 0
DWIDTH 2 0
BBX 2 7 0 -2
BITMAP
60
60
60
60
60
50
70
ENDCHAR
STARTCHAR iogonek
ENCODING 303
SWIDTH 276 0
DWIDTH 2 0
BBX 2 8 0 -2
BITMAP
60
00
60
60
60
60
50
60
ENDCHAR
STARTCHAR Idotaccent
ENCODING 304
SWIDTH 301 0
DWIDTH 2 0
BBX 2 7 0 0
BITMAP
60
00
60
60
60
60
60
ENDCHAR
STARTCHAR dotlessi
ENCODING 305
SWIDTH 276 0
DWIDTH 2 0
BBX 2 4 0 0
BITMAP
60
60
60
60
ENDCHAR
STARTCHAR uni0132
ENCODING 306
SWIDTH 602 0
DWIDTH 5 0
BBX 5 6 0 -1
BITMAP
6340
6340
6340
6340
6340
0A00
ENDCHAR
STARTCHAR uni0133
ENCODING 307
SWIDTH 554 0
DWIDTH 4 0
BBX 4 8 0 -2
BITMAP
56
11
67
67
67
67
07
0D
ENDCHAR
STARTCHAR Jcircumflex
ENCODING 308
SWIDTH 509 0
DWIDTH 4 0
BBX 4 6 0 0
BITMAP
1A
09
09
09
49
78
ENDCHAR
STARTCHAR jcircumflex
ENCODING 309
SWIDTH 278 0
DWIDTH 2 0
BBX 4 8 -1 -2
BITMAP
29
00
18
18
18
18
28
74
ENDCHAR
STARTCHAR uni0136
ENCODING 310
SWIDTH 614 0
DWIDTH 5 0
BBX 5 8 0 -3
BITMAP
6340
6900
7D00
7700
6280
0900
0900
1800
ENDCHAR
STARTCHAR uni0137
ENCODING 311
SWIDTH 548 0
DWIDTH 4 0
BBX 4 9 0 -3
BITMAP
60
60
66
7C
79
67
08
0C
18
ENDCHAR
STARTCHAR kgreenlandic
ENCODING 312
SWIDTH 548 0
DWIDTH 4 0
BBX 4 4 0 0
BITMAP
66
7C
7D
67
ENDCHAR
STARTCHAR Lacute
ENCODING 313
SWIDTH 518 0
DWIDTH 4 0
BBX 4 7 0 0
BITMAP
24
20
60
60
60
60
7F
ENDCHAR
STARTCHAR lacute
ENCODING 314
SWIDTH 286 0
DWIDTH 2 0
BBX 3 7 0 0
BITMAP
24
B0
60
60
60
60
70
ENDCHAR
STARTCHAR uni013B
ENCODING 315
SWIDTH 518 0
DWIDTH 4 0
BBX 4 8 0 -3
BITMAP
60
60
60
60
7F
18
0C
28
ENDCHAR
STARTCHAR uni013C
ENCODING 316
SWIDTH 286 0
DWIDTH 2 0
BBX 3 9 0 -3
BITMAP
60
60
60
60
60
70
20
24
60
ENDCHAR
STARTCHAR Lcaron
ENCODING 317
SWIDTH 518 0
DWIDTH 4 0
BBX 4 6 0 0
BITMAP
05
60
60
60
60
7F
ENDCHAR
STARTCHAR lcaron
ENCODING 318
SWIDTH 319 0
DWIDTH 3 0
BBX 3 6 0 0
BITMAP
68
60
60
60
60
70
ENDCHAR
STARTCHAR Ldot
ENCODING 319
SWIDTH 518 0
DWIDTH 4 0
BBX 4 5 0 0
BITMAP
60
60
66
60
7F
ENDCHAR
STARTCHAR ldot
ENCODING 320
SWIDTH 453 0
DWIDTH 4 0
BBX 4 6 0 0
BITMAP
60
60
60
69
60
70
ENDCHAR
STARTCHAR Lslash
ENCODING 321
SWIDTH 524 0
DWIDTH 4 0
BBX 4 5 0 0
BITMAP
70
79
F0
70
7F
ENDCHAR
STARTCHAR lslash
ENCODING 322
SWIDTH 303 0
DWIDTH 2 0
BBX 3 6 0 0
BITMAP
60
60
74
F0
60
74
ENDCHAR
STARTCHAR Nacute
ENCODING 323
SWIDTH 665 0
DWIDTH 5 0
BBX 5 7 0 0
BITMAP
0600
0900
7180
7980
6E80
6780
6280
ENDCHAR
STARTCHAR nacute
ENCODING 324
SWIDTH 572 0
DWIDTH 5 0
BBX 4 7 0 0
BITMAP
06
09
00
6E
67
63
63
ENDCHAR
STARTCHAR uni0145
ENCODING 325
SWIDTH 665 0
DWIDTH 5 0
BBX 5 8 0 -3
BITMAP
7180
7980
6E80
6780
6280
0900
0900
0C00
ENDCHAR
STARTCHAR uni0146
ENCODING 326
SWIDTH 572 0
DWIDTH 5 0
BBX 4 7 0 -3
BITMAP
6E
67
63
63
08
0C
28
ENDCHAR
STARTCHAR Ncaron
ENCODING 327
SWIDTH 665 0
DWIDTH 5 0
BBX 5 7 0 0
BITMAP
1A00
0000
7180
7980
6E80
6780
6280
ENDCHAR
STARTCHAR ncaron
ENCODING 328
SWIDTH 572 0
DWIDTH 5 0
BBX 4 6 0 0
BITMAP
2A
00
6E
67
63
63
ENDCHAR
STARTCHAR napostrophe
ENCODING 329
SWIDTH 852 0
DWIDTH 7 0
BBX 7 5 0 0
BITMAP
6000
27F0
0734
0734
0734
ENDCHAR
STARTCHAR uni014A
ENCODING 330
SWIDTH 666 0
DWIDTH 5 0
BBX 5 5 0 0
BITMAP
7B40
7180
61C0
61C0
6740
ENDCHAR
STARTCHAR uni014B
ENCODING 331
SWIDTH 572 0
DWIDTH 5 0
BBX 4 6 0 -2
BITMAP
6E
67
63
63
03
0E
ENDCHAR
STARTCHAR Omacron
ENCODING 332
SWIDTH 684 0
DWIDTH 5 0
BBX 5 7 0 0
BITMAP
1F00
0000
2F40
71C0
A0C0
71C0
2F40
ENDCHAR
STARTCHAR omacron
ENCODING 333
SWIDTH 555 0
DWIDTH 4 0
BBX 4 6 0 0
BITMAP
3D
00
2D
A7
A7
2D
ENDCHAR
STARTCHAR uni014E
ENCODING 334
SWIDTH 684 0
DWIDTH 5 0
BBX 5 7 0 0
BITMAP
1600
1E00
2F40
71C0
A0C0
71C0
2F40
ENDCHAR
STARTCHAR uni014F
ENCODING 335
SWIDTH 555 0
DWIDTH 4 0
BBX 4 6 0 0
BITMAP
26
2C
2D
A7
A7
2D
ENDCHAR
STARTCHAR Ohungarumlaut
ENCODING 336
SWIDTH 684 0
DWIDTH 5 0
BBX 5 8 0 0
BITMAP
0940
0A00
0000
2F40
71C0
A0C0
71C0
2F40
ENDCHAR
STARTCHAR ohungarumlaut
ENCODING 337
SWIDTH 555 0
DWIDTH 4 0
BBX 4 6 0 0
BITMAP
16
01
2D
A7
A7
2D
ENDCHAR
STARTCHAR OE
ENCODING 338
SWIDTH 871 0
DWIDTH 7 0
BBX 7 5 0 0
BITMAP
2FF4
7280
A2F0
7280
2FF8
ENDCHAR
STARTCHAR oe
ENCODING 339
SWIDTH 822 0
DWIDTH 7 0
BBX 7 4 0 0
BITMAP
2EE0
A7F4
A740
7EE0
ENDCHAR
STARTCHAR Racute
ENCODING 340
SWIDTH 613 0
DWIDTH 5 0
BBX 5 7 0 0
BITMAP
0600
0900
7E00
6240
7F00
6700
6240
ENDCHAR
STARTCHAR racute
ENCODING 341
SWIDTH 398 0
DWIDTH 3 0
BBX 4 7 0 0
BITMAP
09
18
00
6C
70
60
60
ENDCHAR
STARTCHAR uni0156
ENCODING 342
SWIDTH 613 0
DWIDTH 5 0
BBX 5 8 0 -3
BITMAP
7E00
6240
7F00
6700
6240
0800
0900
1800
ENDCHAR
STARTCHAR uni0157
ENCODING 343
SWIDTH 398 0
DWIDTH 3 0
BBX 3 7 0 -3
BITMAP
6C
70
60
60
60
30
90
ENDCHAR
STARTCHAR Rcaron
ENCODING 344
SWIDTH 613 0
DWIDTH 5 0
BBX 5 7 0 0
BITMAP
2900
0000
7E00
6240
7F00
6700
6240
ENDCHAR
STARTCHAR rcaron
ENCODING 345
SWIDTH 398 0
DWIDTH 3 0
BBX 3 6 0 0
BITMAP
68
00
6C
70
60
60
ENDCHAR
STARTCHAR Sacute
ENCODING 346
SWIDTH 556 0
DWIDTH 4 0
BBX 4 7 0 0
BITMAP
05
08
2E
71
2E
17
7E
ENDCHAR
STARTCHAR sacute
ENCODING 347
SWIDTH 443 0
DWIDTH 4 0
BBX 4 7 0 0
BITMAP
08
18
00
7C
A4
1D
78
ENDCHAR
STARTCHAR Scircumflex
ENCODING 348
SWIDTH 556 0
DWIDTH 4 0
BBX 4 6 0 0
BITMAP
29
2E
71
2E
17
7E
ENDCHAR
STARTCHAR scircumflex
ENCODING 349
SWIDTH 443 0
DWIDTH 4 0
BBX 4 6 0 0
BITMAP
68
00
7C
A4
1D
78
ENDCHAR
STARTCHAR uni015E
ENCODING 350
SWIDTH 556 0
DWIDTH 4 0
BBX 4 8 0 -3
BITMAP
2E
71
2E
17
7E
18
0C
28
ENDCHAR
STARTCHAR uni015F
ENCODING 351
SWIDTH 443 0
DWIDTH 4 0
BBX 4 7 0 -3
BITMAP
7C
A4
1D
7C
24
18
34
ENDCHAR
STARTCHAR Scaron
ENCODING 352
SWIDTH 556 0
DWIDTH 4 0
BBX 4 7 0 0
BITMAP
29
00
2E
71
2E
17
7E
ENDCHAR
STARTCHAR scaron
ENCODING 353
SWIDTH 443 0
DWIDTH 4 0
BBX 4 6 0 0
BITMAP
68
00
7C
A4
1D
78
ENDCHAR
STARTCHAR uni0162
ENCODING 354
SWIDTH 556 0
DWIDTH 4 0
BBX 5 8 0 -3
BITMAP
BF40
1800
1800
1800
1C00
1800
0C00
2800
ENDCHAR
STARTCHAR uni0163
ENCODING 355
SWIDTH 383 0
DWIDTH 3 0
BBX 3 9 0 -3
BITMAP
30
70
F8
70
70
3C
24
18
34
ENDCHAR
STARTCHAR Tcaron
ENCODING 356
SWIDTH 556 0
DWIDTH 4 0
BBX 5 7 0 0
BITMAP
2900
0000
BF40
1800
1800
1800
1800
ENDCHAR
STARTCHAR tcaron
ENCODING 357
SWIDTH 383 0
DWIDTH 3 0
BBX 3 6 0 0
BITMAP
38
70
F8
70
70
38
ENDCHAR
STARTCHAR uni0166
ENCODING 358
SWIDTH 556 0
DWIDTH 4 0
BBX 5 5 0 0
BITMAP
BF40
1800
7E00
1800
1800
ENDCHAR
STARTCHAR uni0167
ENCODING 359
SWIDTH 383 0
DWIDTH 3 0
BBX 3 6 0 0
BITMAP
30
70
F8
F8
70
38
ENDCHAR
STARTCHAR Utilde
ENCODING 360
SWIDTH 665 0
DWIDTH 5 0
BBX 5 8 0 0
BITMAP
0100
2A00
2500
6180
6180
6180
7280
2E00
ENDCHAR
STARTCHAR utilde
ENCODING 361
SWIDTH 568 0
DWIDTH 5 0
BBX 4 7 0 0
BITMAP
01
3A
69
A3
A3
67
7B
ENDCHAR
STARTCHAR Umacron
ENCODING 362
SWIDTH 665 0
DWIDTH 5 0
BBX 5 7 0 0
BITMAP
2F00
0000
6180
6180
6180
7280
2E00
ENDCHAR
STARTCHAR umacron
ENCODING 363
SWIDTH 568 0
DWIDTH 5 0
BBX 4 6 0 0
BITMAP
3D
00
A3
A3
67
7B
ENDCHAR
STARTCHAR Ubreve
ENCODING 364
SWIDTH 665 0
DWIDTH 5 0
BBX 5 7 0 0
BITMAP
2600
1E00
6180
6180
6180
7280
2E00
ENDCHAR
STARTCHAR ubreve
ENCODING 365
SWIDTH 568 0
DWIDTH 5 0
BBX 4 6 0 0
BITMAP
26
2D
A3
A3
67
7B
ENDCHAR
STARTCHAR Uring
ENCODING 366
SWIDTH 665 0
DWIDTH 5 0
BBX 5 7 0 0
BITMAP
0D00
0D00
6180
6180
6180
7280
2E00
ENDCHAR
STARTCHAR uring
ENCODING 367
SWIDTH 568 0
DWIDTH 5 0
BBX 4 6 0 0
BITMAP
2D
2D
A3
A3
67
7B
ENDCHAR
STARTCHAR Uhungarumlaut
ENCODING 368
SWIDTH 665 0
DWIDTH 5 0
BBX 5 8 0 0
BITMAP
0940
1600
0000
6180
6180
6180
7280
2E00
ENDCHAR
STARTCHAR uhungarumlaut
ENCODING 369
SWIDTH 568 0
DWIDTH 5 0
BBX 4 6 0 0
BITMAP
16
01
A3
A3
67
7B
ENDCHAR
STARTCHAR Uogonek
ENCODING 370
SWIDTH 665 0
DWIDTH 5 0
BBX 5 7 0 -2
BITMAP
6180
6180
6180
7280
2F00
0800
0E00
ENDCHAR
STARTCHAR uogonek
ENCODING 371
SWIDTH 568 0
DWIDTH 5 0
BBX 4 6 0 -2
BITMAP
A3
A3
67
7B
06
07
ENDCHAR
STARTCHAR Wcircumflex
ENCODING 372
SWIDTH 813 0
DWIDTH 7 0
BBX 7 6 0 0
BITMAP
0A40
9724
AB30
6A70
7DA0
38E0
ENDCHAR
STARTCHAR wcircumflex
ENCODING 373
SWIDTH 776 0
DWIDTH 6 0
BBX 6 6 0 0
BITMAP
0A40
0000
9670
6B60
7A90
39D0
ENDCHAR
STARTCHAR Ycircumflex
ENCODING 374
SWIDTH 525 0
DWIDTH 4 0
BBX 4 6 0 0
BITMAP
28
97
6A
2C
18
18
ENDCHAR
STARTCHAR ycircumflex
ENCODING 375
SWIDTH 521 0
DWIDTH 4 0
BBX 4 8 0 -2
BITMAP
29
00
97
66
39
2C
28
70
ENDCHAR
STARTCHAR Ydieresis
ENCODING 376
SWIDTH 525 0
DWIDTH 4 0
BBX 4 7 0 0
BITMAP
65
00
97
6A
2C
18
18
ENDCHAR
STARTCHAR Zacute
ENCODING 377
SWIDTH 541 0
DWIDTH 4 0
BBX 4 7 0 0
BITMAP
09
08
BF
0A
2C
70
BF
ENDCHAR
STARTCHAR zacute
ENCODING 378
SWIDTH 460 0
DWIDTH 4 0
BBX 4 7 0 0
BITMAP
09
18
00
BD
1C
74
BD
ENDCHAR
STARTCHAR Zdotaccent
ENCODING 379
SWIDTH 541 0
DWIDTH 4 0
BBX 4 7 0 0
BITMAP
18
00
BF
0A
2C
70
BF
ENDCHAR
STARTCHAR zdotaccent
ENCODING 380
SWIDTH 460 0
DWIDTH 4 0
BBX 4 6 0 0
BITMAP
24
00
BD
1C
74
BD
ENDCHAR
STARTCHAR Zcaron
ENCODING 381
SWIDTH 541 0
DWIDTH 4 0
BBX 4 7 0 0
BITMAP
29
00
BF
0A
2C
70
BF
ENDCHAR
STARTCHAR zcaron
ENCODING 382
SWIDTH 460 0
DWIDTH 4 0
BBX 4 6 0 0
BITMAP
68
00
BD
1C
74
BD
ENDCHAR
STARTCHAR uni0180
ENCODING 384
SWIDTH 571 0
DWIDTH 5 0
BBX 5 6 0 0
BITMAP
6000
FC00
6000
7E00
7340
7E00
ENDCHAR
STARTCHAR uni018F
ENCODING 399
SWIDTH 675 0
DWIDTH 5 0
BBX 5 5 0 0
BITMAP
2F40
1180
BFC0
6180
2F40
ENDCHAR
STARTCHAR uni0192
ENCODING 402
SWIDTH 528 0
DWIDTH 4 0
BBX 4 6 0 -1
BITMAP
0A
1C
3E
28
24
B0
ENDCHAR
STARTCHAR uni0193
ENCODING 403
SWIDTH 638 0
DWIDTH 5 0
BBX 5 7 0 0
BITMAP
01C0
0240
2F40
7000
A780
7180
2F40
ENDCHAR
STARTCHAR Ohorn
ENCODING 416
SWIDTH 684 0
DWIDTH 5 0
BBX 6 6 0 0
BITMAP
0090
2F80
71C0
A0C0
71C0
2F40
ENDCHAR
STARTCHAR ohorn
ENCODING 417
SWIDTH 555 0
DWIDTH 4 0
BBX 5 5 0 0
BITMAP
0240
2E00
A700
A700
2D00
ENDCHAR
STARTCHAR Uhorn
ENCODING 431
SWIDTH 683 0
DWIDTH 5 0
BBX 6 7 0 0
BITMAP
0010
0060
61D0
6180
6180
7280
2F40
ENDCHAR
STARTCHAR uhorn
ENCODING 432
SWIDTH 568 0
DWIDTH 5 0
BBX 5 6 0 0
BITMAP
0040
0180
A340
A300
6700
7B00
ENDCHAR
STARTCHAR uni01C2
ENCODING 450
SWIDTH 330 0
DWIDTH 3 0
BBX 3 8 0 -2
BITMAP
20
20
20
F8
F8
20
20
20
ENDCHAR
STARTCHAR uni01CD
ENCODING 461
SWIDTH 573 0
DWIDTH 5 0
BBX 5 7 0 0
BITMAP
2900
0000
2C00
3900
7600
BF00
D240
ENDCHAR
STARTCHAR uni01CE
ENCODING 462
SWIDTH 527 0
DWIDTH 4 0
BBX 4 6 0 0
BITMAP
29
00
7D
7E
AA
7A
ENDCHAR
STARTCHAR uni01CF
ENCODING 463
SWIDTH 301 0
DWIDTH 2 0
BBX 3 7 0 0
BITMAP
A4
00
60
60
60
60
60
ENDCHAR
STARTCHAR uni01D0
ENCODING 464
SWIDTH 276 0
DWIDTH 2 0
BBX 3 6 0 0
BITMAP
A4
00
60
60
60
60
ENDCHAR
STARTCHAR uni01D1
ENCODING 465
SWIDTH 684 0
DWIDTH 5 0
BBX 5 7 0 0
BITMAP
1A00
0000
2F40
71C0
A0C0
71C0
2F40
ENDCHAR
STARTCHAR uni01D2
ENCODING 466
SWIDTH 555 0
DWIDTH 4 0
BBX 4 6 0 0
BITMAP
29
00
2D
A7
A7
2D
ENDCHAR
STARTCHAR uni01D3
ENCODING 467
SWIDTH 665 0
DWIDTH 5 0
BBX 5 7 0 0
BITMAP
1A00
0000
6180
6180
6180
7280
2E00
ENDCHAR
STARTCHAR uni01D4
ENCODING 468
SWIDTH 568 0
DWIDTH 5 0
BBX 4 6 0 0
BITMAP
29
00
A3
A3
67
7B
ENDCHAR
STARTCHAR uni01D5
ENCODING 469
SWIDTH 665 0
DWIDTH 5 0
BBX 5 9 0 0
BITMAP
2F00
0000
2200
0000
6180
6180
6180
7280
2E00
ENDCHAR
STARTCHAR uni01D6
ENCODING 470
SWIDTH 568 0
DWIDTH 5 0
BBX 4 8 0 0
BITMAP
3D
00
26
00
A3
A3
67
7B
ENDCHAR
STARTCHAR uni01D7
ENCODING 471
SWIDTH 665 0
DWIDTH 5 0
BBX 5 8 0 0
BITMAP
0500
2200
0000
6180
6180
6180
7280
2E00
ENDCHAR
STARTCHAR uni01D8
ENCODING 472
SWIDTH 568 0
DWIDTH 5 0
BBX 4 7 0 0
BITMAP
08
26
00
A3
A3
67
7B
ENDCHAR
STARTCHAR uni01D9
ENCODING 473
SWIDTH 665 0
DWIDTH 5 0
BBX 5 10 0 0
BITMAP
1600
0D00
0000
2200
0000
6180
6180
6180
7280
2E00
ENDCHAR
STARTCHAR uni01DA
ENCODING 474
SWIDTH 568 0
DWIDTH 5 0
BBX 4 9 0 0
BITMAP
25
1C
00
26
00
A3
A3
67
7B
ENDCHAR
STARTCHAR uni01DB
ENCODING 475
SWIDTH 665 0
DWIDTH 5 0
BBX 5 8 0 0
BITMAP
0800
2200
0000
6180
6180
6180
7280
2E00
ENDCHAR
STARTCHAR uni01DC
ENCODING 476
SWIDTH 568 0
DWIDTH 5 0
BBX 4 7 0 0
BITMAP
14
26
00
A3
A3
67
7B
ENDCHAR
STARTCHAR uni01E2
ENCODING 482
SWIDTH 845 0
DWIDTH 7 0
BBX 7 7 0 0
BITMAP
03D0
0000
0FF4
1B40
37F0
7F40
D3F4
ENDCHAR
STARTCHAR uni01E3
ENCODING 483
SWIDTH 786 0
DWIDTH 6 0
BBX 6 6 0 0
BITMAP
0F40
0000
7EE0
7FF0
AB00
7AE0
ENDCHAR
STARTCHAR Gcaron
ENCODING 486
SWIDTH 638 0
DWIDTH 5 0
BBX 5 7 0 0
BITMAP
0A00
0000
2F40
7100
A780
7180
2F40
ENDCHAR
STARTCHAR gcaron
ENCODING 487
SWIDTH 534 0
DWIDTH 4 0
BBX 4 8 0 -2
BITMAP
29
00
7F
AA
7D
7E
97
7D
ENDCHAR
STARTCHAR uni01EA
ENCODING 490
SWIDTH 684 0
DWIDTH 5 0
BBX 5 7 0 -2
BITMAP
2F40
71C0
A0C0
71C0
2F40
0800
0A00
ENDCHAR
STARTCHAR uni01EB
ENCODING 491
SWIDTH 555 0
DWIDTH 4 0
BBX 4 6 0 -2
BITMAP
2D
A7
A7
3D
14
1C
ENDCHAR
STARTCHAR uni01F4
ENCODING 500
SWIDTH 638 0
DWIDTH 5 0
BBX 5 7 0 0
BITMAP
0200
0600
2F40
7100
A780
7180
2F40
ENDCHAR
STARTCHAR uni01F5
ENCODING 501
SWIDTH 534 0
DWIDTH 4 0
BBX 4 9 0 -2
BITMAP
05
08
00
7F
AA
7D
7E
97
7D
ENDCHAR
STARTCHAR uni01F8
ENCODING 504
SWIDTH 665 0
DWIDTH 5 0
BBX 5 7 0 0
BITMAP
1400
0800
7180
7980
6E80
6780
6280
ENDCHAR
STARTCHAR uni01F9
ENCODING 505
SWIDTH 572 0
DWIDTH 5 0
BBX 4 7 0 0
BITMAP
24
18
00
6E
67
63
63
ENDCHAR
STARTCHAR uni01FC
ENCODING 508
SWIDTH 845 0
DWIDTH 7 0
BBX 7 7 0 0
BITMAP
0050
0080
0FF4
1B40
37F0
7F40
D3F4
ENDCHAR
STARTCHAR uni01FD
ENCODING 509
SWIDTH 786 0
DWIDTH 6 0
BBX 6 7 0 0
BITMAP
0140
0200
0000
7EE0
7FF0
AB00
7AE0
ENDCHAR
STARTCHAR uni0218
ENCODING 536
SWIDTH 556 0
DWIDTH 4 0
BBX 4 8 0 -3
BITMAP
2E
71
2E
17
7E
18
0C
28
ENDCHAR
STARTCHAR uni0219
ENCODING 537
SWIDTH 443 0
DWIDTH 4 0
BBX 4 7 0 -3
BITMAP
7C
A4
1D
78
24
18
34
ENDCHAR
STARTCHAR uni021A
ENCODING 538
SWIDTH 556 0
DWIDTH 4 0
BBX 5 8 0 -3
BITMAP
BF40
1800
1800
1800
1800
1800
0C00
2800
ENDCHAR
STARTCHAR uni021B
ENCODING 539
SWIDTH 383 0
DWIDTH 3 0
BBX 3 9 0 -3
BITMAP
30
70
F8
70
70
38
24
18
34
ENDCHAR
STARTCHAR uni0237
ENCODING 567
SWIDTH 278 0
DWIDTH 2 0
BBX 3 6 -1 -2
BITMAP
18
18
18
18
28
74
ENDCHAR
STARTCHAR uni0243
ENCODING 579
SWIDTH 628 0
DWIDTH 5 0
BBX 5 5 0 0
BITMAP
7F40
7640
7640
7680
7F40
ENDCHAR
STARTCHAR uni0250
ENCODING 592
SWIDTH 534 0
DWIDTH 4 0
BBX 4 4 0 0
BITMAP
AE
AA
7D
3D
ENDCHAR
STARTCHAR uni0251
ENCODING 593
SWIDTH 573 0
DWIDTH 5 0
BBX 4 4 0 0
BITMAP
3F
A7
A7
7B
ENDCHAR
STARTCHAR uni0252
ENCODING 594
SWIDTH 573 0
DWIDTH 5 0
BBX 5 4 0 0
BITMAP
6E00
6340
6300
6E00
ENDCHAR
STARTCHAR uni0253
ENCODING 595
SWIDTH 573 0
DWIDTH 5 0
BBX 5 6 0 0
BITMAP
3800
6000
7E00
6340
6300
7E00
ENDCHAR
STARTCHAR uni0254
ENCODING 596
SWIDTH 467 0
DWIDTH 4 0
BBX 4 4 0 0
BITMAP
78
0D
0D
B8
ENDCHAR
STARTCHAR uni0255
ENCODING 597
SWIDTH 467 0
DWIDTH 4 0
BBX 4 4 0 0
BITMAP
2D
BD
B6
BD
ENDCHAR
STARTCHAR uni0256
ENCODING 598
SWIDTH 573 0
DWIDTH 5 0
BBX 5 8 0 -2
BITMAP
0300
0300
3F00
A700
A700
7F00
0300
0280
ENDCHAR
STARTCHAR uni0257
ENCODING 599
SWIDTH 573 0
DWIDTH 5 0
BBX 5 6 0 0
BITMAP
0280
0300
3F00
A700
A700
7B00
ENDCHAR
STARTCHAR uni0258
ENCODING 600
SWIDTH 518 0
DWIDTH 4 0
BBX 4 4 0 0
BITMAP
7D
BE
0A
7D
ENDCHAR
STARTCHAR uni0259
ENCODING 601
SWIDTH 518 0
DWIDTH 4 0
BBX 4 4 0 0
BITMAP
7D
0A
BE
7D
ENDCHAR
STARTCHAR uni025A
ENCODING 602
SWIDTH 707 0
DWIDTH 6 0
BBX 6 5 0 0
BITMAP
0040
7FC0
2F60
AA00
7D00
ENDCHAR
STARTCHAR uni025B
ENCODING 603
SWIDTH 462 0
DWIDTH 4 0
BBX 4 4 0 0
BITMAP
7D
7C
A0
7D
ENDCHAR
STARTCHAR uni025C
ENCODING 604
SWIDTH 476 0
DWIDTH 4 0
BBX 4 4 0 0
BITMAP
7C
3C
0D
78
ENDCHAR
STARTCHAR uni025E
ENCODING 606
SWIDTH 566 0
DWIDTH 5 0
BBX 4 4 0 0
BITMAP
7E
7B
A3
7E
ENDCHAR
STARTCHAR uni025F
ENCODING 607
SWIDTH 321 0
DWIDTH 3 0
BBX 3 6 0 -2
BITMAP
70
F4
70
70
60
D0
ENDCHAR
STARTCHAR uni0260
ENCODING 608
SWIDTH 583 0
DWIDTH 5 0
BBX 5 7 0 -2
BITMAP
0280
2F40
A700
A700
3F00
0700
7E00
ENDCHAR
STARTCHAR uni0261
ENCODING 609
SWIDTH 583 0
DWIDTH 5 0
BBX 4 6 0 -2
BITMAP
2F
A7
A7
3F
07
7E
ENDCHAR
STARTCHAR uni0262
ENCODING 610
SWIDTH 517 0
DWIDTH 4 0
BBX 4 4 0 0
BITMAP
2D
A0
AE
2E
ENDCHAR
STARTCHAR uni0263
ENCODING 611
SWIDTH 523 0
DWIDTH 4 0
BBX 4 6 0 -2
BITMAP
97
66
39
2C
39
2C
ENDCHAR
STARTCHAR uni0264
ENCODING 612
SWIDTH 569 0
DWIDTH 5 0
BBX 5 4 0 0
BITMAP
BB40
2D00
7600
2D00
ENDCHAR
STARTCHAR uni0265
ENCODING 613
SWIDTH 572 0
DWIDTH 5 0
BBX 4 6 0 -2
BITMAP
A3
A3
67
7F
03
03
ENDCHAR
STARTCHAR uni0266
ENCODING 614
SWIDTH 571 0
DWIDTH 5 0
BBX 4 6 0 0
BITMAP
38
60
7E
67
63
63
ENDCHAR
STARTCHAR uni0267
ENCODING 615
SWIDTH 571 0
DWIDTH 5 0
BBX 4 8 0 -2
BITMAP
38
60
7E
67
63
63
03
0E
ENDCHAR
STARTCHAR uni0268
ENCODING 616
SWIDTH 321 0
DWIDTH 3 0
BBX 3 6 0 0
BITMAP
60
00
70
F4
70
70
ENDCHAR
STARTCHAR uni026A
ENCODING 618
SWIDTH 395 0
DWIDTH 3 0
BBX 3 4 0 0
BITMAP
B8
34
34
B8
ENDCHAR
STARTCHAR uni026C
ENCODING 620
SWIDTH 377 0
DWIDTH 3 0
BBX 3 6 0 0
BITMAP
34
74
B4
BC
34
28
ENDCHAR
STARTCHAR uni026D
ENCODING 621
SWIDTH 286 0
DWIDTH 2 0
BBX 3 8 0 -2
BITMAP
60
60
60
60
60
60
60
74
ENDCHAR
STARTCHAR uni026E
ENCODING 622
SWIDTH 640 0
DWIDTH 5 0
BBX 5 8 0 -2
BITMAP
6000
6000
7F80
6340
6B40
6680
01C0
1F40
ENDCHAR
STARTCHAR uni026F
ENCODING 623
SWIDTH 857 0
DWIDTH 7 0
BBX 7 4 0 0
BITMAP
A324
A324
6734
7AE4
ENDCHAR
STARTCHAR uni0270
ENCODING 624
SWIDTH 857 0
DWIDTH 7 0
BBX 7 6 0 -2
BITMAP
A324
A324
6734
7AF4
0024
0024
ENDCHAR
STARTCHAR uni0271
ENCODING 625
SWIDTH 857 0
DWIDTH 7 0
BBX 7 6 0 -2
BITMAP
6EB0
6774
6324
6324
0034
0070
ENDCHAR
STARTCHAR uni0272
ENCODING 626
SWIDTH 572 0
DWIDTH 5 0
BBX 4 6 0 -2
BITMAP
6E
67
63
63
A0
D0
ENDCHAR
STARTCHAR uni0273
ENCODING 627
SWIDTH 572 0
DWIDTH 5 0
BBX 5 6 0 -2
BITMAP
6E00
6700
6300
6300
0300
0280
ENDCHAR
STARTCHAR uni0274
ENCODING 628
SWIDTH 561 0
DWIDTH 4 0
BBX 4 4 0 0
BITMAP
73
7B
6F
67
ENDCHAR
STARTCHAR uni0275
ENCODING 629
SWIDTH 555 0
DWIDTH 4 0
BBX 4 4 0 0
BITMAP
2D
BF
A7
2D
ENDCHAR
STARTCHAR uni0276
ENCODING 630
SWIDTH 726 0
DWIDTH 6 0
BBX 6 4 0 0
BITMAP
2FD0
A7D0
A700
2FE0
ENDCHAR
STARTCHAR uni0278
ENCODING 632
SWIDTH 738 0
DWIDTH 6 0
BBX 6 8 0 -2
BITMAP
0900
0900
2F80
AA90
AA90
2F80
0900
0900
ENDCHAR
STARTCHAR uni0279
ENCODING 633
SWIDTH 398 0
DWIDTH 3 0
BBX 3 4 0 0
BITMAP
28
28
28
E8
ENDCHAR
STARTCHAR uni027A
ENCODING 634
SWIDTH 398 0
DWIDTH 3 0
BBX 3 6 0 0
BITMAP
28
28
28
28
28
E8
ENDCHAR
STARTCHAR uni027B
ENCODING 635
SWIDTH 398 0
DWIDTH 3 0
BBX 4 6 0 -2
BITMAP
28
28
28
E8
18
0D
ENDCHAR
STARTCHAR uni027D
ENCODING 637
SWIDTH 398 0
DWIDTH 3 0
BBX 3 6 0 -2
BITMAP
6C
70
60
60
60
74
ENDCHAR
STARTCHAR uni027E
ENCODING 638
SWIDTH 380 0
DWIDTH 3 0
BBX 3 4 0 0
BITMAP
3C
60
60
60
ENDCHAR
STARTCHAR uni0280
ENCODING 640
SWIDTH 532 0
DWIDTH 4 0
BBX 4 4 0 0
BITMAP
79
6A
7D
6A
ENDCHAR
STARTCHAR uni0281
ENCODING 641
SWIDTH 532 0
DWIDTH 4 0
BBX 4 4 0 0
BITMAP
A6
3E
66
7E
ENDCHAR
STARTCHAR uni0282
ENCODING 642
SWIDTH 443 0
DWIDTH 4 0
BBX 4 6 0 -2
BITMAP
7C
A4
1D
B8
90
70
ENDCHAR
STARTCHAR uni0283
ENCODING 643
SWIDTH 278 0
DWIDTH 2 0
BBX 4 8 -1 -2
BITMAP
0E
18
18
18
18
18
28
74
ENDCHAR
STARTCHAR uni0284
ENCODING 644
SWIDTH 321 0
DWIDTH 3 0
BBX 3 8 0 -2
BITMAP
38
70
70
F4
70
70
60
D0
ENDCHAR
STARTCHAR uni0288
ENCODING 648
SWIDTH 383 0
DWIDTH 3 0
BBX 3 7 0 -2
BITMAP
70
F8
70
70
70
70
38
ENDCHAR
STARTCHAR uni0289
ENCODING 649
SWIDTH 617 0
DWIDTH 5 0
BBX 5 4 0 0
BITMAP
7340
FF80
7340
3B40
ENDCHAR
STARTCHAR uni028A
ENCODING 650
SWIDTH 558 0
DWIDTH 4 0
BBX 5 4 0 0
BITMAP
B740
6700
A300
7E00
ENDCHAR
STARTCHAR uni028B
ENCODING 651
SWIDTH 552 0
DWIDTH 4 0
BBX 4 4 0 0
BITMAP
AA
A7
67
3D
ENDCHAR
STARTCHAR uni028C
ENCODING 652
SWIDTH 523 0
DWIDTH 4 0
BBX 4 4 0 0
BITMAP
2C
39
6A
97
ENDCHAR
STARTCHAR uni028D
ENCODING 653
SWIDTH 776 0
DWIDTH 6 0
BBX 6 4 0 0
BITMAP
39C0
6E90
6A60
9A70
ENDCHAR
STARTCHAR uni028E
ENCODING 654
SWIDTH 521 0
DWIDTH 4 0
BBX 4 6 0 0
BITMAP
0A
18
28
3C
6A
97
ENDCHAR
STARTCHAR uni028F
ENCODING 655
SWIDTH 466 0
DWIDTH 4 0
BBX 4 4 0 0
BITMAP
9A
6C
38
24
ENDCHAR
STARTCHAR uni0290
ENCODING 656
SWIDTH 460 0
DWIDTH 4 0
BBX 4 6 0 -2
BITMAP
BD
18
70
BD
09
07
ENDCHAR
STARTCHAR uni0291
ENCODING 657
SWIDTH 503 0
DWIDTH 4 0
BBX 4 5 0 -1
BITMAP
BD
1F
7A
BE
14
ENDCHAR
STARTCHAR uni0292
ENCODING 658
SWIDTH 460 0
DWIDTH 4 0
BBX 4 6 0 -2
BITMAP
BD
18
38
1D
49
B8
ENDCHAR
STARTCHAR uni0294
ENCODING 660
SWIDTH 448 0
DWIDTH 4 0
BBX 4 6 0 0
BITMAP
B8
4D
0D
38
34
34
ENDCHAR
STARTCHAR uni0295
ENCODING 661
SWIDTH 506 0
DWIDTH 4 0
BBX 4 6 0 0
BITMAP
7D
A1
60
28
18
18
ENDCHAR
STARTCHAR uni0298
ENCODING 664
SWIDTH 556 0
DWIDTH 4 0
BBX 4 6 0 0
BITMAP
2D
67
93
AB
66
2D
ENDCHAR
STARTCHAR uni0299
ENCODING 665
SWIDTH 528 0
DWIDTH 4 0
BBX 4 4 0 0
BITMAP
7E
7E
67
7E
ENDCHAR
STARTCHAR uni029C
ENCODING 668
SWIDTH 582 0
DWIDTH 5 0
BBX 4 4 0 0
BITMAP
63
7F
63
63
ENDCHAR
STARTCHAR uni029D
ENCODING 669
SWIDTH 360 0
DWIDTH 3 0
BBX 4 8 -1 -2
BITMAP
09
00
09
09
09
3D
6E
3B
ENDCHAR
STARTCHAR uni029F
ENCODING 671
SWIDTH 432 0
DWIDTH 3 0
BBX 4 4 0 0
BITMAP
60
60
60
7D
ENDCHAR
STARTCHAR uni02A1
ENCODING 673
SWIDTH 476 0
DWIDTH 4 0
BBX 4 6 0 0
BITMAP
BC
4A
1D
FE
34
34
ENDCHAR
STARTCHAR uni02A2
ENCODING 674
SWIDTH 476 0
DWIDTH 4 0
BBX 4 6 0 0
BITMAP
7D
A1
60
FE
28
28
ENDCHAR
STARTCHAR h.sups
ENCODING 688
SWIDTH 384 0
DWIDTH 3 0
BBX 3 4 0 3
BITMAP
90
B8
98
98
ENDCHAR
STARTCHAR j.sups
ENCODING 690
SWIDTH 190 0
DWIDTH 2 0
BBX 3 6 -1 2
BITMAP
20
00
24
24
24
70
ENDCHAR
STARTCHAR r.sups
ENCODING 691
SWIDTH 272 0
DWIDTH 2 0
BBX 2 3 0 3
BITMAP
A0
90
90
ENDCHAR
STARTCHAR w.sups
ENCODING 695
SWIDTH 523 0
DWIDTH 4 0
BBX 4 3 0 3
BITMAP
9A
AA
6A
ENDCHAR
STARTCHAR y.sups
ENCODING 696
SWIDTH 353 0
DWIDTH 3 0
BBX 3 4 0 2
BITMAP
98
64
30
A0
ENDCHAR
STARTCHAR uni02B9
ENCODING 697
SWIDTH 300 0
DWIDTH 2 0
BBX 2 2 0 3
BITMAP
70
60
ENDCHAR
STARTCHAR uni02BB
ENCODING 699
SWIDTH 300 0
DWIDTH 2 0
BBX 2 3 0 3
BITMAP
10
50
60
ENDCHAR
STARTCHAR uni02BC
ENCODING 700
SWIDTH 300 0
DWIDTH 2 0
BBX 2 2 0 3
BITMAP
60
20
ENDCHAR
STARTCHAR uni02BE
ENCODING 702
SWIDTH 176 0
DWIDTH 1 0
BBX 2 2 0 4
BITMAP
90
90
ENDCHAR
STARTCHAR uni02BF
ENCODING 703
SWIDTH 176 0
DWIDTH 1 0
BBX 2 2 0 4
BITMAP
90
90
ENDCHAR
STARTCHAR uni02C1
ENCODING 705
SWIDTH 343 0
DWIDTH 3 0
BBX 3 4 0 3
BITMAP
74
90
60
20
ENDCHAR
STARTCHAR circumflex
ENCODING 710
SWIDTH 555 0
DWIDTH 4 0
BBX 3 1 1 5
BITMAP
A4
ENDCHAR
STARTCHAR caron
ENCODING 711
SWIDTH 555 0
DWIDTH 4 0
BBX 3 1 1 5
BITMAP
A4
ENDCHAR
STARTCHAR uni02C8
ENCODING 712
SWIDTH 147 0
DWIDTH 1 0
BBX 1 1 0 5
BITMAP
C0
ENDCHAR
STARTCHAR uni02C9
ENCODING 713
SWIDTH 308 0
DWIDTH 2 0
BBX 3 1 0 5
BITMAP
F4
ENDCHAR
STARTCHAR uni02CA
ENCODING 714
SWIDTH 236 0
DWIDTH 2 0
BBX 3 2 0 5
BITMAP
24
60
ENDCHAR
STARTCHAR uni02CB
ENCODING 715
SWIDTH 236 0
DWIDTH 2 0
BBX 3 2 -1 5
BITMAP
60
24
ENDCHAR
STARTCHAR uni02CC
ENCODING 716
SWIDTH 147 0
DWIDTH 1 0
BBX 1 1 0 -2
BITMAP
C0
ENDCHAR
STARTCHAR uni02D0
ENCODING 720
SWIDTH 300 0
DWIDTH 2 0
BBX 2 4 0 0
BITMAP
60
00
00
60
ENDCHAR
STARTCHAR uni02D1
ENCODING 721
SWIDTH 300 0
DWIDTH 2 0
BBX 2 1 0 3
BITMAP
60
ENDCHAR
STARTCHAR breve
ENCODING 728
SWIDTH 555 0
DWIDTH 4 0
BBX 3 2 1 4
BITMAP
98
B0
ENDCHAR
STARTCHAR dotaccent
ENCODING 729
SWIDTH 555 0
DWIDTH 4 0
BBX 2 1 1 5
BITMAP
60
ENDCHAR
STARTCHAR ring
ENCODING 730
SWIDTH 555 0
DWIDTH 4 0
BBX 2 2 1 4
BITMAP
B0
B0
ENDCHAR
STARTCHAR ogonek
ENCODING 731
SWIDTH 555 0
DWIDTH 4 0
BBX 2 2 1 -2
BITMAP
50
70
ENDCHAR
STARTCHAR tilde
ENCODING 732
SWIDTH 555 0
DWIDTH 4 0
BBX 4 3 0 4
BITMAP
01
3A
69
ENDCHAR
STARTCHAR hungarumlaut
ENCODING 733
SWIDTH 555 0
DWIDTH 4 0
BBX 3 2 1 4
BITMAP
58
04
ENDCHAR
STARTCHAR uni02DE
ENCODING 734
SWIDTH 189 0
DWIDTH 2 0
BBX 3 2 -1 2
BITMAP
A0
68
ENDCHAR
STARTCHAR uni02E0
ENCODING 736
SWIDTH 353 0
DWIDTH 3 0
BBX 3 4 0 2
BITMAP
98
64
70
70
ENDCHAR
STARTCHAR l.sups
ENCODING 737
SWIDTH 194 0
DWIDTH 2 0
BBX 2 4 0 3
BITMAP
90
90
90
90
ENDCHAR
STARTCHAR s.sups
ENCODING 738
SWIDTH 297 0
DWIDTH 2 0
BBX 2 3 0 3
BITMAP
B0
60
B0
ENDCHAR
STARTCHAR x.sups
ENCODING 739
SWIDTH 348 0
DWIDTH 3 0
BBX 3 3 0 3
BITMAP
A4
70
A4
ENDCHAR
STARTCHAR uni0300
ENCODING 768
SWIDTH 0 0
DWIDTH 0 0
BBX 3 2 -2 5
BITMAP
60
24
ENDCHAR
STARTCHAR uni0301
ENCODING 769
SWIDTH 0 0
DWIDTH 0 0
BBX 3 2 -1 5
BITMAP
24
60
ENDCHAR
STARTCHAR uni0302
ENCODING 770
SWIDTH 0 0
DWIDTH 0 0
BBX 2 1 -1 5
BITMAP
A0
ENDCHAR
STARTCHAR uni0303
ENCODING 771
SWIDTH 0 0
DWIDTH 0 0
BBX 4 2 -2 4
BITMAP
79
58
ENDCHAR
STARTCHAR uni0304
ENCODING 772
SWIDTH 0 0
DWIDTH 0 0
BBX 4 1 -2 5
BITMAP
7D
ENDCHAR
STARTCHAR uni0305
ENCODING 773
SWIDTH 0 0
DWIDTH 0 0
BBX 4 1 -2 5
BITMAP
7D
ENDCHAR
STARTCHAR uni0306
ENCODING 774
SWIDTH 0 0
DWIDTH 0 0
BBX 4 2 -2 4
BITMAP
69
28
ENDCHAR
STARTCHAR uni0307
ENCODING 775
SWIDTH 0 0
DWIDTH 0 0
BBX 2 1 -1 5
BITMAP
50
ENDCHAR
STARTCHAR uni0308
ENCODING 776
SWIDTH 0 0
DWIDTH 0 0
BBX 4 1 -2 5
BITMAP
69
ENDCHAR
STARTCHAR uni0309
ENCODING 777
SWIDTH 0 0
DWIDTH 0 0
BBX 2 2 -1 4
BITMAP
90
60
ENDCHAR
STARTCHAR uni030A
ENCODING 778
SWIDTH 0 0
DWIDTH 0 0
BBX 2 2 -1 4
BITMAP
A0
F0
ENDCHAR
STARTCHAR uni030B
ENCODING 779
SWIDTH 0 0
DWIDTH 0 0
BBX 3 2 -1 4
BITMAP
98
10
ENDCHAR
STARTCHAR uni030C
ENCODING 780
SWIDTH 0 0
DWIDTH 0 0
BBX 2 1 -1 5
BITMAP
A0
ENDCHAR
STARTCHAR uni030F
ENCODING 783
SWIDTH 0 0
DWIDTH 0 0
BBX 3 2 -2 5
BITMAP
98
58
ENDCHAR
STARTCHAR uni0311
ENCODING 785
SWIDTH 0 0
DWIDTH 0 0
BBX 4 2 -2 5
BITMAP
28
55
ENDCHAR
STARTCHAR uni0312
ENCODING 786
SWIDTH 0 0
DWIDTH 0 0
BBX 2 2 -1 5
BITMAP
40
50
ENDCHAR
STARTCHAR uni0313
ENCODING 787
SWIDTH 0 0
DWIDTH 0 0
BBX 2 2 -1 4
BITMAP
50
50
ENDCHAR
STARTCHAR uni0318
ENCODING 792
SWIDTH 0 0
DWIDTH 0 0
BBX 2 3 -1 -3
BITMAP
10
A0
10
ENDCHAR
STARTCHAR uni0319
ENCODING 793
SWIDTH 0 0
DWIDTH 0 0
BBX 2 3 -1 -3
BITMAP
40
A0
40
ENDCHAR
STARTCHAR uni031A
ENCODING 794
SWIDTH 0 0
DWIDTH 0 0
BBX 2 2 -1 4
BITMAP
A0
10
ENDCHAR
STARTCHAR uni031B
ENCODING 795
SWIDTH 0 0
DWIDTH 0 0
BBX 2 2 0 3
BITMAP
90
80
ENDCHAR
STARTCHAR uni031C
ENCODING 796
SWIDTH 0 0
DWIDTH 0 0
BBX 2 2 -1 -2
BITMAP
50
50
ENDCHAR
STARTCHAR uni031D
ENCODING 797
SWIDTH 0 0
DWIDTH 0 0
BBX 2 2 -1 -2
BITMAP
50
F0
ENDCHAR
STARTCHAR uni031E
ENCODING 798
SWIDTH 0 0
DWIDTH 0 0
BBX 2 2 -1 -2
BITMAP
F0
50
ENDCHAR
STARTCHAR uni031F
ENCODING 799
SWIDTH 0 0
DWIDTH 0 0
BBX 2 1 -1 -2
BITMAP
F0
ENDCHAR
STARTCHAR uni0320
ENCODING 800
SWIDTH 0 0
DWIDTH 0 0
BBX 2 1 -1 -2
BITMAP
F0
ENDCHAR
STARTCHAR uni0323
ENCODING 803
SWIDTH 0 0
DWIDTH 0 0
BBX 2 1 -1 -1
BITMAP
50
ENDCHAR
STARTCHAR uni0324
ENCODING 804
SWIDTH 0 0
DWIDTH 0 0
BBX 4 1 -2 -1
BITMAP
69
ENDCHAR
STARTCHAR uni0325
ENCODING 805
SWIDTH 0 0
DWIDTH 0 0
BBX 2 2 -1 -2
BITMAP
A0
F0
ENDCHAR
STARTCHAR uni0326
ENCODING 806
SWIDTH 0 0
DWIDTH 0 0
BBX 2 3 -1 -3
BITMAP
50
60
90
ENDCHAR
STARTCHAR uni0327
ENCODING 807
SWIDTH 0 0
DWIDTH 0 0
BBX 2 4 -1 -3
BITMAP
40
A0
60
90
ENDCHAR
STARTCHAR uni0328
ENCODING 808
SWIDTH 0 0
DWIDTH 0 0
BBX 2 2 -1 -2
BITMAP
90
60
ENDCHAR
STARTCHAR uni0329
ENCODING 809
SWIDTH 0 0
DWIDTH 0 0
BBX 2 1 -1 -2
BITMAP
50
ENDCHAR
STARTCHAR uni032A
ENCODING 810
SWIDTH 0 0
DWIDTH 0 0
BBX 2 2 -1 -2
BITMAP
F0
50
ENDCHAR
STARTCHAR uni032C
ENCODING 812
SWIDTH 0 0
DWIDTH 0 0
BBX 2 1 -1 -1
BITMAP
A0
ENDCHAR
STARTCHAR uni032E
ENCODING 814
SWIDTH 0 0
DWIDTH 0 0
BBX 4 2 -2 -2
BITMAP
69
28
ENDCHAR
STARTCHAR uni032F
ENCODING 815
SWIDTH 0 0
DWIDTH 0 0
BBX 4 2 -2 -1
BITMAP
28
55
ENDCHAR
STARTCHAR uni0330
ENCODING 816
SWIDTH 0 0
DWIDTH 0 0
BBX 4 2 -2 -2
BITMAP
79
58
ENDCHAR
STARTCHAR uni0331
ENCODING 817
SWIDTH 0 0
DWIDTH 0 0
BBX 4 1 -2 -1
BITMAP
7D
ENDCHAR
STARTCHAR uni0334
ENCODING 820
SWIDTH 0 0
DWIDTH 0 0
BBX 4 2 -2 1
BITMAP
79
58
ENDCHAR
STARTCHAR uni0339
ENCODING 825
SWIDTH 0 0
DWIDTH 0 0
BBX 2 2 -1 -2
BITMAP
50
50
ENDCHAR
STARTCHAR uni033A
ENCODING 826
SWIDTH 0 0
DWIDTH 0 0
BBX 2 2 -1 -2
BITMAP
50
F0
ENDCHAR
STARTCHAR uni033B
ENCODING 827
SWIDTH 0 0
DWIDTH 0 0
BBX 2 2 -1 -2
BITMAP
F0
F0
ENDCHAR
STARTCHAR uni033C
ENCODING 828
SWIDTH 0 0
DWIDTH 0 0
BBX 4 2 -2 -2
BITMAP
69
69
ENDCHAR
STARTCHAR uni033D
ENCODING 829
SWIDTH 0 0
DWIDTH 0 0
BBX 2 1 -1 5
BITMAP
A0
ENDCHAR
STARTCHAR uni0342
ENCODING 834
SWIDTH 0 0
DWIDTH 0 0
BBX 4 2 -2 4
BITMAP
79
58
ENDCHAR
STARTCHAR uni0345
ENCODING 837
SWIDTH 0 0
DWIDTH 0 0
BBX 2 1 -1 -2
BITMAP
60
ENDCHAR
STARTCHAR uni0361
ENCODING 865
SWIDTH 0 0
DWIDTH 0 0
BBX 8 2 -4 4
BITMAP
1BE4
5005
ENDCHAR
STARTCHAR uni0374
ENCODING 884
SWIDTH 300 0
DWIDTH 2 0
BBX 2 2 0 3
BITMAP
70
60
ENDCHAR
STARTCHAR uni0375
ENCODING 885
SWIDTH 300 0
DWIDTH 2 0
BBX 2 2 0 0
BITMAP
60
60
ENDCHAR
STARTCHAR uni037A
ENCODING 890
SWIDTH 555 0
DWIDTH 4 0
BBX 1 1 2 -2
BITMAP
80
ENDCHAR
STARTCHAR uni037E
ENCODING 894
SWIDTH 300 0
DWIDTH 2 0
BBX 2 6 0 -2
BITMAP
60
00
00
70
20
40
ENDCHAR
STARTCHAR tonos
ENCODING 900
SWIDTH 555 0
DWIDTH 4 0
BBX 1 2 2 5
BITMAP
80
80
ENDCHAR
STARTCHAR dieresistonos
ENCODING 901
SWIDTH 555 0
DWIDTH 4 0
BBX 3 3 1 4
BITMAP
10
A8
10
ENDCHAR
STARTCHAR Alphatonos
ENCODING 902
SWIDTH 622 0
DWIDTH 5 0
BBX 5 5 0 0
BITMAP
9E00
AB00
3740
7F80
61C0
ENDCHAR
STARTCHAR anoteleia
ENCODING 903
SWIDTH 300 0
DWIDTH 2 0
BBX 2 1 0 3
BITMAP
60
ENDCHAR
STARTCHAR Epsilontonos
ENCODING 904
SWIDTH 667 0
DWIDTH 5 0
BBX 5 5 0 0
BITMAP
DF80
9800
1F80
1800
1FC0
ENDCHAR
STARTCHAR Etatonos
ENCODING 905
SWIDTH 792 0
DWIDTH 6 0
BBX 6 5 0 0
BITMAP
D860
9860
1FE0
1860
1860
ENDCHAR
STARTCHAR Iotatonos
ENCODING 906
SWIDTH 420 0
DWIDTH 3 0
BBX 3 5 0 0
BITMAP
D8
98
18
18
18
ENDCHAR
STARTCHAR Omicrontonos
ENCODING 908
SWIDTH 777 0
DWIDTH 6 0
BBX 6 5 0 0
BITMAP
CB80
A8A0
3460
28A0
0B80
ENDCHAR
STARTCHAR Upsilontonos
ENCODING 910
SWIDTH 704 0
DWIDTH 6 0
BBX 6 5 0 0
BITMAP
DC90
8DC0
0740
0300
0300
ENDCHAR
STARTCHAR Omegatonos
ENCODING 911
SWIDTH 803 0
DWIDTH 6 0
BBX 6 5 0 0
BITMAP
CB90
A8A0
2470
18A0
3DF0
ENDCHAR
STARTCHAR iotadieresistonos
ENCODING 912
SWIDTH 301 0
DWIDTH 2 0
BBX 4 7 -1 0
BITMAP
04
69
00
18
18
18
1D
ENDCHAR
STARTCHAR Alpha
ENCODING 913
SWIDTH 573 0
DWIDTH 5 0
BBX 5 5 0 0
BITMAP
2C00
3900
7600
BF00
D240
ENDCHAR
STARTCHAR Beta
ENCODING 914
SWIDTH 605 0
DWIDTH 5 0
BBX 5 5 0 0
BITMAP
7E00
6340
7F00
6280
7F40
ENDCHAR
STARTCHAR Gamma
ENCODING 915
SWIDTH 521 0
DWIDTH 4 0
BBX 4 5 0 0
BITMAP
7F
60
60
60
60
ENDCHAR
STARTCHAR uni0394
ENCODING 916
SWIDTH 640 0
DWIDTH 5 0
BBX 5 5 0 0
BITMAP
1D00
2A00
3340
6280
BF80
ENDCHAR
STARTCHAR Epsilon
ENCODING 917
SWIDTH 548 0
DWIDTH 4 0
BBX 4 5 0 0
BITMAP
7F
60
7E
60
7F
ENDCHAR
STARTCHAR Zeta
ENCODING 918
SWIDTH 541 0
DWIDTH 4 0
BBX 4 5 0 0
BITMAP
BF
0A
2C
70
BF
ENDCHAR
STARTCHAR Eta
ENCODING 919
SWIDTH 674 0
DWIDTH 5 0
BBX 5 5 0 0
BITMAP
6180
6180
7F80
6180
6180
ENDCHAR
STARTCHAR Theta
ENCODING 920
SWIDTH 684 0
DWIDTH 5 0
BBX 5 5 0 0
BITMAP
2F40
71C0
AEC0
71C0
2F40
ENDCHAR
STARTCHAR Iota
ENCODING 921
SWIDTH 301 0
DWIDTH 2 0
BBX 2 5 0 0
BITMAP
60
60
60
60
60
ENDCHAR
STARTCHAR Kappa
ENCODING 922
SWIDTH 614 0
DWIDTH 5 0
BBX 5 5 0 0
BITMAP
6340
6900
7D00
7700
6280
ENDCHAR
STARTCHAR Lambda
ENCODING 923
SWIDTH 556 0
DWIDTH 4 0
BBX 5 5 0 0
BITMAP
2C00
3900
6600
A300
D340
ENDCHAR
STARTCHAR Mu
ENCODING 924
SWIDTH 762 0
DWIDTH 6 0
BBX 6 5 0 0
BITMAP
70D0
75D0
6E90
6A90
6590
ENDCHAR
STARTCHAR Nu
ENCODING 925
SWIDTH 665 0
DWIDTH 5 0
BBX 5 5 0 0
BITMAP
7180
7980
6E80
6780
6280
ENDCHAR
STARTCHAR Xi
ENCODING 926
SWIDTH 571 0
DWIDTH 5 0
BBX 4 5 0 0
BITMAP
BF
00
3E
00
BF
ENDCHAR
STARTCHAR Omicron
ENCODING 927
SWIDTH 684 0
DWIDTH 5 0
BBX 5 5 0 0
BITMAP
2F40
71C0
A0C0
71C0
2F40
ENDCHAR
STARTCHAR Pi
ENCODING 928
SWIDTH 663 0
DWIDTH 5 0
BBX 5 5 0 0
BITMAP
7F80
6180
6180
6180
6180
ENDCHAR
STARTCHAR Rho
ENCODING 929
SWIDTH 596 0
DWIDTH 5 0
BBX 5 5 0 0
BITMAP
7E00
6240
7E00
6000
6000
ENDCHAR
STARTCHAR Sigma
ENCODING 931
SWIDTH 549 0
DWIDTH 4 0
BBX 4 5 0 0
BITMAP
BF
34
1C
34
BF
ENDCHAR
STARTCHAR Tau
ENCODING 932
SWIDTH 556 0
DWIDTH 4 0
BBX 5 5 0 0
BITMAP
BF40
1800
1800
1800
1800
ENDCHAR
STARTCHAR Upsilon
ENCODING 933
SWIDTH 525 0
DWIDTH 4 0
BBX 4 5 0 0
BITMAP
97
6A
2C
18
18
ENDCHAR
STARTCHAR Phi
ENCODING 934
SWIDTH 760 0
DWIDTH 6 0
BBX 6 5 0 0
BITMAP
0600
2F90
AAA0
2F90
0600
ENDCHAR
STARTCHAR Chi
ENCODING 935
SWIDTH 567 0
DWIDTH 5 0
BBX 5 5 0 0
BITMAP
A300
3A00
2C00
3A00
A340
ENDCHAR
STARTCHAR Psi
ENCODING 936
SWIDTH 752 0
DWIDTH 6 0
BBX 6 5 0 0
BITMAP
AAA0
AAA0
7FD0
0A00
0A00
ENDCHAR
STARTCHAR uni03A9
ENCODING 937
SWIDTH 711 0
DWIDTH 6 0
BBX 6 5 0 0
BITMAP
2F40
71C0
60D0
3180
B6D0
ENDCHAR
STARTCHAR Iotadieresis
ENCODING 938
SWIDTH 301 0
DWIDTH 2 0
BBX 3 7 0 0
BITMAP
94
00
60
60
60
60
60
ENDCHAR
STARTCHAR Upsilondieresis
ENCODING 939
SWIDTH 525 0
DWIDTH 4 0
BBX 4 7 0 0
BITMAP
65
00
97
6A
2C
18
18
ENDCHAR
STARTCHAR alphatonos
ENCODING 940
SWIDTH 595 0
DWIDTH 5 0
BBX 5 7 0 0
BITMAP
0800
0800
0000
3B40
A700
A700
7A80
ENDCHAR
STARTCHAR epsilontonos
ENCODING 941
SWIDTH 471 0
DWIDTH 4 0
BBX 4 7 0 0
BITMAP
08
18
00
7D
78
A0
7D
ENDCHAR
STARTCHAR etatonos
ENCODING 942
SWIDTH 562 0
DWIDTH 5 0
BBX 4 8 0 -1
BITMAP
09
08
00
AE
77
63
63
03
ENDCHAR
STARTCHAR iotatonos
ENCODING 943
SWIDTH 301 0
DWIDTH 2 0
BBX 3 7 0 0
BITMAP
20
60
00
60
60
60
74
ENDCHAR
STARTCHAR upsilondieresistonos
ENCODING 944
SWIDTH 532 0
DWIDTH 4 0
BBX 4 7 0 0
BITMAP
04
69
00
A6
A7
A6
7D
ENDCHAR
STARTCHAR alpha
ENCODING 945
SWIDTH 595 0
DWIDTH 5 0
BBX 5 4 0 0
BITMAP
3B40
A700
A700
7A80
ENDCHAR
STARTCHAR beta
ENCODING 946
SWIDTH 600 0
DWIDTH 5 0
BBX 5 7 0 -1
BITMAP
2E00
6700
6A00
6740
6240
7F00
6000
ENDCHAR
STARTCHAR gamma
ENCODING 947
SWIDTH 533 0
DWIDTH 4 0
BBX 4 5 0 -1
BITMAP
93
76
2D
28
18
ENDCHAR
STARTCHAR delta
ENCODING 948
SWIDTH 548 0
DWIDTH 4 0
BBX 4 6 0 0
BITMAP
3E
74
2D
A7
A7
3D
ENDCHAR
STARTCHAR epsilon
ENCODING 949
SWIDTH 471 0
DWIDTH 4 0
BBX 4 4 0 0
BITMAP
7D
78
A0
7D
ENDCHAR
STARTCHAR zeta
ENCODING 950
SWIDTH 466 0
DWIDTH 4 0
BBX 4 7 0 -1
BITMAP
7E
18
30
A0
A0
7D
09
ENDCHAR
STARTCHAR eta
ENCODING 951
SWIDTH 562 0
DWIDTH 5 0
BBX 4 5 0 -1
BITMAP
AE
77
63
63
03
ENDCHAR
STARTCHAR theta
ENCODING 952
SWIDTH 549 0
DWIDTH 4 0
BBX 4 6 0 0
BITMAP
2D
66
A7
BF
66
2D
ENDCHAR
STARTCHAR iota
ENCODING 953
SWIDTH 301 0
DWIDTH 2 0
BBX 3 4 0 0
BITMAP
60
60
60
74
ENDCHAR
STARTCHAR kappa
ENCODING 954
SWIDTH 546 0
DWIDTH 4 0
BBX 4 4 0 0
BITMAP
A6
6D
7D
67
ENDCHAR
STARTCHAR lambda
ENCODING 955
SWIDTH 552 0
DWIDTH 4 0
BBX 5 6 0 0
BITMAP
B400
1C00
1D00
3A00
7700
A340
ENDCHAR
STARTCHAR uni03BC
ENCODING 956
SWIDTH 594 0
DWIDTH 5 0
BBX 5 5 0 -1
BITMAP
6300
6300
6700
7A80
6000
ENDCHAR
STARTCHAR nu
ENCODING 957
SWIDTH 523 0
DWIDTH 4 0
BBX 4 4 0 0
BITMAP
97
76
39
2C
ENDCHAR
STARTCHAR xi
ENCODING 958
SWIDTH 469 0
DWIDTH 4 0
BBX 4 7 0 -1
BITMAP
FE
70
70
3C
A0
7D
09
ENDCHAR
STARTCHAR omicron
ENCODING 959
SWIDTH 553 0
DWIDTH 4 0
BBX 4 4 0 0
BITMAP
2D
A7
A7
2D
ENDCHAR
STARTCHAR pi
ENCODING 960
SWIDTH 635 0
DWIDTH 5 0
BBX 5 4 0 0
BITMAP
FFC0
3300
3300
7280
ENDCHAR
STARTCHAR rho
ENCODING 961
SWIDTH 569 0
DWIDTH 5 0
BBX 4 5 0 -1
BITMAP
2E
63
A3
BE
A0
ENDCHAR
STARTCHAR uni03C2
ENCODING 962
SWIDTH 446 0
DWIDTH 4 0
BBX 4 5 0 -1
BITMAP
2D
A0
A0
7C
08
ENDCHAR
STARTCHAR sigma
ENCODING 963
SWIDTH 573 0
DWIDTH 5 0
BBX 5 4 0 0
BITMAP
2F40
A600
A700
7D00
ENDCHAR
STARTCHAR tau
ENCODING 964
SWIDTH 492 0
DWIDTH 4 0
BBX 4 4 0 0
BITMAP
BE
28
28
1D
ENDCHAR
STARTCHAR upsilon
ENCODING 965
SWIDTH 532 0
DWIDTH 4 0
BBX 4 4 0 0
BITMAP
A6
A7
A6
7D
ENDCHAR
STARTCHAR phi
ENCODING 966
SWIDTH 738 0
DWIDTH 6 0
BBX 6 7 0 -1
BITMAP
0900
0900
2F80
AA90
AA90
2F80
0900
ENDCHAR
STARTCHAR chi
ENCODING 967
SWIDTH 526 0
DWIDTH 4 0
BBX 4 5 0 -1
BITMAP
A6
3D
2C
39
A7
ENDCHAR
STARTCHAR psi
ENCODING 968
SWIDTH 752 0
DWIDTH 6 0
BBX 6 7 0 -1
BITMAP
0A00
0A00
AA90
AAA0
6AA0
2F80
0A00
ENDCHAR
STARTCHAR omega
ENCODING 969
SWIDTH 746 0
DWIDTH 6 0
BBX 6 4 0 0
BITMAP
6090
A5A0
AAA0
7AD0
ENDCHAR
STARTCHAR iotadieresis
ENCODING 970
SWIDTH 301 0
DWIDTH 2 0
BBX 4 6 -1 0
BITMAP
65
00
18
18
18
1D
ENDCHAR
STARTCHAR upsilondieresis
ENCODING 971
SWIDTH 532 0
DWIDTH 4 0
BBX 4 6 0 0
BITMAP
65
00
A6
A7
A6
7D
ENDCHAR
STARTCHAR omicrontonos
ENCODING 972
SWIDTH 553 0
DWIDTH 4 0
BBX 4 7 0 0
BITMAP
08
08
00
2D
A7
A7
2D
ENDCHAR
STARTCHAR upsilontonos
ENCODING 973
SWIDTH 532 0
DWIDTH 4 0
BBX 4 7 0 0
BITMAP
08
18
00
A6
A7
A6
7D
ENDCHAR
STARTCHAR omegatonos
ENCODING 974
SWIDTH 746 0
DWIDTH 6 0
BBX 6 7 0 0
BITMAP
0600
0600
0000
6090
A5A0
AAA0
7AD0
ENDCHAR
STARTCHAR uni03D0
ENCODING 976
SWIDTH 592 0
DWIDTH 5 0
BBX 5 6 0 0
BITMAP
2E00
6700
7E00
6740
6340
2E00
ENDCHAR
STARTCHAR uni03D1
ENCODING 977
SWIDTH 549 0
DWIDTH 4 0
BBX 4 6 0 0
BITMAP
7D
A6
7B
57
66
3D
ENDCHAR
STARTCHAR uni03D5
ENCODING 981
SWIDTH 738 0
DWIDTH 6 0
BBX 6 5 0 -1
BITMAP
67C0
AAA0
AA90
2F80
0A00
ENDCHAR
STARTCHAR uni03D7
ENCODING 983
SWIDTH 546 0
DWIDTH 4 0
BBX 4 5 0 -1
BITMAP
A6
6D
7D
67
06
ENDCHAR
STARTCHAR uni03D9
ENCODING 985
SWIDTH 553 0
DWIDTH 4 0
BBX 4 5 0 -1
BITMAP
2D
A7
A7
7D
18
ENDCHAR
STARTCHAR uni03DB
ENCODING 987
SWIDTH 490 0
DWIDTH 4 0
BBX 4 5 0 -1
BITMAP
2E
A0
A0
2D
09
ENDCHAR
STARTCHAR uni03DD
ENCODING 989
SWIDTH 433 0
DWIDTH 3 0
BBX 4 5 0 -1
BITMAP
7D
60
7C
60
60
ENDCHAR
STARTCHAR uni03E1
ENCODING 993
SWIDTH 536 0
DWIDTH 4 0
BBX 4 7 0 -1
BITMAP
20
2C
1D
A7
2F
23
03
ENDCHAR
STARTCHAR uni0400
ENCODING 1024
SWIDTH 548 0
DWIDTH 4 0
BBX 4 7 0 0
BITMAP
20
18
7F
60
7E
60
7F
ENDCHAR
STARTCHAR uni0401
ENCODING 1025
SWIDTH 548 0
DWIDTH 4 0
BBX 4 7 0 0
BITMAP
26
00
7F
60
7E
60
7F
ENDCHAR
STARTCHAR uni0402
ENCODING 1026
SWIDTH 701 0
DWIDTH 6 0
BBX 6 5 0 0
BITMAP
BF40
2800
2F80
28D0
2A80
ENDCHAR
STARTCHAR uni0403
ENCODING 1027
SWIDTH 521 0
DWIDTH 4 0
BBX 4 7 0 0
BITMAP
05
08
7F
60
60
60
60
ENDCHAR
STARTCHAR uni0404
ENCODING 1028
SWIDTH 582 0
DWIDTH 5 0
BBX 5 5 0 0
BITMAP
2F00
6100
BD00
6100
2F40
ENDCHAR
STARTCHAR uni0405
ENCODING 1029
SWIDTH 556 0
DWIDTH 4 0
BBX 4 5 0 0
BITMAP
2E
71
2E
17
7E
ENDCHAR
STARTCHAR uni0406
ENCODING 1030
SWIDTH 301 0
DWIDTH 2 0
BBX 2 5 0 0
BITMAP
60
60
60
60
60
ENDCHAR
STARTCHAR uni0407
ENCODING 1031
SWIDTH 301 0
DWIDTH 2 0
BBX 3 7 0 0
BITMAP
94
00
60
60
60
60
60
ENDCHAR
STARTCHAR uni0408
ENCODING 1032
SWIDTH 509 0
DWIDTH 4 0
BBX 4 5 0 0
BITMAP
09
09
09
49
78
ENDCHAR
STARTCHAR uni0409
ENCODING 1033
SWIDTH 920 0
DWIDTH 7 0
BBX 7 5 0 0
BITMAP
1F80
2A80
26F8
329C
E2F8
ENDCHAR
STARTCHAR uni040A
ENCODING 1034
SWIDTH 933 0
DWIDTH 7 0
BBX 7 5 0 0
BITMAP
6180
6180
7FF8
619C
61F8
ENDCHAR
STARTCHAR uni040B
ENCODING 1035
SWIDTH 718 0
DWIDTH 6 0
BBX 6 5 0 0
BITMAP
BF40
2800
2F80
28D0
28D0
ENDCHAR
STARTCHAR uni040C
ENCODING 1036
SWIDTH 622 0
DWIDTH 5 0
BBX 5 7 0 0
BITMAP
0200
0900
6280
6600
7D00
6700
6280
ENDCHAR
STARTCHAR uni040D
ENCODING 1037
SWIDTH 676 0
DWIDTH 5 0
BBX 5 7 0 0
BITMAP
1400
0800
6280
6780
6A80
7980
7180
ENDCHAR
STARTCHAR uni040E
ENCODING 1038
SWIDTH 555 0
DWIDTH 4 0
BBX 5 7 0 0
BITMAP
3600
2D00
9340
7700
2D00
1C00
7400
ENDCHAR
STARTCHAR uni040F
ENCODING 1039
SWIDTH 663 0
DWIDTH 5 0
BBX 5 6 0 -1
BITMAP
6180
6180
6180
6180
7F80
0D00
ENDCHAR
STARTCHAR uni0410
ENCODING 1040
SWIDTH 573 0
DWIDTH 5 0
BBX 5 5 0 0
BITMAP
2C00
3900
7600
BF00
D240
ENDCHAR
STARTCHAR uni0411
ENCODING 1041
SWIDTH 600 0
DWIDTH 5 0
BBX 5 5 0 0
BITMAP
7F40
7400
7B40
6240
7E00
ENDCHAR
STARTCHAR uni0412
ENCODING 1042
SWIDTH 605 0
DWIDTH 5 0
BBX 5 5 0 0
BITMAP
7E00
6340
7F00
6280
7F40
ENDCHAR
STARTCHAR uni0413
ENCODING 1043
SWIDTH 521 0
DWIDTH 4 0
BBX 4 5 0 0
BITMAP
7F
60
60
60
60
ENDCHAR
STARTCHAR uni0414
ENCODING 1044
SWIDTH 670 0
DWIDTH 5 0
BBX 6 6 0 -1
BITMAP
2F80
2680
3280
6280
FFD0
D0D0
ENDCHAR
STARTCHAR uni0415
ENCODING 1045
SWIDTH 548 0
DWIDTH 4 0
BBX 4 5 0 0
BITMAP
7F
60
7E
60
7F
ENDCHAR
STARTCHAR uni0416
ENCODING 1046
SWIDTH 868 0
DWIDTH 7 0
BBX 7 5 0 0
BITMAP
A328
3770
2FE0
3770
A328
ENDCHAR
STARTCHAR uni0417
ENCODING 1047
SWIDTH 564 0
DWIDTH 5 0
BBX 5 5 0 0
BITMAP
7E00
1700
2E00
1340
7E00
ENDCHAR
STARTCHAR uni0418
ENCODING 1048
SWIDTH 676 0
DWIDTH 5 0
BBX 5 5 0 0
BITMAP
6280
6780
6A80
7980
7180
ENDCHAR
STARTCHAR uni0419
ENCODING 1049
SWIDTH 676 0
DWIDTH 5 0
BBX 5 7 0 0
BITMAP
2700
1E00
6280
6780
6A80
7980
7180
ENDCHAR
STARTCHAR uni041A
ENCODING 1050
SWIDTH 622 0
DWIDTH 5 0
BBX 5 5 0 0
BITMAP
6280
6600
7D00
6700
6280
ENDCHAR
STARTCHAR uni041B
ENCODING 1051
SWIDTH 657 0
DWIDTH 5 0
BBX 5 5 0 0
BITMAP
1F80
2680
3680
7280
D280
ENDCHAR
STARTCHAR uni041C
ENCODING 1052
SWIDTH 762 0
DWIDTH 6 0
BBX 6 5 0 0
BITMAP
70D0
75D0
6E90
6A90
6590
ENDCHAR
STARTCHAR uni041D
ENCODING 1053
SWIDTH 674 0
DWIDTH 5 0
BBX 5 5 0 0
BITMAP
6180
6180
7F80
6180
6180
ENDCHAR
STARTCHAR uni041E
ENCODING 1054
SWIDTH 684 0
DWIDTH 5 0
BBX 5 5 0 0
BITMAP
2F40
71C0
A0C0
71C0
2F40
ENDCHAR
STARTCHAR uni041F
ENCODING 1055
SWIDTH 663 0
DWIDTH 5 0
BBX 5 5 0 0
BITMAP
7F80
6180
6180
6180
6180
ENDCHAR
STARTCHAR uni0420
ENCODING 1056
SWIDTH 596 0
DWIDTH 5 0
BBX 5 5 0 0
BITMAP
7E00
6240
7E00
6000
6000
ENDCHAR
STARTCHAR uni0421
ENCODING 1057
SWIDTH 582 0
DWIDTH 5 0
BBX 5 5 0 0
BITMAP
2F00
7100
A000
7100
2F40
ENDCHAR
STARTCHAR uni0422
ENCODING 1058
SWIDTH 556 0
DWIDTH 4 0
BBX 5 5 0 0
BITMAP
BF40
1800
1800
1800
1800
ENDCHAR
STARTCHAR uni0423
ENCODING 1059
SWIDTH 555 0
DWIDTH 4 0
BBX 5 5 0 0
BITMAP
9340
7700
2D00
1C00
7400
ENDCHAR
STARTCHAR uni0424
ENCODING 1060
SWIDTH 764 0
DWIDTH 6 0
BBX 6 5 0 0
BITMAP
0600
6F90
AAA0
6F90
0600
ENDCHAR
STARTCHAR uni0425
ENCODING 1061
SWIDTH 567 0
DWIDTH 5 0
BBX 5 5 0 0
BITMAP
A300
3A00
2C00
3A00
A340
ENDCHAR
STARTCHAR uni0426
ENCODING 1062
SWIDTH 669 0
DWIDTH 5 0
BBX 6 6 0 -1
BITMAP
6280
6280
6280
6280
7FD0
00D0
ENDCHAR
STARTCHAR uni0427
ENCODING 1063
SWIDTH 630 0
DWIDTH 5 0
BBX 5 5 0 0
BITMAP
A240
6240
2F40
0240
0240
ENDCHAR
STARTCHAR uni0428
ENCODING 1064
SWIDTH 910 0
DWIDTH 7 0
BBX 7 5 0 0
BITMAP
6358
6358
6358
6358
7FF8
ENDCHAR
STARTCHAR uni0429
ENCODING 1065
SWIDTH 926 0
DWIDTH 7 0
BBX 8 6 0 -1
BITMAP
6358
6358
6358
6358
7FFD
000D
ENDCHAR
STARTCHAR uni042A
ENCODING 1066
SWIDTH 730 0
DWIDTH 6 0
BBX 6 5 0 0
BITMAP
BC00
1C00
1F80
1C90
1F80
ENDCHAR
STARTCHAR uni042B
ENCODING 1067
SWIDTH 853 0
DWIDTH 7 0
BBX 7 5 0 0
BITMAP
6034
6034
7E34
6374
7E34
ENDCHAR
STARTCHAR uni042C
ENCODING 1068
SWIDTH 600 0
DWIDTH 5 0
BBX 5 5 0 0
BITMAP
6000
6000
7E00
6240
7E00
ENDCHAR
STARTCHAR uni042D
ENCODING 1069
SWIDTH 582 0
DWIDTH 5 0
BBX 5 5 0 0
BITMAP
7D00
0700
2F40
4700
7D00
ENDCHAR
STARTCHAR uni042E
ENCODING 1070
SWIDTH 950 0
DWIDTH 8 0
BBX 8 5 0 0
BITMAP
61F4
635C
7F0D
675C
61F4
ENDCHAR
STARTCHAR uni042F
ENCODING 1071
SWIDTH 617 0
DWIDTH 5 0
BBX 5 5 0 0
BITMAP
7F40
A340
3F40
3740
A340
ENDCHAR
STARTCHAR uni0430
ENCODING 1072
SWIDTH 527 0
DWIDTH 4 0
BBX 4 4 0 0
BITMAP
7D
7E
AA
7A
ENDCHAR
STARTCHAR uni0431
ENCODING 1073
SWIDTH 561 0
DWIDTH 4 0
BBX 4 6 0 0
BITMAP
2F
60
BE
A7
67
2D
ENDCHAR
STARTCHAR uni0432
ENCODING 1074
SWIDTH 528 0
DWIDTH 4 0
BBX 4 4 0 0
BITMAP
7E
7E
67
7E
ENDCHAR
STARTCHAR uni0433
ENCODING 1075
SWIDTH 432 0
DWIDTH 3 0
BBX 4 4 0 0
BITMAP
7D
60
60
60
ENDCHAR
STARTCHAR uni0434
ENCODING 1076
SWIDTH 584 0
DWIDTH 5 0
BBX 5 5 0 -1
BITMAP
3F00
7700
6700
FF80
D280
ENDCHAR
STARTCHAR uni0435
ENCODING 1077
SWIDTH 518 0
DWIDTH 4 0
BBX 4 4 0 0
BITMAP
2D
BE
A0
2D
ENDCHAR
STARTCHAR uni0436
ENCODING 1078
SWIDTH 761 0
DWIDTH 6 0
BBX 6 4 0 0
BITMAP
A6A0
3FC0
7AD0
A660
ENDCHAR
STARTCHAR uni0437
ENCODING 1079
SWIDTH 476 0
DWIDTH 4 0
BBX 4 4 0 0
BITMAP
7D
3C
09
7C
ENDCHAR
STARTCHAR uni0438
ENCODING 1080
SWIDTH 583 0
DWIDTH 5 0
BBX 4 4 0 0
BITMAP
67
6B
7B
73
ENDCHAR
STARTCHAR uni0439
ENCODING 1081
SWIDTH 583 0
DWIDTH 5 0
BBX 4 6 0 0
BITMAP
36
2D
67
6B
7B
73
ENDCHAR
STARTCHAR uni043A
ENCODING 1082
SWIDTH 546 0
DWIDTH 4 0
BBX 4 4 0 0
BITMAP
67
7C
6A
67
ENDCHAR
STARTCHAR uni043B
ENCODING 1083
SWIDTH 573 0
DWIDTH 5 0
BBX 4 4 0 0
BITMAP
3F
33
73
D3
ENDCHAR
STARTCHAR uni043C
ENCODING 1084
SWIDTH 660 0
DWIDTH 5 0
BBX 5 4 0 0
BITMAP
7280
7780
6E80
6980
ENDCHAR
STARTCHAR uni043D
ENCODING 1085
SWIDTH 582 0
DWIDTH 5 0
BBX 4 4 0 0
BITMAP
63
7F
63
63
ENDCHAR
STARTCHAR uni043E
ENCODING 1086
SWIDTH 555 0
DWIDTH 4 0
BBX 4 4 0 0
BITMAP
2D
A7
A7
2D
ENDCHAR
STARTCHAR uni043F
ENCODING 1087
SWIDTH 574 0
DWIDTH 5 0
BBX 4 4 0 0
BITMAP
7F
63
63
63
ENDCHAR
STARTCHAR uni0440
ENCODING 1088
SWIDTH 573 0
DWIDTH 5 0
BBX 5 6 0 -2
BITMAP
6E00
6340
6300
7E00
6000
6000
ENDCHAR
STARTCHAR uni0441
ENCODING 1089
SWIDTH 467 0
DWIDTH 4 0
BBX 4 4 0 0
BITMAP
2D
A0
A0
2D
ENDCHAR
STARTCHAR uni0442
ENCODING 1090
SWIDTH 492 0
DWIDTH 4 0
BBX 4 4 0 0
BITMAP
BE
28
28
28
ENDCHAR
STARTCHAR uni0443
ENCODING 1091
SWIDTH 521 0
DWIDTH 4 0
BBX 4 6 0 -2
BITMAP
97
66
39
2C
28
70
ENDCHAR
STARTCHAR uni0444
ENCODING 1092
SWIDTH 779 0
DWIDTH 6 0
BBX 6 8 0 -2
BITMAP
0600
0600
7FD0
A670
A660
7FD0
0600
0600
ENDCHAR
STARTCHAR uni0445
ENCODING 1093
SWIDTH 514 0
DWIDTH 4 0
BBX 4 4 0 0
BITMAP
A6
3C
3C
AA
ENDCHAR
STARTCHAR uni0446
ENCODING 1094
SWIDTH 595 0
DWIDTH 5 0
BBX 5 5 0 -1
BITMAP
6300
6300
6300
7F80
0180
ENDCHAR
STARTCHAR uni0447
ENCODING 1095
SWIDTH 550 0
DWIDTH 4 0
BBX 4 4 0 0
BITMAP
A7
A7
7F
07
ENDCHAR
STARTCHAR uni0448
ENCODING 1096
SWIDTH 803 0
DWIDTH 6 0
BBX 6 4 0 0
BITMAP
6670
6670
6670
7FF0
ENDCHAR
STARTCHAR uni0449
ENCODING 1097
SWIDTH 829 0
DWIDTH 7 0
BBX 7 5 0 -1
BITMAP
6670
6670
6670
7FF8
0024
ENDCHAR
STARTCHAR uni044A
ENCODING 1098
SWIDTH 623 0
DWIDTH 5 0
BBX 5 4 0 0
BITMAP
B800
2F40
2A80
2F40
ENDCHAR
STARTCHAR uni044B
ENCODING 1099
SWIDTH 739 0
DWIDTH 6 0
BBX 6 4 0 0
BITMAP
6090
7D90
6A90
7D90
ENDCHAR
STARTCHAR uni044C
ENCODING 1100
SWIDTH 516 0
DWIDTH 4 0
BBX 4 4 0 0
BITMAP
60
7D
66
7D
ENDCHAR
STARTCHAR uni044D
ENCODING 1101
SWIDTH 467 0
DWIDTH 4 0
BBX 4 4 0 0
BITMAP
78
3D
0D
B8
ENDCHAR
STARTCHAR uni044E
ENCODING 1102
SWIDTH 776 0
DWIDTH 6 0
BBX 6 4 0 0
BITMAP
67D0
7E70
6A70
62D0
ENDCHAR
STARTCHAR uni044F
ENCODING 1103
SWIDTH 544 0
DWIDTH 4 0
BBX 4 4 0 0
BITMAP
7F
67
3F
67
ENDCHAR
STARTCHAR uni0450
ENCODING 1104
SWIDTH 518 0
DWIDTH 4 0
BBX 4 7 0 0
BITMAP
20
24
00
2D
BE
A0
2D
ENDCHAR
STARTCHAR uni0451
ENCODING 1105
SWIDTH 518 0
DWIDTH 4 0
BBX 4 6 0 0
BITMAP
25
00
2D
BE
A0
2D
ENDCHAR
STARTCHAR uni0452
ENCODING 1106
SWIDTH 572 0
DWIDTH 5 0
BBX 5 8 0 -2
BITMAP
6000
FC00
6000
7E00
6340
6340
0300
0E00
ENDCHAR
STARTCHAR uni0453
ENCODING 1107
SWIDTH 432 0
DWIDTH 3 0
BBX 4 7 0 0
BITMAP
09
18
00
7D
60
60
60
ENDCHAR
STARTCHAR uni0454
ENCODING 1108
SWIDTH 467 0
DWIDTH 4 0
BBX 4 4 0 0
BITMAP
2D
BC
A0
6D
ENDCHAR
STARTCHAR uni0455
ENCODING 1109
SWIDTH 443 0
DWIDTH 4 0
BBX 4 4 0 0
BITMAP
7C
A4
1D
78
ENDCHAR
STARTCHAR uni0456
ENCODING 1110
SWIDTH 276 0
DWIDTH 2 0
BBX 2 6 0 0
BITMAP
60
00
60
60
60
60
ENDCHAR
STARTCHAR uni0457
ENCODING 1111
SWIDTH 276 0
DWIDTH 2 0
BBX 4 6 -1 0
BITMAP
65
00
18
18
18
18
ENDCHAR
STARTCHAR uni0458
ENCODING 1112
SWIDTH 278 0
DWIDTH 2 0
BBX 3 8 -1 -2
BITMAP
18
00
18
18
18
18
28
74
ENDCHAR
STARTCHAR uni0459
ENCODING 1113
SWIDTH 780 0
DWIDTH 6 0
BBX 6 4 0 0
BITMAP
3F00
37E0
7770
D7E0
ENDCHAR
STARTCHAR uni045A
ENCODING 1114
SWIDTH 788 0
DWIDTH 6 0
BBX 6 4 0 0
BITMAP
6700
7FE0
6770
67E0
ENDCHAR
STARTCHAR uni045B
ENCODING 1115
SWIDTH 571 0
DWIDTH 5 0
BBX 4 6 0 0
BITMAP
60
FC
60
7F
63
63
ENDCHAR
STARTCHAR uni045C
ENCODING 1116
SWIDTH 546 0
DWIDTH 4 0
BBX 4 7 0 0
BITMAP
06
08
00
67
7C
6A
67
ENDCHAR
STARTCHAR uni045D
ENCODING 1117
SWIDTH 583 0
DWIDTH 5 0
BBX 4 7 0 0
BITMAP
20
18
00
67
6B
7B
73
ENDCHAR
STARTCHAR uni045E
ENCODING 1118
SWIDTH 521 0
DWIDTH 4 0
BBX 4 8 0 -2
BITMAP
69
2C
97
66
39
2C
28
70
ENDCHAR
STARTCHAR uni045F
ENCODING 1119
SWIDTH 578 0
DWIDTH 5 0
BBX 4 5 0 -1
BITMAP
63
63
63
7F
1C
ENDCHAR
STARTCHAR uni0462
ENCODING 1122
SWIDTH 624 0
DWIDTH 5 0
BBX 5 6 0 0
BITMAP
2400
BF00
3400
3F40
3680
3F40
ENDCHAR
STARTCHAR uni0463
ENCODING 1123
SWIDTH 600 0
DWIDTH 5 0
BBX 5 5 0 0
BITMAP
2400
BE00
2F40
2640
2F40
ENDCHAR
STARTCHAR uni0472
ENCODING 1138
SWIDTH 684 0
DWIDTH 5 0
BBX 5 5 0 0
BITMAP
2F40
61C0
BFC0
61C0
2F40
ENDCHAR
STARTCHAR uni0473
ENCODING 1139
SWIDTH 555 0
DWIDTH 4 0
BBX 4 4 0 0
BITMAP
2D
BF
A7
2D
ENDCHAR
STARTCHAR uni0474
ENCODING 1140
SWIDTH 574 0
DWIDTH 5 0
BBX 5 5 0 0
BITMAP
D280
A300
7600
3900
2C00
ENDCHAR
STARTCHAR uni0475
ENCODING 1141
SWIDTH 533 0
DWIDTH 4 0
BBX 5 4 0 0
BITMAP
9340
6600
3900
2C00
ENDCHAR
STARTCHAR uni0490
ENCODING 1168
SWIDTH 521 0
DWIDTH 4 0
BBX 4 7 0 0
BITMAP
03
03
7F
60
60
60
60
ENDCHAR
STARTCHAR uni0491
ENCODING 1169
SWIDTH 433 0
DWIDTH 3 0
BBX 4 6 0 0
BITMAP
04
09
7D
60
60
60
ENDCHAR
STARTCHAR uni0492
ENCODING 1170
SWIDTH 546 0
DWIDTH 4 0
BBX 4 5 0 0
BITMAP
7F
70
BC
70
70
ENDCHAR
STARTCHAR uni0493
ENCODING 1171
SWIDTH 457 0
DWIDTH 4 0
BBX 4 4 0 0
BITMAP
7D
70
BC
70
ENDCHAR
STARTCHAR uni0496
ENCODING 1174
SWIDTH 905 0
DWIDTH 7 0
BBX 7 6 0 -1
BITMAP
A328
3770
2FE0
3770
A32C
000C
ENDCHAR
STARTCHAR uni0497
ENCODING 1175
SWIDTH 803 0
DWIDTH 6 0
BBX 7 5 0 -1
BITMAP
AAA0
3FC0
7AD0
A674
0024
ENDCHAR
STARTCHAR uni0498
ENCODING 1176
SWIDTH 564 0
DWIDTH 5 0
BBX 5 6 0 -1
BITMAP
7E00
1700
2E00
1340
7E00
1800
ENDCHAR
STARTCHAR uni0499
ENCODING 1177
SWIDTH 476 0
DWIDTH 4 0
BBX 4 5 0 -1
BITMAP
7C
3D
09
BD
24
ENDCHAR
STARTCHAR uni049A
ENCODING 1178
SWIDTH 667 0
DWIDTH 5 0
BBX 6 6 0 -1
BITMAP
6280
6600
7D00
6700
62D0
00C0
ENDCHAR
STARTCHAR uni049B
ENCODING 1179
SWIDTH 588 0
DWIDTH 5 0
BBX 5 5 0 -1
BITMAP
6700
7C00
6900
6780
0280
ENDCHAR
STARTCHAR uni04A0
ENCODING 1184
SWIDTH 749 0
DWIDTH 6 0
BBX 6 6 0 -1
BITMAP
B8A0
19C0
1F40
19C0
18A0
0410
ENDCHAR
STARTCHAR uni04A1
ENCODING 1185
SWIDTH 656 0
DWIDTH 5 0
BBX 5 4 0 0
BITMAP
BA80
2F00
2A40
29C0
ENDCHAR
STARTCHAR uni04A2
ENCODING 1186
SWIDTH 689 0
DWIDTH 6 0
BBX 6 6 0 -1
BITMAP
6180
6180
7F80
6180
61D0
0090
ENDCHAR
STARTCHAR uni04A3
ENCODING 1187
SWIDTH 608 0
DWIDTH 5 0
BBX 5 5 0 -1
BITMAP
6300
7F00
6300
6380
0180
ENDCHAR
STARTCHAR uni04AA
ENCODING 1194
SWIDTH 582 0
DWIDTH 5 0
BBX 5 6 0 -1
BITMAP
2F00
7100
A000
7100
2F40
0900
ENDCHAR
STARTCHAR uni04AB
ENCODING 1195
SWIDTH 467 0
DWIDTH 4 0
BBX 4 5 0 -1
BITMAP
2D
A0
A0
7D
18
ENDCHAR
STARTCHAR uni04AE
ENCODING 1198
SWIDTH 525 0
DWIDTH 4 0
BBX 4 5 0 0
BITMAP
97
6A
2C
18
18
ENDCHAR
STARTCHAR uni04AF
ENCODING 1199
SWIDTH 523 0
DWIDTH 4 0
BBX 4 6 0 -2
BITMAP
97
66
39
2C
18
18
ENDCHAR
STARTCHAR uni04B0
ENCODING 1200
SWIDTH 525 0
DWIDTH 4 0
BBX 4 5 0 0
BITMAP
97
6A
3C
BE
18
ENDCHAR
STARTCHAR uni04B1
ENCODING 1201
SWIDTH 523 0
DWIDTH 4 0
BBX 4 6 0 -2
BITMAP
97
66
39
7D
18
18
ENDCHAR
STARTCHAR uni04B2
ENCODING 1202
SWIDTH 605 0
DWIDTH 5 0
BBX 5 6 0 -1
BITMAP
A300
3A00
2C00
3A00
A380
0180
ENDCHAR
STARTCHAR uni04B3
ENCODING 1203
SWIDTH 548 0
DWIDTH 4 0
BBX 5 5 0 -1
BITMAP
A600
3C00
3C00
AB40
0240
ENDCHAR
STARTCHAR uni04B6
ENCODING 1206
SWIDTH 645 0
DWIDTH 5 0
BBX 5 6 0 -1
BITMAP
A240
6240
2F40
0240
02C0
00C0
ENDCHAR
STARTCHAR uni04B7
ENCODING 1207
SWIDTH 575 0
DWIDTH 5 0
BBX 5 5 0 -1
BITMAP
A700
A700
7F00
0780
0240
ENDCHAR
STARTCHAR uni04BA
ENCODING 1210
SWIDTH 630 0
DWIDTH 5 0
BBX 5 5 0 0
BITMAP
6000
6000
7F00
6280
6280
ENDCHAR
STARTCHAR uni04BB
ENCODING 1211
SWIDTH 571 0
DWIDTH 5 0
BBX 4 6 0 0
BITMAP
60
60
7E
67
63
63
ENDCHAR
STARTCHAR uni04C0
ENCODING 1216
SWIDTH 301 0
DWIDTH 2 0
BBX 2 5 0 0
BITMAP
60
60
60
60
60
ENDCHAR
STARTCHAR uni04C1
ENCODING 1217
SWIDTH 868 0
DWIDTH 7 0
BBX 7 7 0 0
BITMAP
0D80
0740
A328
3770
2FE0
3770
A328
ENDCHAR
STARTCHAR uni04C2
ENCODING 1218
SWIDTH 761 0
DWIDTH 6 0
BBX 6 6 0 0
BITMAP
1A40
0B00
A6A0
3FC0
7AD0
A660
ENDCHAR
STARTCHAR uni04CF
ENCODING 1231
SWIDTH 286 0
DWIDTH 2 0
BBX 2 6 0 0
BITMAP
60
60
60
60
60
70
ENDCHAR
STARTCHAR uni04D0
ENCODING 1232
SWIDTH 573 0
DWIDTH 5 0
BBX 5 7 0 0
BITMAP
3600
2D00
2C00
3900
7600
BF00
D240
ENDCHAR
STARTCHAR uni04D1
ENCODING 1233
SWIDTH 527 0
DWIDTH 4 0
BBX 4 6 0 0
BITMAP
36
2D
7D
7E
AA
7A
ENDCHAR
STARTCHAR uni04D4
ENCODING 1236
SWIDTH 845 0
DWIDTH 7 0
BBX 7 5 0 0
BITMAP
0FF4
1B40
37F0
7F40
D3F4
ENDCHAR
STARTCHAR uni04D5
ENCODING 1237
SWIDTH 786 0
DWIDTH 6 0
BBX 6 4 0 0
BITMAP
7EE0
7FF0
AB00
7AE0
ENDCHAR
STARTCHAR uni04D6
ENCODING 1238
SWIDTH 548 0
DWIDTH 4 0
BBX 4 7 0 0
BITMAP
36
2D
7F
60
7E
60
7F
ENDCHAR
STARTCHAR uni04D7
ENCODING 1239
SWIDTH 518 0
DWIDTH 4 0
BBX 4 6 0 0
BITMAP
29
2C
2D
BE
A0
2D
ENDCHAR
STARTCHAR uni04D8
ENCODING 1240
SWIDTH 675 0
DWIDTH 5 0
BBX 5 5 0 0
BITMAP
2F40
1180
BFC0
6180
2F40
ENDCHAR
STARTCHAR uni04D9
ENCODING 1241
SWIDTH 518 0
DWIDTH 4 0
BBX 4 4 0 0
BITMAP
7D
0A
BE
7D
ENDCHAR
STARTCHAR uni04E2
ENCODING 1250
SWIDTH 676 0
DWIDTH 5 0
BBX 5 7 0 0
BITMAP
1F00
0000
6280
6780
6A80
7980
7180
ENDCHAR
STARTCHAR uni04E3
ENCODING 1251
SWIDTH 583 0
DWIDTH 5 0
BBX 4 6 0 0
BITMAP
2E
00
67
6B
7B
73
ENDCHAR
STARTCHAR uni04E6
ENCODING 1254
SWIDTH 684 0
DWIDTH 5 0
BBX 5 7 0 0
BITMAP
2600
0000
2F40
71C0
A0C0
71C0
2F40
ENDCHAR
STARTCHAR uni04E7
ENCODING 1255
SWIDTH 555 0
DWIDTH 4 0
BBX 4 6 0 0
BITMAP
26
00
2D
A7
A7
2D
ENDCHAR
STARTCHAR uni04E8
ENCODING 1256
SWIDTH 684 0
DWIDTH 5 0
BBX 5 5 0 0
BITMAP
2F40
61C0
BFC0
61C0
2F40
ENDCHAR
STARTCHAR uni04E9
ENCODING 1257
SWIDTH 555 0
DWIDTH 4 0
BBX 4 4 0 0
BITMAP
2D
BF
A7
2D
ENDCHAR
STARTCHAR uni04EE
ENCODING 1262
SWIDTH 555 0
DWIDTH 4 0
BBX 5 7 0 0
BITMAP
3D00
0000
9340
7700
2D00
1C00
7400
ENDCHAR
STARTCHAR uni04EF
ENCODING 1263
SWIDTH 521 0
DWIDTH 4 0
BBX 4 8 0 -2
BITMAP
3D
00
97
66
39
2C
28
70
ENDCHAR
STARTCHAR uni04F2
ENCODING 1266
SWIDTH 555 0
DWIDTH 4 0
BBX 5 8 0 0
BITMAP
1600
2600
0000
9340
7700
2D00
1C00
7400
ENDCHAR
STARTCHAR uni04F3
ENCODING 1267
SWIDTH 521 0
DWIDTH 4 0
BBX 4 8 0 -2
BITMAP
26
00
97
66
39
2C
28
70
ENDCHAR
STARTCHAR a.sups
ENCODING 7491
SWIDTH 359 0
DWIDTH 3 0
BBX 3 3 0 3
BITMAP
74
B8
A8
ENDCHAR
STARTCHAR b.sups
ENCODING 7495
SWIDTH 385 0
DWIDTH 3 0
BBX 3 4 0 3
BITMAP
90
B8
9C
B8
ENDCHAR
STARTCHAR d.sups
ENCODING 7496
SWIDTH 385 0
DWIDTH 3 0
BBX 3 4 0 3
BITMAP
08
78
98
78
ENDCHAR
STARTCHAR e.sups
ENCODING 7497
SWIDTH 346 0
DWIDTH 3 0
BBX 3 3 0 3
BITMAP
74
B8
74
ENDCHAR
STARTCHAR g.sups
ENCODING 7501
SWIDTH 361 0
DWIDTH 3 0
BBX 3 4 0 2
BITMAP
B8
B4
B8
B4
ENDCHAR
STARTCHAR k.sups
ENCODING 7503
SWIDTH 371 0
DWIDTH 3 0
BBX 3 4 0 3
BITMAP
90
A8
B0
98
ENDCHAR
STARTCHAR m.sups
ENCODING 7504
SWIDTH 577 0
DWIDTH 5 0
BBX 5 3 0 3
BITMAP
BB00
9A40
9A40
ENDCHAR
STARTCHAR o.sups
ENCODING 7506
SWIDTH 373 0
DWIDTH 3 0
BBX 3 3 0 3
BITMAP
74
98
74
ENDCHAR
STARTCHAR p.sups
ENCODING 7510
SWIDTH 385 0
DWIDTH 3 0
BBX 3 4 0 2
BITMAP
B8
9C
B8
90
ENDCHAR
STARTCHAR t.sups
ENCODING 7511
SWIDTH 259 0
DWIDTH 2 0
BBX 2 4 0 3
BITMAP
50
F0
90
70
ENDCHAR
STARTCHAR u.sups
ENCODING 7512
SWIDTH 383 0
DWIDTH 3 0
BBX 3 3 0 3
BITMAP
98
98
78
ENDCHAR
STARTCHAR v.sups
ENCODING 7515
SWIDTH 355 0
DWIDTH 3 0
BBX 3 3 0 3
BITMAP
88
A4
70
ENDCHAR
STARTCHAR c.sups
ENCODING 7580
SWIDTH 313 0
DWIDTH 3 0
BBX 3 3 0 3
BITMAP
74
90
74
ENDCHAR
STARTCHAR f.sups
ENCODING 7584
SWIDTH 232 0
DWIDTH 2 0
BBX 2 4 0 3
BITMAP
70
E0
90
90
ENDCHAR
STARTCHAR z.sups
ENCODING 7611
SWIDTH 312 0
DWIDTH 3 0
BBX 3 3 0 3
BITMAP
B4
60
B4
ENDCHAR
STARTCHAR uni1E06
ENCODING 7686
SWIDTH 605 0
DWIDTH 5 0
BBX 5 6 0 -1
BITMAP
7E00
6340
7F00
6280
7F40
2E00
ENDCHAR
STARTCHAR uni1E07
ENCODING 7687
SWIDTH 573 0
DWIDTH 5 0
BBX 5 7 0 -1
BITMAP
6000
6000
7E00
6340
6300
6E00
3E00
ENDCHAR
STARTCHAR uni1E0C
ENCODING 7692
SWIDTH 635 0
DWIDTH 5 0
BBX 5 6 0 -1
BITMAP
7E00
6280
6280
6240
7E00
0C00
ENDCHAR
STARTCHAR uni1E0D
ENCODING 7693
SWIDTH 573 0
DWIDTH 5 0
BBX 4 7 0 -1
BITMAP
03
03
3F
A7
A7
7B
0C
ENDCHAR
STARTCHAR uni1E0E
ENCODING 7694
SWIDTH 635 0
DWIDTH 5 0
BBX 5 6 0 -1
BITMAP
7E00
6280
6280
6240
7E00
2E00
ENDCHAR
STARTCHAR uni1E0F
ENCODING 7695
SWIDTH 573 0
DWIDTH 5 0
BBX 4 7 0 -1
BITMAP
03
03
3F
A7
A7
7B
2E
ENDCHAR
STARTCHAR uni1E16
ENCODING 7702
SWIDTH 548 0
DWIDTH 4 0
BBX 4 9 0 0
BITMAP
08
00
3E
00
7F
60
7E
60
7F
ENDCHAR
STARTCHAR uni1E17
ENCODING 7703
SWIDTH 518 0
DWIDTH 4 0
BBX 4 8 0 0
BITMAP
08
00
3D
00
2D
BE
A0
2D
ENDCHAR
STARTCHAR uni1E20
ENCODING 7712
SWIDTH 638 0
DWIDTH 5 0
BBX 5 7 0 0
BITMAP
1F00
0000
2F40
7100
A780
7180
2F40
ENDCHAR
STARTCHAR uni1E21
ENCODING 7713
SWIDTH 534 0
DWIDTH 4 0
BBX 4 8 0 -2
BITMAP
3D
00
7F
AA
7D
7E
97
7D
ENDCHAR
STARTCHAR uni1E24
ENCODING 7716
SWIDTH 674 0
DWIDTH 5 0
BBX 5 6 0 -1
BITMAP
6180
6180
7F80
6180
6180
0900
ENDCHAR
STARTCHAR uni1E25
ENCODING 7717
SWIDTH 571 0
DWIDTH 5 0
BBX 4 7 0 -1
BITMAP
60
60
7E
67
63
63
08
ENDCHAR
STARTCHAR uni1E2A
ENCODING 7722
SWIDTH 674 0
DWIDTH 5 0
BBX 5 7 0 -2
BITMAP
6180
6180
7F80
6180
7180
2600
1E00
ENDCHAR
STARTCHAR uni1E2B
ENCODING 7723
SWIDTH 571 0
DWIDTH 5 0
BBX 4 8 0 -2
BITMAP
60
60
7E
67
63
63
26
2D
ENDCHAR
STARTCHAR uni1E32
ENCODING 7730
SWIDTH 614 0
DWIDTH 5 0
BBX 5 6 0 -1
BITMAP
6340
6900
7D00
7700
6280
0800
ENDCHAR
STARTCHAR uni1E33
ENCODING 7731
SWIDTH 548 0
DWIDTH 4 0
BBX 4 7 0 -1
BITMAP
60
60
66
7C
79
67
08
ENDCHAR
STARTCHAR uni1E34
ENCODING 7732
SWIDTH 614 0
DWIDTH 5 0
BBX 5 6 0 -1
BITMAP
6340
6900
7D00
7700
6280
2E00
ENDCHAR
STARTCHAR uni1E35
ENCODING 7733
SWIDTH 548 0
DWIDTH 4 0
BBX 4 7 0 -1
BITMAP
60
60
66
7C
79
67
2E
ENDCHAR
STARTCHAR uni1E36
ENCODING 7734
SWIDTH 518 0
DWIDTH 4 0
BBX 4 6 0 -1
BITMAP
60
60
60
60
7F
18
ENDCHAR
STARTCHAR uni1E37
ENCODING 7735
SWIDTH 286 0
DWIDTH 2 0
BBX 2 7 0 -1
BITMAP
60
60
60
60
60
70
30
ENDCHAR
STARTCHAR uni1E38
ENCODING 7736
SWIDTH 518 0
DWIDTH 4 0
BBX 4 8 0 -1
BITMAP
F4
00
60
60
60
60
7F
18
ENDCHAR
STARTCHAR uni1E39
ENCODING 7737
SWIDTH 286 0
DWIDTH 2 0
BBX 3 9 0 -1
BITMAP
F4
00
60
60
60
60
60
70
30
ENDCHAR
STARTCHAR uni1E3A
ENCODING 7738
SWIDTH 518 0
DWIDTH 4 0
BBX 4 6 0 -1
BITMAP
60
60
60
60
7F
3E
ENDCHAR
STARTCHAR uni1E3B
ENCODING 7739
SWIDTH 286 0
DWIDTH 2 0
BBX 3 7 0 -1
BITMAP
60
60
60
60
60
70
B8
ENDCHAR
STARTCHAR uni1E3E
ENCODING 7742
SWIDTH 762 0
DWIDTH 6 0
BBX 6 7 0 0
BITMAP
0240
0600
70D0
75D0
6E90
6A90
6590
ENDCHAR
STARTCHAR uni1E3F
ENCODING 7743
SWIDTH 857 0
DWIDTH 7 0
BBX 7 7 0 0
BITMAP
0180
0240
0000
6EB0
6774
6324
6324
ENDCHAR
STARTCHAR uni1E40
ENCODING 7744
SWIDTH 762 0
DWIDTH 6 0
BBX 6 7 0 0
BITMAP
0600
0000
70D0
75D0
6E90
6A90
6590
ENDCHAR
STARTCHAR uni1E41
ENCODING 7745
SWIDTH 857 0
DWIDTH 7 0
BBX 7 6 0 0
BITMAP
0300
0000
6EB0
6774
6324
6324
ENDCHAR
STARTCHAR uni1E42
ENCODING 7746
SWIDTH 762 0
DWIDTH 6 0
BBX 6 6 0 -1
BITMAP
70D0
75D0
6E90
6A90
6590
0600
ENDCHAR
STARTCHAR uni1E43
ENCODING 7747
SWIDTH 857 0
DWIDTH 7 0
BBX 7 5 0 -1
BITMAP
6EB0
6774
6324
6324
0300
ENDCHAR
STARTCHAR uni1E44
ENCODING 7748
SWIDTH 665 0
DWIDTH 5 0
BBX 5 7 0 0
BITMAP
0900
0000
7180
7980
6E80
6780
6280
ENDCHAR
STARTCHAR uni1E45
ENCODING 7749
SWIDTH 572 0
DWIDTH 5 0
BBX 4 6 0 0
BITMAP
0C
00
6E
67
63
63
ENDCHAR
STARTCHAR uni1E46
ENCODING 7750
SWIDTH 665 0
DWIDTH 5 0
BBX 5 6 0 -1
BITMAP
7180
7980
6E80
6780
6280
0900
ENDCHAR
STARTCHAR uni1E47
ENCODING 7751
SWIDTH 572 0
DWIDTH 5 0
BBX 4 5 0 -1
BITMAP
6E
67
63
63
18
ENDCHAR
STARTCHAR uni1E48
ENCODING 7752
SWIDTH 665 0
DWIDTH 5 0
BBX 5 6 0 -1
BITMAP
7180
7980
6E80
6780
6280
1F00
ENDCHAR
STARTCHAR uni1E49
ENCODING 7753
SWIDTH 572 0
DWIDTH 5 0
BBX 4 5 0 -1
BITMAP
6E
67
63
63
3E
ENDCHAR
STARTCHAR uni1E52
ENCODING 7762
SWIDTH 684 0
DWIDTH 5 0
BBX 5 9 0 0
BITMAP
0500
0000
1F00
0000
2F40
71C0
A0C0
71C0
2F40
ENDCHAR
STARTCHAR uni1E53
ENCODING 7763
SWIDTH 555 0
DWIDTH 4 0
BBX 4 8 0 0
BITMAP
08
00
3D
00
2D
A7
A7
2D
ENDCHAR
STARTCHAR uni1E58
ENCODING 7768
SWIDTH 613 0
DWIDTH 5 0
BBX 5 7 0 0
BITMAP
0C00
0000
7E00
6240
7F00
6700
6240
ENDCHAR
STARTCHAR uni1E59
ENCODING 7769
SWIDTH 398 0
DWIDTH 3 0
BBX 3 6 0 0
BITMAP
14
00
6C
70
60
60
ENDCHAR
STARTCHAR uni1E5A
ENCODING 7770
SWIDTH 613 0
DWIDTH 5 0
BBX 5 6 0 -1
BITMAP
7E00
6240
7F00
6700
6240
0800
ENDCHAR
STARTCHAR uni1E5B
ENCODING 7771
SWIDTH 398 0
DWIDTH 3 0
BBX 3 5 0 -1
BITMAP
6C
70
60
60
60
ENDCHAR
STARTCHAR uni1E5C
ENCODING 7772
SWIDTH 613 0
DWIDTH 5 0
BBX 5 8 0 -1
BITMAP
2E00
0000
7E00
6240
7F00
6700
6240
0800
ENDCHAR
STARTCHAR uni1E5D
ENCODING 7773
SWIDTH 398 0
DWIDTH 3 0
BBX 3 7 0 -1
BITMAP
7C
00
6C
70
60
60
60
ENDCHAR
STARTCHAR uni1E5E
ENCODING 7774
SWIDTH 613 0
DWIDTH 5 0
BBX 5 6 0 -1
BITMAP
7E00
6240
7F00
6700
6240
2E00
ENDCHAR
STARTCHAR uni1E5F
ENCODING 7775
SWIDTH 398 0
DWIDTH 3 0
BBX 3 5 0 -1
BITMAP
6C
70
60
60
F4
ENDCHAR
STARTCHAR uni1E60
ENCODING 7776
SWIDTH 556 0
DWIDTH 4 0
BBX 4 7 0 0
BITMAP
18
00
2E
71
2E
17
7E
ENDCHAR
STARTCHAR uni1E61
ENCODING 7777
SWIDTH 443 0
DWIDTH 4 0
BBX 4 6 0 0
BITMAP
24
00
7C
A4
1D
78
ENDCHAR
STARTCHAR uni1E62
ENCODING 7778
SWIDTH 556 0
DWIDTH 4 0
BBX 4 6 0 -1
BITMAP
2E
71
2E
17
7E
18
ENDCHAR
STARTCHAR uni1E63
ENCODING 7779
SWIDTH 443 0
DWIDTH 4 0
BBX 4 5 0 -1
BITMAP
7C
A4
1D
78
24
ENDCHAR
STARTCHAR uni1E6C
ENCODING 7788
SWIDTH 556 0
DWIDTH 4 0
BBX 5 6 0 -1
BITMAP
BF40
1800
1800
1800
1800
1800
ENDCHAR
STARTCHAR uni1E6D
ENCODING 7789
SWIDTH 383 0
DWIDTH 3 0
BBX 3 7 0 -1
BITMAP
30
70
F8
70
70
38
24
ENDCHAR
STARTCHAR uni1E6E
ENCODING 7790
SWIDTH 556 0
DWIDTH 4 0
BBX 5 6 0 -1
BITMAP
BF40
1800
1800
1800
1800
3D00
ENDCHAR
STARTCHAR uni1E6F
ENCODING 7791
SWIDTH 383 0
DWIDTH 3 0
BBX 3 7 0 -1
BITMAP
30
70
F8
70
70
38
7C
ENDCHAR
STARTCHAR Wgrave
ENCODING 7808
SWIDTH 813 0
DWIDTH 7 0
BBX 7 7 0 0
BITMAP
0800
0600
9724
AB30
6A70
7DA0
38E0
ENDCHAR
STARTCHAR wgrave
ENCODING 7809
SWIDTH 776 0
DWIDTH 6 0
BBX 6 7 0 0
BITMAP
0800
0900
0000
9670
6B60
7A90
39D0
ENDCHAR
STARTCHAR Wacute
ENCODING 7810
SWIDTH 813 0
DWIDTH 7 0
BBX 7 7 0 0
BITMAP
0240
0200
9724
AB30
6A70
7DA0
38E0
ENDCHAR
STARTCHAR wacute
ENCODING 7811
SWIDTH 776 0
DWIDTH 6 0
BBX 6 7 0 0
BITMAP
0240
0200
0000
9670
6B60
7A90
39D0
ENDCHAR
STARTCHAR Wdieresis
ENCODING 7812
SWIDTH 813 0
DWIDTH 7 0
BBX 7 7 0 0
BITMAP
0980
0000
9724
AB30
6A70
7DA0
38E0
ENDCHAR
STARTCHAR wdieresis
ENCODING 7813
SWIDTH 776 0
DWIDTH 6 0
BBX 6 6 0 0
BITMAP
1940
0000
9670
6B60
7A90
39D0
ENDCHAR
STARTCHAR uni1E8E
ENCODING 7822
SWIDTH 525 0
DWIDTH 4 0
BBX 4 7 0 0
BITMAP
18
00
97
6A
2C
18
18
ENDCHAR
STARTCHAR uni1E8F
ENCODING 7823
SWIDTH 521 0
DWIDTH 4 0
BBX 4 8 0 -2
BITMAP
18
00
97
66
39
2C
28
70
ENDCHAR
STARTCHAR uni1E92
ENCODING 7826
SWIDTH 541 0
DWIDTH 4 0
BBX 4 6 0 -1
BITMAP
BF
0A
2C
70
BF
18
ENDCHAR
STARTCHAR uni1E93
ENCODING 7827
SWIDTH 460 0
DWIDTH 4 0
BBX 4 5 0 -1
BITMAP
BD
1C
74
BD
24
ENDCHAR
STARTCHAR uni1E94
ENCODING 7828
SWIDTH 541 0
DWIDTH 4 0
BBX 4 6 0 -1
BITMAP
BF
0A
2C
70
BF
3D
ENDCHAR
STARTCHAR uni1E95
ENCODING 7829
SWIDTH 460 0
DWIDTH 4 0
BBX 4 5 0 -1
BITMAP
BD
1C
74
BD
7C
ENDCHAR
STARTCHAR uni1E96
ENCODING 7830
SWIDTH 571 0
DWIDTH 5 0
BBX 4 7 0 -1
BITMAP
60
60
7E
67
63
63
3E
ENDCHAR
STARTCHAR uni1E97
ENCODING 7831
SWIDTH 383 0
DWIDTH 3 0
BBX 3 7 0 0
BITMAP
98
30
70
F8
70
70
38
ENDCHAR
STARTCHAR uni1E9E
ENCODING 7838
SWIDTH 705 0
DWIDTH 6 0
BBX 6 5 0 0
BITMAP
2F40
7280
6380
60D0
6780
ENDCHAR
STARTCHAR uni1EA0
ENCODING 7840
SWIDTH 573 0
DWIDTH 5 0
BBX 5 6 0 -1
BITMAP
2C00
3900
7600
BF00
D240
1800
ENDCHAR
STARTCHAR uni1EA1
ENCODING 7841
SWIDTH 527 0
DWIDTH 4 0
BBX 4 5 0 -1
BITMAP
7D
7E
AA
7A
18
ENDCHAR
STARTCHAR uni1EA2
ENCODING 7842
SWIDTH 573 0
DWIDTH 5 0
BBX 5 7 0 0
BITMAP
1800
0800
2C00
3900
7600
BF00
D240
ENDCHAR
STARTCHAR uni1EA3
ENCODING 7843
SWIDTH 527 0
DWIDTH 4 0
BBX 4 6 0 0
BITMAP
18
08
7D
7E
AA
7A
ENDCHAR
STARTCHAR uni1EA4
ENCODING 7844
SWIDTH 573 0
DWIDTH 5 0
BBX 5 7 0 0
BITMAP
1D00
2500
2D00
3900
7600
BF00
D240
ENDCHAR
STARTCHAR uni1EA5
ENCODING 7845
SWIDTH 527 0
DWIDTH 4 0
BBX 4 6 0 0
BITMAP
1D
29
7D
7E
AA
7A
ENDCHAR
STARTCHAR uni1EA6
ENCODING 7846
SWIDTH 573 0
DWIDTH 5 0
BBX 5 7 0 0
BITMAP
6C00
2500
2D00
3900
7600
BF00
D240
ENDCHAR
STARTCHAR uni1EA7
ENCODING 7847
SWIDTH 527 0
DWIDTH 4 0
BBX 4 6 0 0
BITMAP
AC
29
7D
7E
AA
7A
ENDCHAR
STARTCHAR uni1EA8
ENCODING 7848
SWIDTH 573 0
DWIDTH 5 0
BBX 5 9 0 0
BITMAP
0200
0240
1E00
2500
2D00
3900
7600
BF00
D240
ENDCHAR
STARTCHAR uni1EA9
ENCODING 7849
SWIDTH 527 0
DWIDTH 4 0
BBX 5 8 0 0
BITMAP
0300
0240
1E00
2900
7D00
7E00
AA00
7A00
ENDCHAR
STARTCHAR uni1EAA
ENCODING 7850
SWIDTH 573 0
DWIDTH 5 0
BBX 5 10 0 0
BITMAP
1500
2900
0000
1C00
2500
2D00
3900
7600
BF00
D240
ENDCHAR
STARTCHAR uni1EAB
ENCODING 7851
SWIDTH 527 0
DWIDTH 4 0
BBX 4 9 0 0
BITMAP
15
2C
00
1C
29
7D
7E
AA
7A
ENDCHAR
STARTCHAR uni1EAC
ENCODING 7852
SWIDTH 573 0
DWIDTH 5 0
BBX 5 7 0 -1
BITMAP
2900
2C00
3900
7600
BF00
D240
1800
ENDCHAR
STARTCHAR uni1EAD
ENCODING 7853
SWIDTH 527 0
DWIDTH 4 0
BBX 4 7 0 -1
BITMAP
29
00
7D
7E
AA
7A
18
ENDCHAR
STARTCHAR uni1EAE
ENCODING 7854
SWIDTH 573 0
DWIDTH 5 0
BBX 5 8 0 0
BITMAP
0800
2500
2C00
2C00
3900
7600
BF00
D240
ENDCHAR
STARTCHAR uni1EAF
ENCODING 7855
SWIDTH 527 0
DWIDTH 4 0
BBX 4 7 0 0
BITMAP
08
25
2C
7D
7E
AA
7A
ENDCHAR
STARTCHAR uni1EB0
ENCODING 7856
SWIDTH 573 0
DWIDTH 5 0
BBX 5 8 0 0
BITMAP
1400
2500
2C00
2C00
3900
7600
BF00
D240
ENDCHAR
STARTCHAR uni1EB1
ENCODING 7857
SWIDTH 527 0
DWIDTH 4 0
BBX 4 7 0 0
BITMAP
14
25
2C
7D
7E
AA
7A
ENDCHAR
STARTCHAR uni1EB2
ENCODING 7858
SWIDTH 573 0
DWIDTH 5 0
BBX 5 10 0 0
BITMAP
1800
0800
0800
2500
2C00
2C00
3900
7600
BF00
D240
ENDCHAR
STARTCHAR uni1EB3
ENCODING 7859
SWIDTH 527 0
DWIDTH 4 0
BBX 4 9 0 0
BITMAP
18
08
08
25
2C
7D
7E
AA
7A
ENDCHAR
STARTCHAR uni1EB4
ENCODING 7860
SWIDTH 573 0
DWIDTH 5 0
BBX 5 10 0 0
BITMAP
1500
2900
0000
2500
2C00
2C00
3900
7600
BF00
D240
ENDCHAR
STARTCHAR uni1EB5
ENCODING 7861
SWIDTH 527 0
DWIDTH 4 0
BBX 4 9 0 0
BITMAP
15
2D
10
25
2C
7D
7E
AA
7A
ENDCHAR
STARTCHAR uni1EB6
ENCODING 7862
SWIDTH 573 0
DWIDTH 5 0
BBX 5 8 0 -1
BITMAP
2500
2D00
2C00
3900
7600
BF00
D240
1800
ENDCHAR
STARTCHAR uni1EB7
ENCODING 7863
SWIDTH 527 0
DWIDTH 4 0
BBX 4 7 0 -1
BITMAP
25
2C
7D
7E
AA
7A
18
ENDCHAR
STARTCHAR uni1EB8
ENCODING 7864
SWIDTH 548 0
DWIDTH 4 0
BBX 4 6 0 -1
BITMAP
7F
60
7E
60
7F
08
ENDCHAR
STARTCHAR uni1EB9
ENCODING 7865
SWIDTH 518 0
DWIDTH 4 0
BBX 4 5 0 -1
BITMAP
2D
BE
A0
2D
18
ENDCHAR
STARTCHAR uni1EBA
ENCODING 7866
SWIDTH 548 0
DWIDTH 4 0
BBX 4 7 0 0
BITMAP
18
08
7F
60
7E
60
7F
ENDCHAR
STARTCHAR uni1EBB
ENCODING 7867
SWIDTH 518 0
DWIDTH 4 0
BBX 4 6 0 0
BITMAP
28
08
2D
BE
A0
2D
ENDCHAR
STARTCHAR uni1EBC
ENCODING 7868
SWIDTH 548 0
DWIDTH 4 0
BBX 4 8 0 0
BITMAP
01
3A
65
7F
60
7E
60
7F
ENDCHAR
STARTCHAR uni1EBD
ENCODING 7869
SWIDTH 518 0
DWIDTH 4 0
BBX 4 7 0 0
BITMAP
01
3A
59
2D
BE
A0
2D
ENDCHAR
STARTCHAR uni1EBE
ENCODING 7870
SWIDTH 548 0
DWIDTH 4 0
BBX 4 7 0 0
BITMAP
1D
25
7F
60
7E
60
7F
ENDCHAR
STARTCHAR uni1EBF
ENCODING 7871
SWIDTH 518 0
DWIDTH 4 0
BBX 4 6 0 0
BITMAP
19
29
3D
BE
A0
2D
ENDCHAR
STARTCHAR uni1EC0
ENCODING 7872
SWIDTH 548 0
DWIDTH 4 0
BBX 4 7 0 0
BITMAP
6C
25
7F
60
7E
60
7F
ENDCHAR
STARTCHAR uni1EC1
ENCODING 7873
SWIDTH 518 0
DWIDTH 4 0
BBX 4 6 0 0
BITMAP
A8
29
3D
BE
A0
2D
ENDCHAR
STARTCHAR uni1EC2
ENCODING 7874
SWIDTH 548 0
DWIDTH 4 0
BBX 5 9 0 0
BITMAP
0200
0240
1E00
2500
7F00
6000
7E00
6000
7F00
ENDCHAR
STARTCHAR uni1EC3
ENCODING 7875
SWIDTH 518 0
DWIDTH 4 0
BBX 4 8 0 0
BITMAP
02
02
1A
29
3D
BE
A0
2D
ENDCHAR
STARTCHAR uni1EC4
ENCODING 7876
SWIDTH 548 0
DWIDTH 4 0
BBX 4 10 0 0
BITMAP
15
29
00
1C
25
7F
60
7E
60
7F
ENDCHAR
STARTCHAR uni1EC5
ENCODING 7877
SWIDTH 518 0
DWIDTH 4 0
BBX 4 9 0 0
BITMAP
15
2C
00
18
29
3D
BE
A0
2D
ENDCHAR
STARTCHAR uni1EC6
ENCODING 7878
SWIDTH 548 0
DWIDTH 4 0
BBX 4 7 0 -1
BITMAP
29
7F
60
7E
60
7F
08
ENDCHAR
STARTCHAR uni1EC7
ENCODING 7879
SWIDTH 518 0
DWIDTH 4 0
BBX 4 7 0 -1
BITMAP
29
00
2D
BE
A0
2D
18
ENDCHAR
STARTCHAR uni1EC8
ENCODING 7880
SWIDTH 301 0
DWIDTH 2 0
BBX 2 7 0 0
BITMAP
60
20
60
60
60
60
60
ENDCHAR
STARTCHAR uni1EC9
ENCODING 7881
SWIDTH 276 0
DWIDTH 2 0
BBX 2 6 0 0
BITMAP
A0
60
60
60
60
60
ENDCHAR
STARTCHAR uni1ECA
ENCODING 7882
SWIDTH 301 0
DWIDTH 2 0
BBX 2 6 0 -1
BITMAP
60
60
60
60
60
60
ENDCHAR
STARTCHAR uni1ECB
ENCODING 7883
SWIDTH 276 0
DWIDTH 2 0
BBX 2 7 0 -1
BITMAP
60
00
60
60
60
60
60
ENDCHAR
STARTCHAR uni1ECC
ENCODING 7884
SWIDTH 684 0
DWIDTH 5 0
BBX 5 6 0 -1
BITMAP
2F40
71C0
A0C0
71C0
2F40
0900
ENDCHAR
STARTCHAR uni1ECD
ENCODING 7885
SWIDTH 555 0
DWIDTH 4 0
BBX 4 5 0 -1
BITMAP
2D
A7
A7
2D
18
ENDCHAR
STARTCHAR uni1ECE
ENCODING 7886
SWIDTH 684 0
DWIDTH 5 0
BBX 5 7 0 0
BITMAP
0D00
0900
2F40
71C0
A0C0
71C0
2F40
ENDCHAR
STARTCHAR uni1ECF
ENCODING 7887
SWIDTH 555 0
DWIDTH 4 0
BBX 4 6 0 0
BITMAP
18
08
2D
A7
A7
2D
ENDCHAR
STARTCHAR uni1ED0
ENCODING 7888
SWIDTH 684 0
DWIDTH 5 0
BBX 5 7 0 0
BITMAP
0E40
1600
2F40
71C0
A0C0
71C0
2F40
ENDCHAR
STARTCHAR uni1ED1
ENCODING 7889
SWIDTH 555 0
DWIDTH 4 0
BBX 4 6 0 0
BITMAP
1D
29
3E
A7
A7
2D
ENDCHAR
STARTCHAR uni1ED2
ENCODING 7890
SWIDTH 684 0
DWIDTH 5 0
BBX 5 7 0 0
BITMAP
1D00
1600
2F40
71C0
A0C0
71C0
2F40
ENDCHAR
STARTCHAR uni1ED3
ENCODING 7891
SWIDTH 555 0
DWIDTH 4 0
BBX 4 6 0 0
BITMAP
9C
29
3E
A7
A7
2D
ENDCHAR
STARTCHAR uni1ED4
ENCODING 7892
SWIDTH 684 0
DWIDTH 5 0
BBX 5 9 0 0
BITMAP
0140
0080
0E40
1600
2F40
71C0
A0C0
71C0
2F40
ENDCHAR
STARTCHAR uni1ED5
ENCODING 7893
SWIDTH 555 0
DWIDTH 4 0
BBX 5 8 0 0
BITMAP
0300
0240
1E00
2900
3E00
A700
A700
2D00
ENDCHAR
STARTCHAR uni1ED6
ENCODING 7894
SWIDTH 684 0
DWIDTH 5 0
BBX 5 10 0 0
BITMAP
0A00
1A00
0000
0D00
1600
2F40
71C0
A0C0
71C0
2F40
ENDCHAR
STARTCHAR uni1ED7
ENCODING 7895
SWIDTH 555 0
DWIDTH 4 0
BBX 4 9 0 0
BITMAP
15
2C
00
1C
29
3E
A7
A7
2D
ENDCHAR
STARTCHAR uni1ED8
ENCODING 7896
SWIDTH 684 0
DWIDTH 5 0
BBX 5 7 0 -1
BITMAP
1A00
2F40
71C0
A0C0
71C0
2F40
0900
ENDCHAR
STARTCHAR uni1ED9
ENCODING 7897
SWIDTH 555 0
DWIDTH 4 0
BBX 4 7 0 -1
BITMAP
29
00
2D
A7
A7
2D
18
ENDCHAR
STARTCHAR uni1EDA
ENCODING 7898
SWIDTH 684 0
DWIDTH 5 0
BBX 6 7 0 0
BITMAP
0200
0990
2F80
71C0
A0C0
71C0
2F40
ENDCHAR
STARTCHAR uni1EDB
ENCODING 7899
SWIDTH 555 0
DWIDTH 4 0
BBX 5 7 0 0
BITMAP
0500
0900
0240
2E00
A700
A700
2D00
ENDCHAR
STARTCHAR uni1EDC
ENCODING 7900
SWIDTH 684 0
DWIDTH 5 0
BBX 6 7 0 0
BITMAP
1400
0890
2F80
71C0
A0C0
71C0
2F40
ENDCHAR
STARTCHAR uni1EDD
ENCODING 7901
SWIDTH 555 0
DWIDTH 4 0
BBX 5 7 0 0
BITMAP
2000
1400
0240
2E00
A700
A700
2D00
ENDCHAR
STARTCHAR uni1EDE
ENCODING 7902
SWIDTH 684 0
DWIDTH 5 0
BBX 6 7 0 0
BITMAP
0D00
0990
2F80
71C0
A0C0
71C0
2F40
ENDCHAR
STARTCHAR uni1EDF
ENCODING 7903
SWIDTH 555 0
DWIDTH 4 0
BBX 5 6 0 0
BITMAP
1800
0A40
2E00
A700
A700
2D00
ENDCHAR
STARTCHAR uni1EE0
ENCODING 7904
SWIDTH 684 0
DWIDTH 5 0
BBX 6 8 0 0
BITMAP
0100
2A00
2590
2F80
71C0
A0C0
71C0
2F40
ENDCHAR
STARTCHAR uni1EE1
ENCODING 7905
SWIDTH 555 0
DWIDTH 4 0
BBX 5 6 0 0
BITMAP
7900
9A40
2E00
A700
A700
2D00
ENDCHAR
STARTCHAR uni1EE2
ENCODING 7906
SWIDTH 684 0
DWIDTH 5 0
BBX 6 7 0 -1
BITMAP
0090
2F80
71C0
A0C0
71C0
2F40
0900
ENDCHAR
STARTCHAR uni1EE3
ENCODING 7907
SWIDTH 555 0
DWIDTH 4 0
BBX 5 6 0 -1
BITMAP
0240
2E00
A700
A700
2D00
1800
ENDCHAR
STARTCHAR uni1EE4
ENCODING 7908
SWIDTH 665 0
DWIDTH 5 0
BBX 5 6 0 -1
BITMAP
6180
6180
6180
7280
2E00
0800
ENDCHAR
STARTCHAR uni1EE5
ENCODING 7909
SWIDTH 568 0
DWIDTH 5 0
BBX 4 5 0 -1
BITMAP
A3
A3
67
7B
08
ENDCHAR
STARTCHAR uni1EE6
ENCODING 7910
SWIDTH 665 0
DWIDTH 5 0
BBX 5 7 0 0
BITMAP
0D00
0900
6180
6180
6180
7280
2E00
ENDCHAR
STARTCHAR uni1EE7
ENCODING 7911
SWIDTH 568 0
DWIDTH 5 0
BBX 4 6 0 0
BITMAP
18
0C
A3
A3
67
7B
ENDCHAR
STARTCHAR uni1EE8
ENCODING 7912
SWIDTH 683 0
DWIDTH 5 0
BBX 6 7 0 0
BITMAP
0610
0960
61D0
6180
6180
7280
2F40
ENDCHAR
STARTCHAR uni1EE9
ENCODING 7913
SWIDTH 568 0
DWIDTH 5 0
BBX 5 7 0 0
BITMAP
0900
0840
0180
A340
A300
6700
7B00
ENDCHAR
STARTCHAR uni1EEA
ENCODING 7914
SWIDTH 683 0
DWIDTH 5 0
BBX 6 7 0 0
BITMAP
1410
0860
61D0
6180
6180
7280
2F40
ENDCHAR
STARTCHAR uni1EEB
ENCODING 7915
SWIDTH 568 0
DWIDTH 5 0
BBX 5 7 0 0
BITMAP
2000
1440
0180
A340
A300
6700
7B00
ENDCHAR
STARTCHAR uni1EEC
ENCODING 7916
SWIDTH 683 0
DWIDTH 5 0
BBX 6 7 0 0
BITMAP
0D10
0960
61D0
6180
6180
7280
2F40
ENDCHAR
STARTCHAR uni1EED
ENCODING 7917
SWIDTH 568 0
DWIDTH 5 0
BBX 5 6 0 0
BITMAP
1840
0980
A340
A300
6700
7B00
ENDCHAR
STARTCHAR uni1EEE
ENCODING 7918
SWIDTH 683 0
DWIDTH 5 0
BBX 6 8 0 0
BITMAP
0100
2A50
2560
61D0
6180
6180
7280
2F40
ENDCHAR
STARTCHAR uni1EEF
ENCODING 7919
SWIDTH 568 0
DWIDTH 5 0
BBX 5 7 0 0
BITMAP
0100
3A40
5980
A340
A300
6700
7B00
ENDCHAR
STARTCHAR uni1EF0
ENCODING 7920
SWIDTH 683 0
DWIDTH 5 0
BBX 6 8 0 -1
BITMAP
0010
0060
61D0
6180
6180
7280
2F40
0800
ENDCHAR
STARTCHAR uni1EF1
ENCODING 7921
SWIDTH 568 0
DWIDTH 5 0
BBX 5 7 0 -1
BITMAP
0040
0180
A340
A300
6700
7B00
0800
ENDCHAR
STARTCHAR Ygrave
ENCODING 7922
SWIDTH 525 0
DWIDTH 4 0
BBX 4 7 0 0
BITMAP
20
14
97
6A
2C
18
18
ENDCHAR
STARTCHAR ygrave
ENCODING 7923
SWIDTH 521 0
DWIDTH 4 0
BBX 4 9 0 -2
BITMAP
20
24
00
97
66
39
2C
28
70
ENDCHAR
STARTCHAR uni1EF4
ENCODING 7924
SWIDTH 525 0
DWIDTH 4 0
BBX 4 6 0 -1
BITMAP
97
6A
2C
18
18
18
ENDCHAR
STARTCHAR uni1EF5
ENCODING 7925
SWIDTH 521 0
DWIDTH 4 0
BBX 4 6 0 -2
BITMAP
97
66
39
2C
2A
70
ENDCHAR
STARTCHAR uni1EF6
ENCODING 7926
SWIDTH 525 0
DWIDTH 4 0
BBX 4 7 0 0
BITMAP
28
18
97
6A
2C
18
18
ENDCHAR
STARTCHAR uni1EF7
ENCODING 7927
SWIDTH 521 0
DWIDTH 4 0
BBX 4 8 0 -2
BITMAP
28
18
97
66
39
2C
28
70
ENDCHAR
STARTCHAR uni1EF8
ENCODING 7928
SWIDTH 525 0
DWIDTH 4 0
BBX 4 8 0 0
BITMAP
01
3A
58
97
6A
2C
18
18
ENDCHAR
STARTCHAR uni1EF9
ENCODING 7929
SWIDTH 521 0
DWIDTH 4 0
BBX 4 8 0 -2
BITMAP
3A
58
97
66
39
2C
28
70
ENDCHAR
STARTCHAR uni1F00
ENCODING 7936
SWIDTH 595 0
DWIDTH 5 0
BBX 5 6 0 0
BITMAP
1800
0C00
3F40
A700
A700
7A80
ENDCHAR
STARTCHAR uni1F01
ENCODING 7937
SWIDTH 595 0
DWIDTH 5 0
BBX 5 6 0 0
BITMAP
1C00
1800
3F40
A700
A700
7A80
ENDCHAR
STARTCHAR uni1F02
ENCODING 7938
SWIDTH 595 0
DWIDTH 5 0
BBX 5 6 0 0
BITMAP
6500
2100
3B40
A700
A700
7A80
ENDCHAR
STARTCHAR uni1F03
ENCODING 7939
SWIDTH 595 0
DWIDTH 5 0
BBX 5 6 0 0
BITMAP
3900
2100
3B40
A700
A700
7A80
ENDCHAR
STARTCHAR uni1F04
ENCODING 7940
SWIDTH 595 0
DWIDTH 5 0
BBX 5 6 0 0
BITMAP
6500
2400
3B40
A700
A700
7A80
ENDCHAR
STARTCHAR uni1F05
ENCODING 7941
SWIDTH 595 0
DWIDTH 5 0
BBX 5 6 0 0
BITMAP
2900
2400
3B40
A700
A700
7A80
ENDCHAR
STARTCHAR uni1F06
ENCODING 7942
SWIDTH 595 0
DWIDTH 5 0
BBX 5 7 0 0
BITMAP
2D00
1800
0400
3B40
A700
A700
7A80
ENDCHAR
STARTCHAR uni1F07
ENCODING 7943
SWIDTH 595 0
DWIDTH 5 0
BBX 5 7 0 0
BITMAP
2D00
0800
0400
3B40
A700
A700
7A80
ENDCHAR
STARTCHAR uni1F08
ENCODING 7944
SWIDTH 655 0
DWIDTH 5 0
BBX 5 5 0 0
BITMAP
DE00
AB00
2A40
3F80
70C0
ENDCHAR
STARTCHAR uni1F09
ENCODING 7945
SWIDTH 639 0
DWIDTH 5 0
BBX 5 5 0 0
BITMAP
9E00
DB00
2640
3F80
71C0
ENDCHAR
STARTCHAR uni1F0A
ENCODING 7946
SWIDTH 822 0
DWIDTH 7 0
BBX 7 5 0 0
BITMAP
DAC0
0390
0760
0BF0
0D24
ENDCHAR
STARTCHAR uni1F0B
ENCODING 7947
SWIDTH 821 0
DWIDTH 7 0
BBX 7 5 0 0
BITMAP
9AC0
8390
0760
0BF0
0D24
ENDCHAR
STARTCHAR uni1F0C
ENCODING 7948
SWIDTH 812 0
DWIDTH 7 0
BBX 7 5 0 0
BITMAP
DAC0
1790
0660
0BF0
0D34
ENDCHAR
STARTCHAR uni1F0D
ENCODING 7949
SWIDTH 811 0
DWIDTH 6 0
BBX 7 5 0 0
BITMAP
AAC0
9790
0660
0BF0
0D34
ENDCHAR
STARTCHAR uni1F0E
ENCODING 7950
SWIDTH 679 0
DWIDTH 5 0
BBX 6 5 0 0
BITMAP
FB00
5E40
1980
2FC0
30D0
ENDCHAR
STARTCHAR uni1F0F
ENCODING 7951
SWIDTH 679 0
DWIDTH 5 0
BBX 6 5 0 0
BITMAP
FB00
5E40
1980
2FC0
30D0
ENDCHAR
STARTCHAR uni1F10
ENCODING 7952
SWIDTH 471 0
DWIDTH 4 0
BBX 4 6 0 0
BITMAP
28
18
7D
78
A0
7D
ENDCHAR
STARTCHAR uni1F11
ENCODING 7953
SWIDTH 471 0
DWIDTH 4 0
BBX 4 6 0 0
BITMAP
18
24
7D
78
A0
7D
ENDCHAR
STARTCHAR uni1F12
ENCODING 7954
SWIDTH 471 0
DWIDTH 4 0
BBX 4 7 0 0
BITMAP
04
68
24
7D
78
A0
7D
ENDCHAR
STARTCHAR uni1F13
ENCODING 7955
SWIDTH 471 0
DWIDTH 4 0
BBX 4 7 0 0
BITMAP
04
68
54
7D
78
A0
7D
ENDCHAR
STARTCHAR uni1F14
ENCODING 7956
SWIDTH 471 0
DWIDTH 4 0
BBX 4 7 0 0
BITMAP
04
68
24
7D
78
A0
7D
ENDCHAR
STARTCHAR uni1F15
ENCODING 7957
SWIDTH 471 0
DWIDTH 4 0
BBX 4 7 0 0
BITMAP
04
68
64
7D
78
A0
7D
ENDCHAR
STARTCHAR uni1F18
ENCODING 7960
SWIDTH 711 0
DWIDTH 6 0
BBX 6 5 0 0
BITMAP
DFD0
9C00
0FC0
0C00
0FD0
ENDCHAR
STARTCHAR uni1F19
ENCODING 7961
SWIDTH 711 0
DWIDTH 6 0
BBX 6 5 0 0
BITMAP
9FD0
CC00
0FC0
0C00
0FD0
ENDCHAR
STARTCHAR uni1F1A
ENCODING 7962
SWIDTH 874 0
DWIDTH 7 0
BBX 7 5 0 0
BITMAP
DAF4
0240
02F4
0240
02F8
ENDCHAR
STARTCHAR uni1F1B
ENCODING 7963
SWIDTH 873 0
DWIDTH 7 0
BBX 7 5 0 0
BITMAP
9AF4
8240
02F0
0240
02F8
ENDCHAR
STARTCHAR uni1F1C
ENCODING 7964
SWIDTH 864 0
DWIDTH 7 0
BBX 7 5 0 0
BITMAP
DBF4
1740
03F0
0340
03F4
ENDCHAR
STARTCHAR uni1F1D
ENCODING 7965
SWIDTH 863 0
DWIDTH 7 0
BBX 7 5 0 0
BITMAP
ABF4
9740
03F0
0340
03F4
ENDCHAR
STARTCHAR uni1F20
ENCODING 7968
SWIDTH 562 0
DWIDTH 5 0
BBX 4 7 0 -1
BITMAP
18
08
AE
77
63
63
03
ENDCHAR
STARTCHAR uni1F21
ENCODING 7969
SWIDTH 562 0
DWIDTH 5 0
BBX 4 7 0 -1
BITMAP
0C
18
AE
77
63
63
03
ENDCHAR
STARTCHAR uni1F22
ENCODING 7970
SWIDTH 562 0
DWIDTH 5 0
BBX 4 7 0 -1
BITMAP
36
21
AE
77
63
63
03
ENDCHAR
STARTCHAR uni1F23
ENCODING 7971
SWIDTH 562 0
DWIDTH 5 0
BBX 4 7 0 -1
BITMAP
2A
21
AE
77
63
63
03
ENDCHAR
STARTCHAR uni1F24
ENCODING 7972
SWIDTH 562 0
DWIDTH 5 0
BBX 4 7 0 -1
BITMAP
36
24
AE
77
63
63
03
ENDCHAR
STARTCHAR uni1F25
ENCODING 7973
SWIDTH 562 0
DWIDTH 5 0
BBX 4 7 0 -1
BITMAP
2A
24
AE
77
63
63
03
ENDCHAR
STARTCHAR uni1F26
ENCODING 7974
SWIDTH 562 0
DWIDTH 5 0
BBX 4 8 0 -1
BITMAP
2D
08
04
AE
77
63
63
03
ENDCHAR
STARTCHAR uni1F27
ENCODING 7975
SWIDTH 562 0
DWIDTH 5 0
BBX 4 8 0 -1
BITMAP
2D
0C
04
AE
77
63
63
03
ENDCHAR
STARTCHAR uni1F28
ENCODING 7976
SWIDTH 836 0
DWIDTH 7 0
BBX 6 5 0 0
BITMAP
DC30
9C30
0FF0
0C30
0C30
ENDCHAR
STARTCHAR uni1F29
ENCODING 7977
SWIDTH 836 0
DWIDTH 7 0
BBX 6 5 0 0
BITMAP
9C30
CC30
0FF0
0C30
0C30
ENDCHAR
STARTCHAR uni1F2A
ENCODING 7978
SWIDTH 999 0
DWIDTH 8 0
BBX 8 5 0 0
BITMAP
DA49
0249
02FD
0249
0249
ENDCHAR
STARTCHAR uni1F2B
ENCODING 7979
SWIDTH 998 0
DWIDTH 8 0
BBX 8 5 0 0
BITMAP
9A49
8249
02FD
0249
0249
ENDCHAR
STARTCHAR uni1F2C
ENCODING 7980
SWIDTH 990 0
DWIDTH 8 0
BBX 8 5 0 0
BITMAP
DB4D
174D
03FD
034D
034D
ENDCHAR
STARTCHAR uni1F2D
ENCODING 7981
SWIDTH 988 0
DWIDTH 8 0
BBX 8 5 0 0
BITMAP
AB4D
974D
03FD
034D
034D
ENDCHAR
STARTCHAR uni1F2E
ENCODING 7982
SWIDTH 896 0
DWIDTH 7 0
BBX 7 5 0 0
BITMAP
FA28
5A28
0BF8
0A28
0A28
ENDCHAR
STARTCHAR uni1F2F
ENCODING 7983
SWIDTH 896 0
DWIDTH 7 0
BBX 7 5 0 0
BITMAP
FA28
4A28
0BF8
0A28
0A28
ENDCHAR
STARTCHAR uni1F30
ENCODING 7984
SWIDTH 301 0
DWIDTH 2 0
BBX 3 6 0 0
BITMAP
A0
60
60
60
60
74
ENDCHAR
STARTCHAR uni1F31
ENCODING 7985
SWIDTH 301 0
DWIDTH 2 0
BBX 3 6 0 0
BITMAP
60
90
60
60
60
74
ENDCHAR
STARTCHAR uni1F32
ENCODING 7986
SWIDTH 301 0
DWIDTH 2 0
BBX 4 7 -1 0
BITMAP
04
69
24
18
18
18
1D
ENDCHAR
STARTCHAR uni1F33
ENCODING 7987
SWIDTH 301 0
DWIDTH 2 0
BBX 4 7 -1 0
BITMAP
04
68
54
18
18
18
1D
ENDCHAR
STARTCHAR uni1F34
ENCODING 7988
SWIDTH 301 0
DWIDTH 2 0
BBX 4 6 -1 0
BITMAP
69
24
18
18
18
1D
ENDCHAR
STARTCHAR uni1F35
ENCODING 7989
SWIDTH 301 0
DWIDTH 2 0
BBX 4 7 -1 0
BITMAP
04
39
64
18
18
18
1D
ENDCHAR
STARTCHAR uni1F36
ENCODING 7990
SWIDTH 301 0
DWIDTH 2 0
BBX 3 7 0 0
BITMAP
F4
60
10
60
60
60
74
ENDCHAR
STARTCHAR uni1F37
ENCODING 7991
SWIDTH 301 0
DWIDTH 2 0
BBX 3 7 0 0
BITMAP
F4
60
50
60
60
60
74
ENDCHAR
STARTCHAR uni1F38
ENCODING 7992
SWIDTH 464 0
DWIDTH 4 0
BBX 3 5 0 0
BITMAP
DC
9C
0C
0C
0C
ENDCHAR
STARTCHAR uni1F39
ENCODING 7993
SWIDTH 464 0
DWIDTH 4 0
BBX 3 5 0 0
BITMAP
9C
CC
0C
0C
0C
ENDCHAR
STARTCHAR uni1F3A
ENCODING 7994
SWIDTH 627 0
DWIDTH 5 0
BBX 5 5 0 0
BITMAP
DA40
0240
0240
0240
0240
ENDCHAR
STARTCHAR uni1F3B
ENCODING 7995
SWIDTH 626 0
DWIDTH 5 0
BBX 5 5 0 0
BITMAP
9A40
8240
0240
0240
0240
ENDCHAR
STARTCHAR uni1F3C
ENCODING 7996
SWIDTH 617 0
DWIDTH 5 0
BBX 5 5 0 0
BITMAP
DB40
1740
0340
0340
0340
ENDCHAR
STARTCHAR uni1F3D
ENCODING 7997
SWIDTH 616 0
DWIDTH 5 0
BBX 5 5 0 0
BITMAP
AB40
9740
0340
0340
0340
ENDCHAR
STARTCHAR uni1F3E
ENCODING 7998
SWIDTH 524 0
DWIDTH 4 0
BBX 4 5 0 0
BITMAP
FA
5A
0A
0A
0A
ENDCHAR
STARTCHAR uni1F3F
ENCODING 7999
SWIDTH 524 0
DWIDTH 4 0
BBX 4 5 0 0
BITMAP
FA
4A
0A
0A
0A
ENDCHAR
STARTCHAR uni1F40
ENCODING 8000
SWIDTH 553 0
DWIDTH 4 0
BBX 4 6 0 0
BITMAP
18
08
2D
A7
A7
2D
ENDCHAR
STARTCHAR uni1F41
ENCODING 8001
SWIDTH 553 0
DWIDTH 4 0
BBX 4 6 0 0
BITMAP
18
18
2D
A7
A7
2D
ENDCHAR
STARTCHAR uni1F42
ENCODING 8002
SWIDTH 553 0
DWIDTH 4 0
BBX 4 7 0 0
BITMAP
04
69
21
2D
A7
A7
2D
ENDCHAR
STARTCHAR uni1F43
ENCODING 8003
SWIDTH 553 0
DWIDTH 4 0
BBX 4 7 0 0
BITMAP
04
39
65
2D
A7
A7
2D
ENDCHAR
STARTCHAR uni1F44
ENCODING 8004
SWIDTH 553 0
DWIDTH 4 0
BBX 4 6 0 0
BITMAP
69
24
2D
A7
A7
2D
ENDCHAR
STARTCHAR uni1F45
ENCODING 8005
SWIDTH 553 0
DWIDTH 4 0
BBX 4 6 0 0
BITMAP
39
24
2D
A7
A7
2D
ENDCHAR
STARTCHAR uni1F48
ENCODING 8008
SWIDTH 827 0
DWIDTH 7 0
BBX 7 5 0 0
BITMAP
CBD0
AC70
1834
1C70
0BD0
ENDCHAR
STARTCHAR uni1F49
ENCODING 8009
SWIDTH 808 0
DWIDTH 6 0
BBX 6 5 0 0
BITMAP
9BD0
D870
2830
1C70
0BD0
ENDCHAR
STARTCHAR uni1F4A
ENCODING 8010
SWIDTH 984 0
DWIDTH 8 0
BBX 8 5 0 0
BITMAP
D9F8
034D
030A
034D
01F8
ENDCHAR
STARTCHAR uni1F4B
ENCODING 8011
SWIDTH 996 0
DWIDTH 8 0
BBX 8 5 0 0
BITMAP
99F8
834D
030A
034D
01F8
ENDCHAR
STARTCHAR uni1F4C
ENCODING 8012
SWIDTH 974 0
DWIDTH 8 0
BBX 8 5 0 0
BITMAP
D9F4
174D
0709
035D
01F4
ENDCHAR
STARTCHAR uni1F4D
ENCODING 8013
SWIDTH 973 0
DWIDTH 8 0
BBX 8 5 0 0
BITMAP
A9F4
975D
070D
035D
01F4
ENDCHAR
STARTCHAR uni1F50
ENCODING 8016
SWIDTH 532 0
DWIDTH 4 0
BBX 4 6 0 0
BITMAP
28
18
A6
A7
A6
7D
ENDCHAR
STARTCHAR uni1F51
ENCODING 8017
SWIDTH 532 0
DWIDTH 4 0
BBX 4 6 0 0
BITMAP
18
24
A6
A7
A6
7D
ENDCHAR
STARTCHAR uni1F52
ENCODING 8018
SWIDTH 532 0
DWIDTH 4 0
BBX 4 7 0 0
BITMAP
04
69
24
A6
A7
A6
7D
ENDCHAR
STARTCHAR uni1F53
ENCODING 8019
SWIDTH 532 0
DWIDTH 4 0
BBX 4 7 0 0
BITMAP
04
68
54
A6
A7
A6
7D
ENDCHAR
STARTCHAR uni1F54
ENCODING 8020
SWIDTH 532 0
DWIDTH 4 0
BBX 4 6 0 0
BITMAP
69
24
A6
A7
A6
7D
ENDCHAR
STARTCHAR uni1F55
ENCODING 8021
SWIDTH 532 0
DWIDTH 4 0
BBX 4 7 0 0
BITMAP
04
39
64
A6
A7
A6
7D
ENDCHAR
STARTCHAR uni1F56
ENCODING 8022
SWIDTH 532 0
DWIDTH 4 0
BBX 4 7 0 0
BITMAP
3D
18
04
A6
A7
A6
7D
ENDCHAR
STARTCHAR uni1F57
ENCODING 8023
SWIDTH 532 0
DWIDTH 4 0
BBX 4 7 0 0
BITMAP
3D
18
14
A6
A7
A6
7D
ENDCHAR
STARTCHAR uni1F59
ENCODING 8025
SWIDTH 731 0
DWIDTH 6 0
BBX 6 5 0 0
BITMAP
9CA0
C9D0
0780
0340
0340
ENDCHAR
STARTCHAR uni1F5B
ENCODING 8027
SWIDTH 910 0
DWIDTH 7 0
BBX 7 5 0 0
BITMAP
9A4C
81E8
00B0
0060
0060
ENDCHAR
STARTCHAR uni1F5D
ENCODING 8029
SWIDTH 900 0
DWIDTH 7 0
BBX 7 5 0 0
BITMAP
AA5C
95A8
00B0
0060
0060
ENDCHAR
STARTCHAR uni1F5F
ENCODING 8031
SWIDTH 794 0
DWIDTH 6 0
BBX 7 5 0 0
BITMAP
FA34
4760
02D0
01C0
01C0
ENDCHAR
STARTCHAR uni1F60
ENCODING 8032
SWIDTH 746 0
DWIDTH 6 0
BBX 6 6 0 0
BITMAP
0900
0600
6090
A5A0
AAA0
7AD0
ENDCHAR
STARTCHAR uni1F61
ENCODING 8033
SWIDTH 746 0
DWIDTH 6 0
BBX 6 6 0 0
BITMAP
0600
0900
6090
A5A0
AAA0
7AD0
ENDCHAR
STARTCHAR uni1F62
ENCODING 8034
SWIDTH 746 0
DWIDTH 6 0
BBX 6 7 0 0
BITMAP
0100
2600
1900
6090
A5A0
AAA0
7AD0
ENDCHAR
STARTCHAR uni1F63
ENCODING 8035
SWIDTH 746 0
DWIDTH 6 0
BBX 6 7 0 0
BITMAP
0100
1A00
1500
6090
A5A0
AAA0
7AD0
ENDCHAR
STARTCHAR uni1F64
ENCODING 8036
SWIDTH 746 0
DWIDTH 6 0
BBX 6 7 0 0
BITMAP
0100
2600
1900
6090
A5A0
AAA0
7AD0
ENDCHAR
STARTCHAR uni1F65
ENCODING 8037
SWIDTH 746 0
DWIDTH 6 0
BBX 6 7 0 0
BITMAP
0100
1A00
1500
6090
A5A0
AAA0
7AD0
ENDCHAR
STARTCHAR uni1F66
ENCODING 8038
SWIDTH 746 0
DWIDTH 6 0
BBX 6 7 0 0
BITMAP
0F00
0900
0500
6090
A5A0
AAA0
7AD0
ENDCHAR
STARTCHAR uni1F67
ENCODING 8039
SWIDTH 746 0
DWIDTH 6 0
BBX 6 7 0 0
BITMAP
0F00
0600
0500
6090
A5A0
AAA0
7AD0
ENDCHAR
STARTCHAR uni1F68
ENCODING 8040
SWIDTH 853 0
DWIDTH 7 0
BBX 7 5 0 0
BITMAP
C7D0
AD74
1C34
0D70
2EB4
ENDCHAR
STARTCHAR uni1F69
ENCODING 8041
SWIDTH 835 0
DWIDTH 7 0
BBX 7 5 0 0
BITMAP
9BD0
DC70
1830
1C60
2DB4
ENDCHAR
STARTCHAR uni1F6A
ENCODING 8042
SWIDTH 1018 0
DWIDTH 8 0
BBX 8 5 0 0
BITMAP
D9B8
034A
034A
028D
07DE
ENDCHAR
STARTCHAR uni1F6B
ENCODING 8043
SWIDTH 1017 0
DWIDTH 8 0
BBX 8 5 0 0
BITMAP
99F8
8349
034A
028D
07DE
ENDCHAR
STARTCHAR uni1F6C
ENCODING 8044
SWIDTH 1008 0
DWIDTH 8 0
BBX 8 5 0 0
BITMAP
D9F8
174D
030A
024D
07DE
ENDCHAR
STARTCHAR uni1F6D
ENCODING 8045
SWIDTH 1007 0
DWIDTH 8 0
BBX 8 5 0 0
BITMAP
A9F8
974D
030A
024D
07DE
ENDCHAR
STARTCHAR uni1F6E
ENCODING 8046
SWIDTH 877 0
DWIDTH 7 0
BBX 7 5 0 0
BITMAP
F7E0
5D34
0C24
0934
1E78
ENDCHAR
STARTCHAR uni1F6F
ENCODING 8047
SWIDTH 877 0
DWIDTH 7 0
BBX 7 5 0 0
BITMAP
F7E0
5D34
0C24
0934
1E78
ENDCHAR
STARTCHAR uni1F70
ENCODING 8048
SWIDTH 595 0
DWIDTH 5 0
BBX 5 7 0 0
BITMAP
2000
1800
0000
3B40
A700
A700
7A80
ENDCHAR
STARTCHAR uni1F71
ENCODING 8049
SWIDTH 595 0
DWIDTH 5 0
BBX 5 7 0 0
BITMAP
0600
0800
0000
3B40
A700
A700
7A80
ENDCHAR
STARTCHAR uni1F72
ENCODING 8050
SWIDTH 471 0
DWIDTH 4 0
BBX 4 7 0 0
BITMAP
60
24
00
7D
78
A0
7D
ENDCHAR
STARTCHAR uni1F73
ENCODING 8051
SWIDTH 471 0
DWIDTH 4 0
BBX 4 7 0 0
BITMAP
09
18
00
7D
78
A0
7D
ENDCHAR
STARTCHAR uni1F74
ENCODING 8052
SWIDTH 562 0
DWIDTH 5 0
BBX 4 8 0 -1
BITMAP
24
18
00
AE
77
63
63
03
ENDCHAR
STARTCHAR uni1F75
ENCODING 8053
SWIDTH 562 0
DWIDTH 5 0
BBX 4 8 0 -1
BITMAP
06
09
00
AE
77
63
63
03
ENDCHAR
STARTCHAR uni1F76
ENCODING 8054
SWIDTH 301 0
DWIDTH 2 0
BBX 3 7 0 0
BITMAP
80
90
00
60
60
60
74
ENDCHAR
STARTCHAR uni1F77
ENCODING 8055
SWIDTH 301 0
DWIDTH 2 0
BBX 3 7 0 0
BITMAP
24
20
00
60
60
60
74
ENDCHAR
STARTCHAR uni1F78
ENCODING 8056
SWIDTH 553 0
DWIDTH 4 0
BBX 4 7 0 0
BITMAP
20
14
00
2D
A7
A7
2D
ENDCHAR
STARTCHAR uni1F79
ENCODING 8057
SWIDTH 553 0
DWIDTH 4 0
BBX 4 7 0 0
BITMAP
05
08
00
2D
A7
A7
2D
ENDCHAR
STARTCHAR uni1F7A
ENCODING 8058
SWIDTH 532 0
DWIDTH 4 0
BBX 4 7 0 0
BITMAP
20
24
00
A6
A7
A6
7D
ENDCHAR
STARTCHAR uni1F7B
ENCODING 8059
SWIDTH 532 0
DWIDTH 4 0
BBX 4 7 0 0
BITMAP
09
08
00
A6
A7
A6
7D
ENDCHAR
STARTCHAR uni1F7C
ENCODING 8060
SWIDTH 746 0
DWIDTH 6 0
BBX 6 7 0 0
BITMAP
1800
0900
0000
6090
A5A0
AAA0
7AD0
ENDCHAR
STARTCHAR uni1F7D
ENCODING 8061
SWIDTH 746 0
DWIDTH 6 0
BBX 6 7 0 0
BITMAP
0240
0600
0000
6090
A5A0
AAA0
7AD0
ENDCHAR
STARTCHAR uni1F80
ENCODING 8064
SWIDTH 595 0
DWIDTH 5 0
BBX 5 8 0 -2
BITMAP
1800
0C00
3F40
A700
A700
7A80
0000
0900
ENDCHAR
STARTCHAR uni1F81
ENCODING 8065
SWIDTH 595 0
DWIDTH 5 0
BBX 5 8 0 -2
BITMAP
1C00
1800
3F40
A700
A700
7A80
0000
0900
ENDCHAR
STARTCHAR uni1F82
ENCODING 8066
SWIDTH 595 0
DWIDTH 5 0
BBX 5 8 0 -2
BITMAP
6500
2100
3B40
A700
A700
7A80
0000
0900
ENDCHAR
STARTCHAR uni1F83
ENCODING 8067
SWIDTH 595 0
DWIDTH 5 0
BBX 5 8 0 -2
BITMAP
3900
2100
3B40
A700
A700
7A80
0000
0900
ENDCHAR
STARTCHAR uni1F84
ENCODING 8068
SWIDTH 595 0
DWIDTH 5 0
BBX 5 8 0 -2
BITMAP
6500
2400
3B40
A700
A700
7A80
0000
0900
ENDCHAR
STARTCHAR uni1F85
ENCODING 8069
SWIDTH 595 0
DWIDTH 5 0
BBX 5 8 0 -2
BITMAP
2900
2400
3B40
A700
A700
7A80
0000
0900
ENDCHAR
STARTCHAR uni1F86
ENCODING 8070
SWIDTH 595 0
DWIDTH 5 0
BBX 5 9 0 -2
BITMAP
2D00
1800
0400
3B40
A700
A700
7A80
0000
0900
ENDCHAR
STARTCHAR uni1F87
ENCODING 8071
SWIDTH 595 0
DWIDTH 5 0
BBX 5 9 0 -2
BITMAP
2D00
0800
0400
3B40
A700
A700
7A80
0000
0900
ENDCHAR
STARTCHAR uni1F88
ENCODING 8072
SWIDTH 949 0
DWIDTH 8 0
BBX 8 5 0 0
BITMAP
DE00
AB00
2A5C
3F9C
70DE
ENDCHAR
STARTCHAR uni1F89
ENCODING 8073
SWIDTH 933 0
DWIDTH 7 0
BBX 8 5 0 0
BITMAP
9E00
DB00
2658
3F98
71DD
ENDCHAR
STARTCHAR uni1F8A
ENCODING 8074
SWIDTH 1116 0
DWIDTH 9 0
BBX 9 5 0 0
BITMAP
DAC000
039000
076340
0BF340
0D2680
ENDCHAR
STARTCHAR uni1F8B
ENCODING 8075
SWIDTH 1115 0
DWIDTH 9 0
BBX 9 5 0 0
BITMAP
9AC000
839000
076340
0BF340
0D2680
ENDCHAR
STARTCHAR uni1F8C
ENCODING 8076
SWIDTH 1106 0
DWIDTH 9 0
BBX 9 5 0 0
BITMAP
DAC000
179000
066300
0BF300
0D3680
ENDCHAR
STARTCHAR uni1F8D
ENCODING 8077
SWIDTH 1105 0
DWIDTH 9 0
BBX 9 5 0 0
BITMAP
AAC000
979000
066300
0BF300
0D3680
ENDCHAR
STARTCHAR uni1F8E
ENCODING 8078
SWIDTH 973 0
DWIDTH 8 0
BBX 8 5 0 0
BITMAP
FB00
5E40
198C
2FCC
30DA
ENDCHAR
STARTCHAR uni1F8F
ENCODING 8079
SWIDTH 973 0
DWIDTH 8 0
BBX 8 5 0 0
BITMAP
FB00
5E40
198C
2FCC
30DA
ENDCHAR
STARTCHAR uni1F90
ENCODING 8080
SWIDTH 562 0
DWIDTH 5 0
BBX 4 8 0 -2
BITMAP
18
08
AE
77
63
63
03
60
ENDCHAR
STARTCHAR uni1F91
ENCODING 8081
SWIDTH 562 0
DWIDTH 5 0
BBX 4 8 0 -2
BITMAP
0C
18
AE
77
63
63
03
60
ENDCHAR
STARTCHAR uni1F92
ENCODING 8082
SWIDTH 562 0
DWIDTH 5 0
BBX 4 8 0 -2
BITMAP
36
21
AE
77
63
63
03
60
ENDCHAR
STARTCHAR uni1F93
ENCODING 8083
SWIDTH 562 0
DWIDTH 5 0
BBX 4 8 0 -2
BITMAP
2A
21
AE
77
63
63
03
60
ENDCHAR
STARTCHAR uni1F94
ENCODING 8084
SWIDTH 562 0
DWIDTH 5 0
BBX 4 8 0 -2
BITMAP
36
24
AE
77
63
63
03
60
ENDCHAR
STARTCHAR uni1F95
ENCODING 8085
SWIDTH 562 0
DWIDTH 5 0
BBX 4 8 0 -2
BITMAP
2A
24
AE
77
63
63
03
60
ENDCHAR
STARTCHAR uni1F96
ENCODING 8086
SWIDTH 562 0
DWIDTH 5 0
BBX 4 9 0 -2
BITMAP
2D
08
04
AE
77
63
63
03
60
ENDCHAR
STARTCHAR uni1F97
ENCODING 8087
SWIDTH 562 0
DWIDTH 5 0
BBX 4 9 0 -2
BITMAP
2D
0C
04
AE
77
63
63
03
60
ENDCHAR
STARTCHAR uni1F98
ENCODING 8088
SWIDTH 1131 0
DWIDTH 9 0
BBX 9 5 0 0
BITMAP
DC3000
9C3000
0FF240
0C3240
0C32C0
ENDCHAR
STARTCHAR uni1F99
ENCODING 8089
SWIDTH 1131 0
DWIDTH 9 0
BBX 9 5 0 0
BITMAP
9C3000
CC3000
0FF240
0C3240
0C32C0
ENDCHAR
STARTCHAR uni1F9A
ENCODING 8090
SWIDTH 1294 0
DWIDTH 10 0
BBX 11 5 0 0
BITMAP
DA4900
024900
02FDA0
0249A0
024974
ENDCHAR
STARTCHAR uni1F9B
ENCODING 8091
SWIDTH 1293 0
DWIDTH 10 0
BBX 11 5 0 0
BITMAP
9A4900
824900
02FDA0
0249A0
024974
ENDCHAR
STARTCHAR uni1F9C
ENCODING 8092
SWIDTH 1284 0
DWIDTH 10 0
BBX 11 5 0 0
BITMAP
DB4D00
174D00
03FDA0
034DA0
034D74
ENDCHAR
STARTCHAR uni1F9D
ENCODING 8093
SWIDTH 1283 0
DWIDTH 10 0
BBX 10 5 0 0
BITMAP
AB4D00
974D00
03FDA0
034DA0
034D70
ENDCHAR
STARTCHAR uni1F9E
ENCODING 8094
SWIDTH 1190 0
DWIDTH 10 0
BBX 10 5 0 0
BITMAP
FA2800
5A2800
0BF980
0A2980
0A29D0
ENDCHAR
STARTCHAR uni1F9F
ENCODING 8095
SWIDTH 1190 0
DWIDTH 10 0
BBX 10 5 0 0
BITMAP
FA2800
4A2800
0BF980
0A2980
0A29D0
ENDCHAR
STARTCHAR uni1FA0
ENCODING 8096
SWIDTH 746 0
DWIDTH 6 0
BBX 6 8 0 -2
BITMAP
0900
0600
6090
A5A0
AAA0
7AD0
0000
0600
ENDCHAR
STARTCHAR uni1FA1
ENCODING 8097
SWIDTH 746 0
DWIDTH 6 0
BBX 6 8 0 -2
BITMAP
0600
0900
6090
A5A0
AAA0
7AD0
0000
0600
ENDCHAR
STARTCHAR uni1FA2
ENCODING 8098
SWIDTH 746 0
DWIDTH 6 0
BBX 6 9 0 -2
BITMAP
0100
2600
1900
6090
A5A0
AAA0
7AD0
0000
0600
ENDCHAR
STARTCHAR uni1FA3
ENCODING 8099
SWIDTH 746 0
DWIDTH 6 0
BBX 6 9 0 -2
BITMAP
0100
1A00
1500
6090
A5A0
AAA0
7AD0
0000
0600
ENDCHAR
STARTCHAR uni1FA4
ENCODING 8100
SWIDTH 746 0
DWIDTH 6 0
BBX 6 9 0 -2
BITMAP
0100
2600
1900
6090
A5A0
AAA0
7AD0
0000
0600
ENDCHAR
STARTCHAR uni1FA5
ENCODING 8101
SWIDTH 746 0
DWIDTH 6 0
BBX 6 9 0 -2
BITMAP
0100
1A00
1500
6090
A5A0
AAA0
7AD0
0000
0600
ENDCHAR
STARTCHAR uni1FA6
ENCODING 8102
SWIDTH 746 0
DWIDTH 6 0
BBX 6 9 0 -2
BITMAP
0F00
0900
0500
6090
A5A0
AAA0
7AD0
0000
0600
ENDCHAR
STARTCHAR uni1FA7
ENCODING 8103
SWIDTH 746 0
DWIDTH 6 0
BBX 6 9 0 -2
BITMAP
0F00
0600
0500
6090
A5A0
AAA0
7AD0
0000
0600
ENDCHAR
STARTCHAR uni1FA8
ENCODING 8104
SWIDTH 1147 0
DWIDTH 9 0
BBX 9 5 0 0
BITMAP
C7D000
AD7400
1C3640
0D7240
2EB5C0
ENDCHAR
STARTCHAR uni1FA9
ENCODING 8105
SWIDTH 1129 0
DWIDTH 9 0
BBX 9 5 0 0
BITMAP
9BD000
DC7000
183240
1C6240
2DB6C0
ENDCHAR
STARTCHAR uni1FAA
ENCODING 8106
SWIDTH 1313 0
DWIDTH 11 0
BBX 11 5 0 0
BITMAP
D9B800
034A00
034A60
028D60
07DE74
ENDCHAR
STARTCHAR uni1FAB
ENCODING 8107
SWIDTH 1311 0
DWIDTH 10 0
BBX 11 5 0 0
BITMAP
99F800
834900
034A60
028D60
07DE74
ENDCHAR
STARTCHAR uni1FAC
ENCODING 8108
SWIDTH 1303 0
DWIDTH 10 0
BBX 11 5 0 0
BITMAP
D9F800
174D00
030A60
024D60
07DE74
ENDCHAR
STARTCHAR uni1FAD
ENCODING 8109
SWIDTH 1302 0
DWIDTH 10 0
BBX 11 5 0 0
BITMAP
A9F800
974D00
030A60
024D60
07DE74
ENDCHAR
STARTCHAR uni1FAE
ENCODING 8110
SWIDTH 1172 0
DWIDTH 9 0
BBX 10 5 0 0
BITMAP
F7E000
5D3400
0C2680
093580
1E79D0
ENDCHAR
STARTCHAR uni1FAF
ENCODING 8111
SWIDTH 1172 0
DWIDTH 9 0
BBX 10 5 0 0
BITMAP
F7E000
5D3400
0C2680
093580
1E79D0
ENDCHAR
STARTCHAR uni1FB0
ENCODING 8112
SWIDTH 595 0
DWIDTH 5 0
BBX 5 6 0 0
BITMAP
2600
2D00
3B40
A700
A700
7A80
ENDCHAR
STARTCHAR uni1FB1
ENCODING 8113
SWIDTH 595 0
DWIDTH 5 0
BBX 5 6 0 0
BITMAP
3E00
0000
3B40
A700
A700
7A80
ENDCHAR
STARTCHAR uni1FB2
ENCODING 8114
SWIDTH 595 0
DWIDTH 5 0
BBX 5 9 0 -2
BITMAP
2000
1800
0000
3B40
A700
A700
7A80
0000
0900
ENDCHAR
STARTCHAR uni1FB3
ENCODING 8115
SWIDTH 595 0
DWIDTH 5 0
BBX 5 6 0 -2
BITMAP
3B40
A700
A700
7A80
0000
0900
ENDCHAR
STARTCHAR uni1FB4
ENCODING 8116
SWIDTH 595 0
DWIDTH 5 0
BBX 5 9 0 -2
BITMAP
0600
0800
0000
3B40
A700
A700
7A80
0000
0900
ENDCHAR
STARTCHAR uni1FB6
ENCODING 8118
SWIDTH 595 0
DWIDTH 5 0
BBX 5 7 0 0
BITMAP
0100
2A00
2500
3B40
A700
A700
7A80
ENDCHAR
STARTCHAR uni1FB7
ENCODING 8119
SWIDTH 595 0
DWIDTH 5 0
BBX 5 9 0 -2
BITMAP
0100
2A00
2500
3B40
A700
A700
7A80
0000
0900
ENDCHAR
STARTCHAR uni1FB8
ENCODING 8120
SWIDTH 573 0
DWIDTH 5 0
BBX 5 7 0 0
BITMAP
2500
2D00
2C00
3900
7600
BF00
D240
ENDCHAR
STARTCHAR uni1FB9
ENCODING 8121
SWIDTH 573 0
DWIDTH 5 0
BBX 5 7 0 0
BITMAP
3D00
0000
2C00
3900
7600
BF00
D240
ENDCHAR
STARTCHAR uni1FBA
ENCODING 8122
SWIDTH 622 0
DWIDTH 5 0
BBX 5 5 0 0
BITMAP
9E00
2B00
3740
7F80
61C0
ENDCHAR
STARTCHAR uni1FBB
ENCODING 8123
SWIDTH 622 0
DWIDTH 5 0
BBX 5 5 0 0
BITMAP
9E00
AB00
3740
7F80
61C0
ENDCHAR
STARTCHAR uni1FBC
ENCODING 8124
SWIDTH 867 0
DWIDTH 7 0
BBX 7 5 0 0
BITMAP
2C00
3900
7634
BF34
D26C
ENDCHAR
STARTCHAR uni1FBD
ENCODING 8125
SWIDTH 555 0
DWIDTH 4 0
BBX 2 2 1 4
BITMAP
60
20
ENDCHAR
STARTCHAR uni1FBE
ENCODING 8126
SWIDTH 301 0
DWIDTH 2 0
BBX 3 3 0 0
BITMAP
60
60
74
ENDCHAR
STARTCHAR uni1FBF
ENCODING 8127
SWIDTH 555 0
DWIDTH 4 0
BBX 2 2 1 4
BITMAP
60
20
ENDCHAR
STARTCHAR uni1FC0
ENCODING 8128
SWIDTH 555 0
DWIDTH 4 0
BBX 4 3 0 4
BITMAP
01
3A
69
ENDCHAR
STARTCHAR uni1FC1
ENCODING 8129
SWIDTH 555 0
DWIDTH 4 0
BBX 3 2 1 5
BITMAP
94
F8
ENDCHAR
STARTCHAR uni1FC2
ENCODING 8130
SWIDTH 562 0
DWIDTH 5 0
BBX 4 9 0 -2
BITMAP
24
18
00
AE
77
63
63
03
60
ENDCHAR
STARTCHAR uni1FC3
ENCODING 8131
SWIDTH 562 0
DWIDTH 5 0
BBX 4 6 0 -2
BITMAP
AE
77
63
63
03
60
ENDCHAR
STARTCHAR uni1FC4
ENCODING 8132
SWIDTH 562 0
DWIDTH 5 0
BBX 4 9 0 -2
BITMAP
06
09
00
AE
77
63
63
03
60
ENDCHAR
STARTCHAR uni1FC6
ENCODING 8134
SWIDTH 562 0
DWIDTH 5 0
BBX 4 8 0 -1
BITMAP
01
2A
25
AE
77
63
63
03
ENDCHAR
STARTCHAR uni1FC7
ENCODING 8135
SWIDTH 562 0
DWIDTH 5 0
BBX 4 9 0 -2
BITMAP
01
2A
25
AE
77
63
63
03
60
ENDCHAR
STARTCHAR uni1FC8
ENCODING 8136
SWIDTH 667 0
DWIDTH 5 0
BBX 5 5 0 0
BITMAP
9F80
1800
1F80
1800
1FC0
ENDCHAR
STARTCHAR uni1FC9
ENCODING 8137
SWIDTH 667 0
DWIDTH 5 0
BBX 5 5 0 0
BITMAP
DF80
9800
1F80
1800
1FC0
ENDCHAR
STARTCHAR uni1FCA
ENCODING 8138
SWIDTH 792 0
DWIDTH 6 0
BBX 6 5 0 0
BITMAP
9860
1860
1FE0
1860
1860
ENDCHAR
STARTCHAR uni1FCB
ENCODING 8139
SWIDTH 792 0
DWIDTH 6 0
BBX 6 5 0 0
BITMAP
D860
9860
1FE0
1860
1860
ENDCHAR
STARTCHAR uni1FCC
ENCODING 8140
SWIDTH 968 0
DWIDTH 8 0
BBX 8 5 0 0
BITMAP
6180
6180
7F8C
618C
618E
ENDCHAR
STARTCHAR uni1FCD
ENCODING 8141
SWIDTH 555 0
DWIDTH 4 0
BBX 4 3 0 4
BITMAP
04
69
25
ENDCHAR
STARTCHAR uni1FCE
ENCODING 8142
SWIDTH 555 0
DWIDTH 4 0
BBX 4 2 0 4
BITMAP
69
24
ENDCHAR
STARTCHAR uni1FCF
ENCODING 8143
SWIDTH 555 0
DWIDTH 4 0
BBX 3 3 1 4
BITMAP
B4
60
10
ENDCHAR
STARTCHAR uni1FD0
ENCODING 8144
SWIDTH 301 0
DWIDTH 2 0
BBX 4 6 -1 0
BITMAP
65
2C
18
18
18
1D
ENDCHAR
STARTCHAR uni1FD1
ENCODING 8145
SWIDTH 301 0
DWIDTH 2 0
BBX 3 6 0 0
BITMAP
F4
00
60
60
60
74
ENDCHAR
STARTCHAR uni1FD2
ENCODING 8146
SWIDTH 301 0
DWIDTH 2 0
BBX 4 6 -1 0
BITMAP
69
04
18
18
18
1D
ENDCHAR
STARTCHAR uni1FD3
ENCODING 8147
SWIDTH 301 0
DWIDTH 2 0
BBX 4 7 -1 0
BITMAP
04
69
00
18
18
18
1D
ENDCHAR
STARTCHAR uni1FD6
ENCODING 8150
SWIDTH 301 0
DWIDTH 2 0
BBX 4 6 -1 0
BITMAP
3A
58
18
18
18
1D
ENDCHAR
STARTCHAR uni1FD7
ENCODING 8151
SWIDTH 301 0
DWIDTH 2 0
BBX 4 7 -1 0
BITMAP
25
7D
00
18
18
18
1D
ENDCHAR
STARTCHAR uni1FD8
ENCODING 8152
SWIDTH 301 0
DWIDTH 2 0
BBX 3 7 0 0
BITMAP
94
B0
60
60
60
60
60
ENDCHAR
STARTCHAR uni1FD9
ENCODING 8153
SWIDTH 301 0
DWIDTH 2 0
BBX 3 7 0 0
BITMAP
F4
00
60
60
60
60
60
ENDCHAR
STARTCHAR uni1FDA
ENCODING 8154
SWIDTH 420 0
DWIDTH 3 0
BBX 3 5 0 0
BITMAP
98
18
18
18
18
ENDCHAR
STARTCHAR uni1FDB
ENCODING 8155
SWIDTH 420 0
DWIDTH 3 0
BBX 3 5 0 0
BITMAP
D8
98
18
18
18
ENDCHAR
STARTCHAR uni1FDD
ENCODING 8157
SWIDTH 555 0
DWIDTH 4 0
BBX 4 3 0 4
BITMAP
04
39
65
ENDCHAR
STARTCHAR uni1FDE
ENCODING 8158
SWIDTH 555 0
DWIDTH 4 0
BBX 3 2 1 4
BITMAP
E4
90
ENDCHAR
STARTCHAR uni1FDF
ENCODING 8159
SWIDTH 555 0
DWIDTH 4 0
BBX 3 3 1 4
BITMAP
B4
60
50
ENDCHAR
STARTCHAR uni1FE0
ENCODING 8160
SWIDTH 532 0
DWIDTH 4 0
BBX 4 6 0 0
BITMAP
65
2C
A6
A7
A6
7D
ENDCHAR
STARTCHAR uni1FE1
ENCODING 8161
SWIDTH 532 0
DWIDTH 4 0
BBX 4 6 0 0
BITMAP
3D
00
A6
A7
A6
7D
ENDCHAR
STARTCHAR uni1FE2
ENCODING 8162
SWIDTH 532 0
DWIDTH 4 0
BBX 4 6 0 0
BITMAP
69
04
A6
A7
A6
7D
ENDCHAR
STARTCHAR uni1FE3
ENCODING 8163
SWIDTH 532 0
DWIDTH 4 0
BBX 4 7 0 0
BITMAP
04
69
00
A6
A7
A6
7D
ENDCHAR
STARTCHAR uni1FE4
ENCODING 8164
SWIDTH 569 0
DWIDTH 5 0
BBX 4 7 0 -1
BITMAP
18
08
2E
63
A3
BE
A0
ENDCHAR
STARTCHAR uni1FE5
ENCODING 8165
SWIDTH 569 0
DWIDTH 5 0
BBX 4 7 0 -1
BITMAP
0C
18
2E
63
A3
BE
A0
ENDCHAR
STARTCHAR uni1FE6
ENCODING 8166
SWIDTH 532 0
DWIDTH 4 0
BBX 4 6 0 0
BITMAP
3A
58
A6
A7
A6
7D
ENDCHAR
STARTCHAR uni1FE7
ENCODING 8167
SWIDTH 532 0
DWIDTH 4 0
BBX 4 7 0 0
BITMAP
25
7D
00
A6
A7
A6
7D
ENDCHAR
STARTCHAR uni1FE8
ENCODING 8168
SWIDTH 525 0
DWIDTH 4 0
BBX 4 7 0 0
BITMAP
25
2C
97
6A
2C
18
18
ENDCHAR
STARTCHAR uni1FE9
ENCODING 8169
SWIDTH 525 0
DWIDTH 4 0
BBX 4 7 0 0
BITMAP
3D
00
97
6A
2C
18
18
ENDCHAR
STARTCHAR uni1FEA
ENCODING 8170
SWIDTH 704 0
DWIDTH 6 0
BBX 6 5 0 0
BITMAP
9C90
0DC0
0740
0300
0300
ENDCHAR
STARTCHAR uni1FEB
ENCODING 8171
SWIDTH 704 0
DWIDTH 6 0
BBX 6 5 0 0
BITMAP
DC90
8DC0
0740
0300
0300
ENDCHAR
STARTCHAR uni1FEC
ENCODING 8172
SWIDTH 759 0
DWIDTH 6 0
BBX 6 5 0 0
BITMAP
9FD0
CCA0
0FD0
0C00
0C00
ENDCHAR
STARTCHAR uni1FED
ENCODING 8173
SWIDTH 555 0
DWIDTH 4 0
BBX 4 2 0 4
BITMAP
6A
04
ENDCHAR
STARTCHAR uni1FEE
ENCODING 8174
SWIDTH 555 0
DWIDTH 4 0
BBX 4 3 0 4
BITMAP
04
6A
04
ENDCHAR
STARTCHAR uni1FEF
ENCODING 8175
SWIDTH 555 0
DWIDTH 4 0
BBX 2 2 1 5
BITMAP
50
60
ENDCHAR
STARTCHAR uni1FF2
ENCODING 8178
SWIDTH 746 0
DWIDTH 6 0
BBX 6 9 0 -2
BITMAP
1800
0900
0000
6090
A5A0
AAA0
7AD0
0000
0600
ENDCHAR
STARTCHAR uni1FF3
ENCODING 8179
SWIDTH 746 0
DWIDTH 6 0
BBX 6 6 0 -2
BITMAP
6090
A5A0
AAA0
7AD0
0000
0600
ENDCHAR
STARTCHAR uni1FF4
ENCODING 8180
SWIDTH 746 0
DWIDTH 6 0
BBX 6 9 0 -2
BITMAP
0240
0600
0000
6090
A5A0
AAA0
7AD0
0000
0600
ENDCHAR
STARTCHAR uni1FF6
ENCODING 8182
SWIDTH 746 0
DWIDTH 6 0
BBX 6 6 0 0
BITMAP
1E40
1600
6090
A5A0
AAA0
7AD0
ENDCHAR
STARTCHAR uni1FF7
ENCODING 8183
SWIDTH 746 0
DWIDTH 6 0
BBX 6 8 0 -2
BITMAP
1E40
1600
6090
A5A0
AAA0
7AD0
0000
0600
ENDCHAR
STARTCHAR uni1FF8
ENCODING 8184
SWIDTH 790 0
DWIDTH 6 0
BBX 6 5 0 0
BITMAP
8B80
28A0
2470
28A0
0B80
ENDCHAR
STARTCHAR uni1FF9
ENCODING 8185
SWIDTH 777 0
DWIDTH 6 0
BBX 6 5 0 0
BITMAP
CB80
A8A0
3460
28A0
0B80
ENDCHAR
STARTCHAR uni1FFA
ENCODING 8186
SWIDTH 811 0
DWIDTH 6 0
BBX 6 5 0 0
BITMAP
8B90
28B0
2870
1CA0
2DF0
ENDCHAR
STARTCHAR uni1FFB
ENCODING 8187
SWIDTH 803 0
DWIDTH 6 0
BBX 6 5 0 0
BITMAP
CB90
A8A0
2470
18A0
3DF0
ENDCHAR
STARTCHAR uni1FFC
ENCODING 8188
SWIDTH 1005 0
DWIDTH 8 0
BBX 8 5 0 0
BITMAP
2F40
71C0
60D9
3189
B6DB
ENDCHAR
STARTCHAR uni1FFD
ENCODING 8189
SWIDTH 555 0
DWIDTH 4 0
BBX 1 2 2 5
BITMAP
80
80
ENDCHAR
STARTCHAR uni1FFE
ENCODING 8190
SWIDTH 555 0
DWIDTH 4 0
BBX 2 2 1 4
BITMAP
60
60
ENDCHAR
STARTCHAR uni2007
ENCODING 8199
SWIDTH 528 0
DWIDTH 4 0
BBX 1 1 0 0
BITMAP
00
ENDCHAR
STARTCHAR figuredash
ENCODING 8210
SWIDTH 528 0
DWIDTH 4 0
BBX 4 1 0 2
BITMAP
BF
ENDCHAR
STARTCHAR endash
ENCODING 8211
SWIDTH 480 0
DWIDTH 4 0
BBX 4 1 0 2
BITMAP
BE
ENDCHAR
STARTCHAR emdash
ENCODING 8212
SWIDTH 800 0
DWIDTH 6 0
BBX 6 1 0 2
BITMAP
BFF0
ENDCHAR
STARTCHAR uni2015
ENCODING 8213
SWIDTH 800 0
DWIDTH 6 0
BBX 6 1 0 2
BITMAP
BFF0
ENDCHAR
STARTCHAR uni2016
ENCODING 8214
SWIDTH 452 0
DWIDTH 4 0
BBX 3 8 0 -2
BITMAP
58
58
58
58
58
58
58
58
ENDCHAR
STARTCHAR quoteleft
ENCODING 8216
SWIDTH 300 0
DWIDTH 2 0
BBX 2 3 0 3
BITMAP
10
50
60
ENDCHAR
STARTCHAR quoteright
ENCODING 8217
SWIDTH 300 0
DWIDTH 2 0
BBX 2 2 0 3
BITMAP
60
20
ENDCHAR
STARTCHAR quotesinglbase
ENCODING 8218
SWIDTH 300 0
DWIDTH 2 0
BBX 2 2 0 -1
BITMAP
60
20
ENDCHAR
STARTCHAR quotedblleft
ENCODING 8220
SWIDTH 536 0
DWIDTH 4 0
BBX 4 3 0 3
BITMAP
11
59
6A
ENDCHAR
STARTCHAR quotedblright
ENCODING 8221
SWIDTH 536 0
DWIDTH 4 0
BBX 4 3 0 2
BITMAP
66
22
04
ENDCHAR
STARTCHAR quotedblbase
ENCODING 8222
SWIDTH 536 0
DWIDTH 4 0
BBX 4 3 0 -2
BITMAP
66
22
04
ENDCHAR
STARTCHAR dagger
ENCODING 8224
SWIDTH 510 0
DWIDTH 4 0
BBX 4 7 0 -1
BITMAP
14
69
29
14
14
14
04
ENDCHAR
STARTCHAR daggerdbl
ENCODING 8225
SWIDTH 510 0
DWIDTH 4 0
BBX 4 7 0 -1
BITMAP
14
69
29
14
BE
14
04
ENDCHAR
STARTCHAR bullet
ENCODING 8226
SWIDTH 345 0
DWIDTH 3 0
BBX 3 2 0 1
BITMAP
74
74
ENDCHAR
STARTCHAR ellipsis
ENCODING 8230
SWIDTH 977 0
DWIDTH 8 0
BBX 7 1 0 0
BITMAP
624C
ENDCHAR
STARTCHAR uni202F
ENCODING 8239
SWIDTH 125 0
DWIDTH 1 0
BBX 1 1 0 0
BITMAP
00
ENDCHAR
STARTCHAR perthousand
ENCODING 8240
SWIDTH 1249 0
DWIDTH 10 0
BBX 10 5 0 0
BITMAP
748000
994000
76B5D0
05DA60
08B5D0
ENDCHAR
STARTCHAR uni2032
ENCODING 8242
SWIDTH 300 0
DWIDTH 2 0
BBX 2 2 0 3
BITMAP
70
60
ENDCHAR
STARTCHAR uni2033
ENCODING 8243
SWIDTH 537 0
DWIDTH 4 0
BBX 4 2 0 3
BITMAP
76
65
ENDCHAR
STARTCHAR uni2035
ENCODING 8245
SWIDTH 300 0
DWIDTH 2 0
BBX 2 2 0 3
BITMAP
60
60
ENDCHAR
STARTCHAR guilsinglleft
ENCODING 8249
SWIDTH 292 0
DWIDTH 2 0
BBX 2 3 0 1
BITMAP
20
90
20
ENDCHAR
STARTCHAR guilsinglright
ENCODING 8250
SWIDTH 292 0
DWIDTH 2 0
BBX 2 3 0 1
BITMAP
50
20
50
ENDCHAR
STARTCHAR uni203C
ENCODING 8252
SWIDTH 614 0
DWIDTH 5 0
BBX 4 6 0 0
BITMAP
12
73
33
23
00
63
ENDCHAR
STARTCHAR uni203D
ENCODING 8253
SWIDTH 480 0
DWIDTH 4 0
BBX 4 6 0 0
BITMAP
7C
49
29
24
00
24
ENDCHAR
STARTCHAR uni203E
ENCODING 8254
SWIDTH 500 0
DWIDTH 4 0
BBX 4 1 0 4
BITMAP
FF
ENDCHAR
STARTCHAR uni203F
ENCODING 8255
SWIDTH 0 0
DWIDTH 0 0
BBX 8 2 -4 -2
BITMAP
5005
1BE4
ENDCHAR
STARTCHAR fraction
ENCODING 8260
SWIDTH 96 0
DWIDTH 1 0
BBX 3 5 -1 0
BITMAP
08
14
20
90
80
ENDCHAR
STARTCHAR uni2047
ENCODING 8263
SWIDTH 873 0
DWIDTH 7 0
BBX 7 5 0 0
BITMAP
7DB4
0D24
2460
0000
2460
ENDCHAR
STARTCHAR uni2048
ENCODING 8264
SWIDTH 750 0
DWIDTH 6 0
BBX 6 6 0 0
BITMAP
0040
7CD0
0DC0
2480
0000
2490
ENDCHAR
STARTCHAR uni2049
ENCODING 8265
SWIDTH 750 0
DWIDTH 6 0
BBX 6 6 0 0
BITMAP
1000
72D0
30A0
2180
0000
6180
ENDCHAR
STARTCHAR zero.sups
ENCODING 8304
SWIDTH 376 0
DWIDTH 3 0
BBX 3 3 0 3
BITMAP
74
98
74
ENDCHAR
STARTCHAR i.sups
ENCODING 8305
SWIDTH 188 0
DWIDTH 2 0
BBX 2 5 0 3
BITMAP
80
00
90
90
90
ENDCHAR
STARTCHAR four.sups
ENCODING 8308
SWIDTH 376 0
DWIDTH 3 0
BBX 3 3 0 3
BITMAP
24
64
BC
ENDCHAR
STARTCHAR five.sups
ENCODING 8309
SWIDTH 376 0
DWIDTH 3 0
BBX 3 3 0 3
BITMAP
78
B4
74
ENDCHAR
STARTCHAR six.sups
ENCODING 8310
SWIDTH 376 0
DWIDTH 3 0
BBX 3 3 0 3
BITMAP
74
B8
74
ENDCHAR
STARTCHAR seven.sups
ENCODING 8311
SWIDTH 376 0
DWIDTH 3 0
BBX 3 3 0 3
BITMAP
B8
24
30
ENDCHAR
STARTCHAR eight.sups
ENCODING 8312
SWIDTH 376 0
DWIDTH 3 0
BBX 3 3 0 3
BITMAP
74
74
74
ENDCHAR
STARTCHAR nine.sups
ENCODING 8313
SWIDTH 376 0
DWIDTH 3 0
BBX 3 3 0 3
BITMAP
74
B8
74
ENDCHAR
STARTCHAR parenleft.sups
ENCODING 8317
SWIDTH 268 0
DWIDTH 2 0
BBX 2 5 0 2
BITMAP
20
50
50
50
20
ENDCHAR
STARTCHAR parenright.sups
ENCODING 8318
SWIDTH 268 0
DWIDTH 2 0
BBX 2 5 0 2
BITMAP
90
60
60
60
90
ENDCHAR
STARTCHAR n.sups
ENCODING 8319
SWIDTH 384 0
DWIDTH 3 0
BBX 3 3 0 3
BITMAP
A8
98
98
ENDCHAR
STARTCHAR zero.subs
ENCODING 8320
SWIDTH 376 0
DWIDTH 3 0
BBX 3 3 0 -1
BITMAP
74
98
74
ENDCHAR
STARTCHAR one.subs
ENCODING 8321
SWIDTH 376 0
DWIDTH 3 0
BBX 3 3 0 -1
BITMAP
74
24
24
ENDCHAR
STARTCHAR two.subs
ENCODING 8322
SWIDTH 376 0
DWIDTH 3 0
BBX 3 3 0 -1
BITMAP
74
64
B8
ENDCHAR
STARTCHAR three.subs
ENCODING 8323
SWIDTH 376 0
DWIDTH 3 0
BBX 3 3 0 -1
BITMAP
74
74
74
ENDCHAR
STARTCHAR four.subs
ENCODING 8324
SWIDTH 376 0
DWIDTH 3 0
BBX 3 3 0 -1
BITMAP
24
64
BC
ENDCHAR
STARTCHAR five.subs
ENCODING 8325
SWIDTH 376 0
DWIDTH 3 0
BBX 3 3 0 -1
BITMAP
78
B4
74
ENDCHAR
STARTCHAR six.subs
ENCODING 8326
SWIDTH 376 0
DWIDTH 3 0
BBX 3 3 0 -1
BITMAP
74
B8
74
ENDCHAR
STARTCHAR seven.subs
ENCODING 8327
SWIDTH 376 0
DWIDTH 3 0
BBX 3 3 0 -1
BITMAP
B8
24
30
ENDCHAR
STARTCHAR eight.subs
ENCODING 8328
SWIDTH 376 0
DWIDTH 3 0
BBX 3 3 0 -1
BITMAP
74
74
74
ENDCHAR
STARTCHAR nine.subs
ENCODING 8329
SWIDTH 376 0
DWIDTH 3 0
BBX 3 3 0 -1
BITMAP
74
B8
74
ENDCHAR
STARTCHAR parenleft.subs
ENCODING 8333
SWIDTH 268 0
DWIDTH 2 0
BBX 2 5 0 -2
BITMAP
20
50
50
50
20
ENDCHAR
STARTCHAR parenright.subs
ENCODING 8334
SWIDTH 268 0
DWIDTH 2 0
BBX 2 5 0 -2
BITMAP
90
60
60
60
90
ENDCHAR
STARTCHAR uni0259.sups
ENCODING 8340
SWIDTH 346 0
DWIDTH 3 0
BBX 3 3 0 3
BITMAP
74
F8
74
ENDCHAR
STARTCHAR colonmonetary
ENCODING 8353
SWIDTH 528 0
DWIDTH 4 0
BBX 4 7 0 -1
BITMAP
05
2E
79
A8
78
2E
14
ENDCHAR
STARTCHAR lira
ENCODING 8356
SWIDTH 528 0
DWIDTH 4 0
BBX 4 5 0 0
BITMAP
2E
BD
34
BD
BF
ENDCHAR
STARTCHAR uni20A6
ENCODING 8358
SWIDTH 528 0
DWIDTH 4 0
BBX 5 5 0 0
BITMAP
7600
FF40
6A00
FF40
5A00
ENDCHAR
STARTCHAR peseta
ENCODING 8359
SWIDTH 528 0
DWIDTH 4 0
BBX 4 5 0 0
BITMAP
7D
FF
7D
60
60
ENDCHAR
STARTCHAR uni20A9
ENCODING 8361
SWIDTH 528 0
DWIDTH 4 0
BBX 5 6 0 0
BITMAP
4100
DA00
AB00
FF40
AA00
7A00
ENDCHAR
STARTCHAR dong
ENCODING 8363
SWIDTH 528 0
DWIDTH 4 0
BBX 4 6 0 0
BITMAP
01
2F
2A
7E
29
7E
ENDCHAR
STARTCHAR Euro
ENCODING 8364
SWIDTH 528 0
DWIDTH 4 0
BBX 4 5 0 0
BITMAP
2E
B9
60
B9
2E
ENDCHAR
STARTCHAR uni20AE
ENCODING 8366
SWIDTH 528 0
DWIDTH 4 0
BBX 4 5 0 0
BITMAP
BF
1D
38
2D
38
ENDCHAR
STARTCHAR uni20B1
ENCODING 8369
SWIDTH 528 0
DWIDTH 4 0
BBX 4 5 0 0
BITMAP
7D
AA
AA
6D
74
ENDCHAR
STARTCHAR uni20B2
ENCODING 8370
SWIDTH 528 0
DWIDTH 4 0
BBX 4 7 0 -1
BITMAP
08
21
A0
9B
A3
26
08
ENDCHAR
STARTCHAR uni20B4
ENCODING 8372
SWIDTH 528 0
DWIDTH 4 0
BBX 4 5 0 0
BITMAP
7D
AE
3C
BA
3E
ENDCHAR
STARTCHAR uni20B5
ENCODING 8373
SWIDTH 528 0
DWIDTH 4 0
BBX 4 7 0 -1
BITMAP
04
2E
78
A8
78
2E
08
ENDCHAR
STARTCHAR uni20B8
ENCODING 8376
SWIDTH 528 0
DWIDTH 4 0
BBX 4 5 0 0
BITMAP
6A
6E
18
18
18
ENDCHAR
STARTCHAR uni20B9
ENCODING 8377
SWIDTH 528 0
DWIDTH 4 0
BBX 4 5 0 0
BITMAP
7D
1C
7E
1C
78
ENDCHAR
STARTCHAR uni20BA
ENCODING 8378
SWIDTH 528 0
DWIDTH 4 0
BBX 4 5 0 0
BITMAP
78
B0
79
B7
79
ENDCHAR
STARTCHAR uni20BD
ENCODING 8381
SWIDTH 528 0
DWIDTH 4 0
BBX 4 5 0 0
BITMAP
7D
B9
B8
60
60
ENDCHAR
STARTCHAR uni2113
ENCODING 8467
SWIDTH 470 0
DWIDTH 4 0
BBX 4 6 0 0
BITMAP
2D
36
39
78
B0
2D
ENDCHAR
STARTCHAR uni2116
ENCODING 8470
SWIDTH 967 0
DWIDTH 8 0
BBX 8 5 0 0
BITMAP
72AD
7A6D
6A40
6B6D
A340
ENDCHAR
STARTCHAR uni2117
ENCODING 8471
SWIDTH 750 0
DWIDTH 6 0
BBX 6 6 0 0
BITMAP
1F40
6090
8F60
8F60
6890
1F40
ENDCHAR
STARTCHAR uni2120
ENCODING 8480
SWIDTH 682 0
DWIDTH 5 0
BBX 6 2 0 3
BITMAP
B6D0
BA90
ENDCHAR
STARTCHAR trademark
ENCODING 8482
SWIDTH 682 0
DWIDTH 5 0
BBX 6 4 0 3
BITMAP
F400
D590
5690
5500
ENDCHAR
STARTCHAR uni2126
ENCODING 8486
SWIDTH 711 0
DWIDTH 6 0
BBX 6 5 0 0
BITMAP
2F40
71C0
60D0
3180
B6D0
ENDCHAR
STARTCHAR estimated
ENCODING 8494
SWIDTH 800 0
DWIDTH 6 0
BBX 6 5 0 0
BITMAP
1F80
6060
BFF0
6000
1F80
ENDCHAR
STARTCHAR uni2150
ENCODING 8528
SWIDTH 837 0
DWIDTH 7 0
BBX 7 5 0 0
BITMAP
7080
3200
35F4
0820
1460
ENDCHAR
STARTCHAR uni2151
ENCODING 8529
SWIDTH 837 0
DWIDTH 7 0
BBX 7 5 0 0
BITMAP
7080
3200
35B0
08B4
14B0
ENDCHAR
STARTCHAR uni2152
ENCODING 8530
SWIDTH 1155 0
DWIDTH 9 0
BBX 9 7 0 -1
BITMAP
004000
714000
320000
35A780
1829C0
142780
001000
ENDCHAR
STARTCHAR onethird
ENCODING 8531
SWIDTH 837 0
DWIDTH 7 0
BBX 7 5 0 0
BITMAP
7080
3200
35B0
0870
14B4
ENDCHAR
STARTCHAR twothirds
ENCODING 8532
SWIDTH 849 0
DWIDTH 7 0
BBX 7 5 0 0
BITMAP
7480
6540
BAB4
0574
08B4
ENDCHAR
STARTCHAR uni2155
ENCODING 8533
SWIDTH 837 0
DWIDTH 7 0
BBX 7 5 0 0
BITMAP
7080
3200
35B4
08F4
14B4
ENDCHAR
STARTCHAR uni2156
ENCODING 8534
SWIDTH 849 0
DWIDTH 7 0
BBX 7 5 0 0
BITMAP
7480
6540
BAB4
05B4
08B4
ENDCHAR
STARTCHAR uni2157
ENCODING 8535
SWIDTH 849 0
DWIDTH 7 0
BBX 7 5 0 0
BITMAP
7480
7540
7AB4
09B4
08B4
ENDCHAR
STARTCHAR uni2158
ENCODING 8536
SWIDTH 892 0
DWIDTH 7 0
BBX 7 5 0 0
BITMAP
2450
6480
BE78
0678
0878
ENDCHAR
STARTCHAR uni2159
ENCODING 8537
SWIDTH 837 0
DWIDTH 7 0
BBX 7 5 0 0
BITMAP
7080
3200
35B0
08F4
14B0
ENDCHAR
STARTCHAR uni215A
ENCODING 8538
SWIDTH 849 0
DWIDTH 7 0
BBX 7 5 0 0
BITMAP
7880
B540
76B4
09F4
08B4
ENDCHAR
STARTCHAR oneeighth
ENCODING 8539
SWIDTH 837 0
DWIDTH 7 0
BBX 7 5 0 0
BITMAP
7080
3200
35B0
08B0
14B4
ENDCHAR
STARTCHAR threeeighths
ENCODING 8540
SWIDTH 849 0
DWIDTH 7 0
BBX 7 5 0 0
BITMAP
7480
7540
7AB4
09B4
08B4
ENDCHAR
STARTCHAR fiveeighths
ENCODING 8541
SWIDTH 849 0
DWIDTH 7 0
BBX 7 5 0 0
BITMAP
7880
B540
76B4
09B4
08B4
ENDCHAR
STARTCHAR seveneighths
ENCODING 8542
SWIDTH 829 0
DWIDTH 7 0
BBX 7 5 0 0
BITMAP
B940
2600
25B0
08B0
14F4
ENDCHAR
STARTCHAR uni2189
ENCODING 8585
SWIDTH 849 0
DWIDTH 7 0
BBX 7 5 0 0
BITMAP
7480
9940
76B4
0974
08B4
ENDCHAR
STARTCHAR uni2190
ENCODING 8592
SWIDTH 617 0
DWIDTH 5 0
BBX 5 5 0 0
BITMAP
0400
2400
BF80
2400
0400
ENDCHAR
STARTCHAR arrowup
ENCODING 8593
SWIDTH 617 0
DWIDTH 5 0
BBX 5 4 0 0
BITMAP
1800
6E00
4D40
0C00
ENDCHAR
STARTCHAR uni2192
ENCODING 8594
SWIDTH 617 0
DWIDTH 5 0
BBX 5 5 0 0
BITMAP
0400
0600
BF80
0600
0400
ENDCHAR
STARTCHAR arrowdown
ENCODING 8595
SWIDTH 617 0
DWIDTH 5 0
BBX 5 4 0 0
BITMAP
0C00
4D40
6E00
1800
ENDCHAR
STARTCHAR partialdiff
ENCODING 8706
SWIDTH 577 0
DWIDTH 5 0
BBX 5 5 0 0
BITMAP
2E00
0300
7F40
A700
7D00
ENDCHAR
STARTCHAR uni2206
ENCODING 8710
SWIDTH 640 0
DWIDTH 5 0
BBX 5 5 0 0
BITMAP
1D00
2A00
3340
6280
BF80
ENDCHAR
STARTCHAR product
ENCODING 8719
SWIDTH 710 0
DWIDTH 6 0
BBX 5 6 0 -1
BITMAP
7FC0
60C0
60C0
60C0
60C0
60C0
ENDCHAR
STARTCHAR summation
ENCODING 8721
SWIDTH 534 0
DWIDTH 4 0
BBX 5 6 0 -1
BITMAP
BF00
7000
1800
2800
7000
BF40
ENDCHAR
STARTCHAR minus
ENCODING 8722
SWIDTH 528 0
DWIDTH 4 0
BBX 4 1 0 2
BITMAP
BF
ENDCHAR
STARTCHAR uni2215
ENCODING 8725
SWIDTH 96 0
DWIDTH 1 0
BBX 3 5 -1 0
BITMAP
08
14
20
90
80
ENDCHAR
STARTCHAR uni2219
ENCODING 8729
SWIDTH 529 0
DWIDTH 4 0
BBX 2 1 1 2
BITMAP
60
ENDCHAR
STARTCHAR radical
ENCODING 8730
SWIDTH 588 0
DWIDTH 5 0
BBX 5 7 0 -1
BITMAP
0080
0140
0200
6200
2600
1900
0C00
ENDCHAR
STARTCHAR infinity
ENCODING 8734
SWIDTH 814 0
DWIDTH 7 0
BBX 6 3 0 1
BITMAP
79E0
9B20
7AE0
ENDCHAR
STARTCHAR integral
ENCODING 8747
SWIDTH 390 0
DWIDTH 3 0
BBX 3 7 0 -1
BITMAP
28
30
30
30
24
34
A0
ENDCHAR
STARTCHAR approxequal
ENCODING 8776
SWIDTH 528 0
DWIDTH 4 0
BBX 4 4 0 0
BITMAP
76
5E
76
5E
ENDCHAR
STARTCHAR notequal
ENCODING 8800
SWIDTH 528 0
DWIDTH 4 0
BBX 4 5 0 0
BITMAP
06
BF
14
BF
50
ENDCHAR
STARTCHAR lessequal
ENCODING 8804
SWIDTH 528 0
DWIDTH 4 0
BBX 4 5 0 0
BITMAP
01
6E
B9
06
BF
ENDCHAR
STARTCHAR greaterequal
ENCODING 8805
SWIDTH 528 0
DWIDTH 4 0
BBX 4 5 0 0
BITMAP
40
69
6A
50
BF
ENDCHAR
STARTCHAR uni231C
ENCODING 8988
SWIDTH 344 0
DWIDTH 3 0
BBX 3 6 0 0
BITMAP
74
60
60
60
60
60
ENDCHAR
STARTCHAR uni231D
ENCODING 8989
SWIDTH 344 0
DWIDTH 3 0
BBX 2 6 0 0
BITMAP
B0
20
20
20
20
20
ENDCHAR
STARTCHAR uni231E
ENCODING 8990
SWIDTH 344 0
DWIDTH 3 0
BBX 3 6 0 -1
BITMAP
60
60
60
60
60
74
ENDCHAR
STARTCHAR uni231F
ENCODING 8991
SWIDTH 344 0
DWIDTH 3 0
BBX 2 6 0 -1
BITMAP
20
20
20
20
20
B0
ENDCHAR
STARTCHAR uni25A0
ENCODING 9632
SWIDTH 877 0
DWIDTH 7 0
BBX 7 6 0 0
BITMAP
BFF8
BFF8
BFF8
BFF8
BFF8
BFF8
ENDCHAR
STARTCHAR triagup
ENCODING 9650
SWIDTH 877 0
DWIDTH 7 0
BBX 7 6 0 0
BITMAP
0200
0740
0B80
1FD0
3FF0
7FF4
ENDCHAR
STARTCHAR uni25B3
ENCODING 9651
SWIDTH 877 0
DWIDTH 7 0
BBX 7 6 0 -1
BITMAP
0300
0640
0880
1450
2020
7FF4
ENDCHAR
STARTCHAR uni25B6
ENCODING 9654
SWIDTH 877 0
DWIDTH 7 0
BBX 7 6 0 0
BITMAP
9000
BD00
BFE0
BFE4
BE40
A400
ENDCHAR
STARTCHAR uni25B7
ENCODING 9655
SWIDTH 877 0
DWIDTH 7 0
BBX 7 6 0 0
BITMAP
9000
AD00
82E0
8064
9640
A400
ENDCHAR
STARTCHAR triagdn
ENCODING 9660
SWIDTH 877 0
DWIDTH 7 0
BBX 7 6 0 0
BITMAP
7FF4
3FF0
1FD0
0B80
0740
0200
ENDCHAR
STARTCHAR uni25BD
ENCODING 9661
SWIDTH 877 0
DWIDTH 7 0
BBX 7 6 0 0
BITMAP
7FF4
2020
1450
0880
0640
0300
ENDCHAR
STARTCHAR uni25C0
ENCODING 9664
SWIDTH 877 0
DWIDTH 7 0
BBX 7 6 0 0
BITMAP
0018
01F8
2FF8
6FF8
06F8
0068
ENDCHAR
STARTCHAR uni25C1
ENCODING 9665
SWIDTH 877 0
DWIDTH 7 0
BBX 7 6 0 0
BITMAP
0018
01E8
2E08
6408
0648
0068
ENDCHAR
STARTCHAR uni25C6
ENCODING 9670
SWIDTH 877 0
DWIDTH 7 0
BBX 7 7 0 -1
BITMAP
0200
0BC0
2FE0
BFF8
2FE0
0BC0
0200
ENDCHAR
STARTCHAR uni25C9
ENCODING 9673
SWIDTH 877 0
DWIDTH 7 0
BBX 7 7 0 -1
BITMAP
1B90
3674
9FD8
9FD8
9B98
3574
1B90
ENDCHAR
STARTCHAR lozenge
ENCODING 9674
SWIDTH 548 0
DWIDTH 4 0
BBX 4 5 0 0
BITMAP
2C
39
63
39
2C
ENDCHAR
STARTCHAR uni25CC
ENCODING 9676
SWIDTH 577 0
DWIDTH 5 0
BBX 5 4 0 0
BITMAP
2900
4100
C240
2900
ENDCHAR
STARTCHAR uni2610
ENCODING 9744
SWIDTH 807 0
DWIDTH 6 0
BBX 6 6 0 0
BITMAP
7FF0
4020
4020
4020
4020
7FE0
ENDCHAR
STARTCHAR uni2611
ENCODING 9745
SWIDTH 807 0
DWIDTH 6 0
BBX 7 7 0 0
BITMAP
0024
7FF0
40A0
55A0
4A20
4520
7FE0
ENDCHAR
STARTCHAR uni266A
ENCODING 9834
SWIDTH 544 0
DWIDTH 4 0
BBX 4 5 0 0
BITMAP
0D
0A
09
08
B4
ENDCHAR
STARTCHAR uni2713
ENCODING 10003
SWIDTH 647 0
DWIDTH 5 0
BBX 5 6 0 0
BITMAP
0080
0240
0600
8900
6800
3400
ENDCHAR
STARTCHAR uni2752
ENCODING 10066
SWIDTH 877 0
DWIDTH 7 0
BBX 7 7 0 -1
BITMAP
7FF8
8008
8008
8008
8008
8008
BFF4
ENDCHAR
STARTCHAR uni27E6
ENCODING 10214
SWIDTH 437 0
DWIDTH 4 0
BBX 3 7 0 -1
BITMAP
7C
64
64
64
64
64
7C
ENDCHAR
STARTCHAR uni27E7
ENCODING 10215
SWIDTH 437 0
DWIDTH 4 0
BBX 3 7 0 -1
BITMAP
B8
28
28
28
28
28
B8
ENDCHAR
STARTCHAR uni2E22
ENCODING 11810
SWIDTH 344 0
DWIDTH 3 0
BBX 3 4 0 2
BITMAP
74
60
60
50
ENDCHAR
STARTCHAR uni2E23
ENCODING 11811
SWIDTH 344 0
DWIDTH 3 0
BBX 2 4 0 2
BITMAP
B0
20
20
20
ENDCHAR
STARTCHAR uni2E24
ENCODING 11812
SWIDTH 344 0
DWIDTH 3 0
BBX 3 4 0 -1
BITMAP
50
60
60
74
ENDCHAR
STARTCHAR uni2E25
ENCODING 11813
SWIDTH 344 0
DWIDTH 3 0
BBX 2 4 0 -1
BITMAP
20
20
20
B0
ENDCHAR
STARTCHAR uni2E3A
ENCODING 11834
SWIDTH 1500 0
DWIDTH 12 0
BBX 12 1 0 2
BITMAP
BFFFFE
ENDCHAR
STARTCHAR uni2E3B
ENCODING 11835
SWIDTH 2200 0
DWIDTH 18 0
BBX 18 1 0 2
BITMAP
BFFFFFFFD0
ENDCHAR
STARTCHAR f_f
ENCODING 64256
SWIDTH 657 0
DWIDTH 5 0
BBX 6 6 0 0
BITMAP
2DD0
7280
BFC0
7240
7240
7240
ENDCHAR
STARTCHAR fi
ENCODING 64257
SWIDTH 635 0
DWIDTH 5 0
BBX 5 6 0 0
BITMAP
2E80
7000
BA80
7280
7280
7280
ENDCHAR
STARTCHAR fl
ENCODING 64258
SWIDTH 627 0
DWIDTH 5 0
BBX 5 6 0 0
BITMAP
2E40
7240
BA40
7240
7240
7280
ENDCHAR
STARTCHAR f_f_i
ENCODING 64259
SWIDTH 933 0
DWIDTH 7 0
BBX 7 6 0 0
BITMAP
2DEC
7280
BFDC
725C
725C
725C
ENDCHAR
STARTCHAR f_f_l
ENCODING 64260
SWIDTH 943 0
DWIDTH 8 0
BBX 8 6 0 0
BITMAP
2DEC
729C
BFDC
725C
725C
724D
ENDCHAR
STARTCHAR uniFEFF
ENCODING 65279
SWIDTH 0 0
DWIDTH 0 0
BBX 1 1 0 0
BITMAP
00
ENDCHAR
STARTCHAR u1F16A
ENCODING 127338
SWIDTH 682 0
DWIDTH 5 0
BBX 6 4 0 2
BITMAP
01D0
AE40
B9D0
4400
ENDCHAR
STARTCHAR u1F16B
ENCODING 127339
SWIDTH 719 0
DWIDTH 6 0
BBX 6 3 0 3
BITMAP
9ED0
AA60
AAD0
ENDCHAR
STARTCHAR .notdef
ENCODING -1
SWIDTH 690 0
DWIDTH 6 0
BBX 5 5 0 0
BITMAP
7FC0
6A80
5D80
6680
7FC0
ENDCHAR
STARTCHAR uni00470303
ENCODING -1
SWIDTH 638 0
DWIDTH 5 0
BBX 5 7 0 0
BITMAP
1E40
2600
2F40
7100
A780
7180
2F40
ENDCHAR
STARTCHAR uni00670303
ENCODING -1
SWIDTH 534 0
DWIDTH 4 0
BBX 4 9 0 -2
BITMAP
01
3A
69
7F
AA
7D
7E
97
7D
ENDCHAR
STARTCHAR iogonek.d
ENCODING -1
SWIDTH 276 0
DWIDTH 2 0
BBX 2 6 0 -2
BITMAP
60
60
60
60
50
60
ENDCHAR
STARTCHAR f_t
ENCODING -1
SWIDTH 688 0
DWIDTH 6 0
BBX 6 6 0 0
BITMAP
2E40
7240
BFD0
7340
7340
72D0
ENDCHAR
STARTCHAR f_f_t
ENCODING -1
SWIDTH 1004 0
DWIDTH 8 0
BBX 8 6 0 0
BITMAP
2DD0
7298
BFFE
7258
725C
724E
ENDCHAR
STARTCHAR I.a
ENCODING -1
SWIDTH 396 0
DWIDTH 3 0
BBX 3 5 0 0
BITMAP
B8
34
34
34
B8
ENDCHAR
STARTCHAR Igrave.a
ENCODING -1
SWIDTH 396 0
DWIDTH 3 0
BBX 3 7 0 0
BITMAP
90
60
B8
34
34
34
B8
ENDCHAR
STARTCHAR Iacute.a
ENCODING -1
SWIDTH 396 0
DWIDTH 3 0
BBX 3 7 0 0
BITMAP
18
24
B8
34
34
34
B8
ENDCHAR
STARTCHAR Icircumflex.a
ENCODING -1
SWIDTH 396 0
DWIDTH 3 0
BBX 3 6 0 0
BITMAP
68
B8
34
34
34
B8
ENDCHAR
STARTCHAR Itilde.a
ENCODING -1
SWIDTH 396 0
DWIDTH 3 0
BBX 3 8 0 0
BITMAP
04
A8
94
B8
34
34
34
B8
ENDCHAR
STARTCHAR Idieresis.a
ENCODING -1
SWIDTH 396 0
DWIDTH 3 0
BBX 3 7 0 0
BITMAP
88
00
B8
34
34
34
B8
ENDCHAR
STARTCHAR Imacron.a
ENCODING -1
SWIDTH 396 0
DWIDTH 3 0
BBX 3 7 0 0
BITMAP
B8
00
B8
34
34
34
B8
ENDCHAR
STARTCHAR Idotaccent.a
ENCODING -1
SWIDTH 396 0
DWIDTH 3 0
BBX 3 7 0 0
BITMAP
30
00
B8
34
34
34
B8
ENDCHAR
STARTCHAR uni01CF.a
ENCODING -1
SWIDTH 396 0
DWIDTH 3 0
BBX 3 7 0 0
BITMAP
68
00
B8
34
34
34
B8
ENDCHAR
STARTCHAR uni1EC8.a
ENCODING -1
SWIDTH 396 0
DWIDTH 3 0
BBX 3 7 0 0
BITMAP
30
24
B8
34
34
34
B8
ENDCHAR
STARTCHAR uni1ECA.a
ENCODING -1
SWIDTH 396 0
DWIDTH 3 0
BBX 3 6 0 -1
BITMAP
B8
34
34
34
B8
20
ENDCHAR
STARTCHAR Iogonek.a
ENCODING -1
SWIDTH 396 0
DWIDTH 3 0
BBX 3 7 0 -2
BITMAP
B8
34
34
34
B8
20
34
ENDCHAR
STARTCHAR uni012C.a
ENCODING -1
SWIDTH 396 0
DWIDTH 3 0
BBX 3 7 0 0
BITMAP
88
74
B8
34
34
34
B8
ENDCHAR
STARTCHAR uni014A.a
ENCODING -1
SWIDTH 665 0
DWIDTH 5 0
BBX 5 6 0 -1
BITMAP
7180
7980
6E80
6780
6280
0740
ENDCHAR
STARTCHAR a.a
ENCODING -1
SWIDTH 573 0
DWIDTH 5 0
BBX 4 4 0 0
BITMAP
3F
A7
A7
7B
ENDCHAR
STARTCHAR agrave.a
ENCODING -1
SWIDTH 573 0
DWIDTH 5 0
BBX 4 7 0 0
BITMAP
20
18
00
3F
A7
A7
7B
ENDCHAR
STARTCHAR aacute.a
ENCODING -1
SWIDTH 573 0
DWIDTH 5 0
BBX 4 7 0 0
BITMAP
06
09
00
3F
A7
A7
7B
ENDCHAR
STARTCHAR acircumflex.a
ENCODING -1
SWIDTH 573 0
DWIDTH 5 0
BBX 4 6 0 0
BITMAP
29
00
3F
A7
A7
7B
ENDCHAR
STARTCHAR atilde.a
ENCODING -1
SWIDTH 573 0
DWIDTH 5 0
BBX 4 7 0 0
BITMAP
01
2A
25
3F
A7
A7
7B
ENDCHAR
STARTCHAR adieresis.a
ENCODING -1
SWIDTH 573 0
DWIDTH 5 0
BBX 4 6 0 0
BITMAP
26
00
3F
A7
A7
7B
ENDCHAR
STARTCHAR amacron.a
ENCODING -1
SWIDTH 573 0
DWIDTH 5 0
BBX 4 6 0 0
BITMAP
2E
00
3F
A7
A7
7B
ENDCHAR
STARTCHAR abreve.a
ENCODING -1
SWIDTH 573 0
DWIDTH 5 0
BBX 4 6 0 0
BITMAP
26
1D
3F
A7
A7
7B
ENDCHAR
STARTCHAR aring.a
ENCODING -1
SWIDTH 573 0
DWIDTH 5 0
BBX 4 6 0 0
BITMAP
1D
1D
3F
A7
A7
7B
ENDCHAR
STARTCHAR uni01CE.a
ENCODING -1
SWIDTH 573 0
DWIDTH 5 0
BBX 4 6 0 0
BITMAP
29
00
3F
A7
A7
7B
ENDCHAR
STARTCHAR uni1EA1.a
ENCODING -1
SWIDTH 573 0
DWIDTH 5 0
BBX 4 5 0 -1
BITMAP
3F
A7
A7
7B
08
ENDCHAR
STARTCHAR uni1EA3.a
ENCODING -1
SWIDTH 573 0
DWIDTH 5 0
BBX 4 6 0 0
BITMAP
18
08
3F
A7
A7
7B
ENDCHAR
STARTCHAR uni1EA5.a
ENCODING -1
SWIDTH 573 0
DWIDTH 5 0
BBX 5 6 0 0
BITMAP
1D40
2500
3F00
A700
A700
7B00
ENDCHAR
STARTCHAR uni1EA7.a
ENCODING -1
SWIDTH 573 0
DWIDTH 5 0
BBX 4 6 0 0
BITMAP
5C
25
3F
A7
A7
7B
ENDCHAR
STARTCHAR uni1EA9.a
ENCODING -1
SWIDTH 573 0
DWIDTH 5 0
BBX 5 8 0 0
BITMAP
0240
0140
1E00
2500
3F00
A700
A700
7B00
ENDCHAR
STARTCHAR uni1EAB.a
ENCODING -1
SWIDTH 573 0
DWIDTH 5 0
BBX 4 9 0 0
BITMAP
16
29
00
1C
25
3F
A7
A7
7B
ENDCHAR
STARTCHAR uni1EAD.a
ENCODING -1
SWIDTH 573 0
DWIDTH 5 0
BBX 4 7 0 -1
BITMAP
29
00
3F
A7
A7
7B
08
ENDCHAR
STARTCHAR uni1EAF.a
ENCODING -1
SWIDTH 573 0
DWIDTH 5 0
BBX 4 7 0 0
BITMAP
08
22
1D
3F
A7
A7
7B
ENDCHAR
STARTCHAR uni1EB1.a
ENCODING -1
SWIDTH 573 0
DWIDTH 5 0
BBX 4 7 0 0
BITMAP
14
22
1D
3F
A7
A7
7B
ENDCHAR
STARTCHAR uni1EB3.a
ENCODING -1
SWIDTH 573 0
DWIDTH 5 0
BBX 4 9 0 0
BITMAP
18
08
08
22
1D
3F
A7
A7
7B
ENDCHAR
STARTCHAR uni1EB5.a
ENCODING -1
SWIDTH 573 0
DWIDTH 5 0
BBX 4 9 0 0
BITMAP
16
29
10
26
1D
3F
A7
A7
7B
ENDCHAR
STARTCHAR uni1EB7.a
ENCODING -1
SWIDTH 573 0
DWIDTH 5 0
BBX 4 7 0 -1
BITMAP
26
1D
3F
A7
A7
7B
08
ENDCHAR
STARTCHAR aogonek.a
ENCODING -1
SWIDTH 573 0
DWIDTH 5 0
BBX 4 6 0 -2
BITMAP
3F
A7
A7
7B
06
07
ENDCHAR
STARTCHAR g.a
ENCODING -1
SWIDTH 583 0
DWIDTH 5 0
BBX 4 6 0 -2
BITMAP
2F
A7
A7
3F
07
7E
ENDCHAR
STARTCHAR uni01F5.a
ENCODING -1
SWIDTH 583 0
DWIDTH 5 0
BBX 4 9 0 -2
BITMAP
06
09
00
2F
A7
A7
3F
07
7E
ENDCHAR
STARTCHAR gcircumflex.a
ENCODING -1
SWIDTH 583 0
DWIDTH 5 0
BBX 4 8 0 -2
BITMAP
29
00
2F
A7
A7
3F
07
7E
ENDCHAR
STARTCHAR gbreve.a
ENCODING -1
SWIDTH 583 0
DWIDTH 5 0
BBX 4 8 0 -2
BITMAP
22
1D
2F
A7
A7
3F
07
7E
ENDCHAR
STARTCHAR gdotaccent.a
ENCODING -1
SWIDTH 583 0
DWIDTH 5 0
BBX 4 8 0 -2
BITMAP
08
00
2F
A7
A7
3F
07
7E
ENDCHAR
STARTCHAR uni0123.a
ENCODING -1
SWIDTH 583 0
DWIDTH 5 0
BBX 4 9 0 -2
BITMAP
09
18
08
2F
A7
A7
3F
07
7E
ENDCHAR
STARTCHAR gcaron.a
ENCODING -1
SWIDTH 583 0
DWIDTH 5 0
BBX 4 8 0 -2
BITMAP
29
00
2F
A7
A7
3F
07
7E
ENDCHAR
STARTCHAR uni1E21.a
ENCODING -1
SWIDTH 583 0
DWIDTH 5 0
BBX 4 8 0 -2
BITMAP
2E
00
2F
A7
A7
3F
07
7E
ENDCHAR
STARTCHAR uni00670303.a
ENCODING -1
SWIDTH 583 0
DWIDTH 5 0
BBX 4 9 0 -2
BITMAP
01
2A
25
2F
A7
A7
3F
07
7E
ENDCHAR
STARTCHAR l.a
ENCODING -1
SWIDTH 276 0
DWIDTH 2 0
BBX 2 6 0 0
BITMAP
60
60
60
60
60
60
ENDCHAR
STARTCHAR lacute.a
ENCODING -1
SWIDTH 276 0
DWIDTH 2 0
BBX 3 7 0 0
BITMAP
24
B0
60
60
60
60
60
ENDCHAR
STARTCHAR lcaron.a
ENCODING -1
SWIDTH 318 0
DWIDTH 3 0
BBX 3 6 0 0
BITMAP
68
60
60
60
60
60
ENDCHAR
STARTCHAR ldot.a
ENCODING -1
SWIDTH 453 0
DWIDTH 4 0
BBX 4 6 0 0
BITMAP
60
60
60
69
60
60
ENDCHAR
STARTCHAR uni013C.a
ENCODING -1
SWIDTH 276 0
DWIDTH 2 0
BBX 2 9 0 -3
BITMAP
60
60
60
60
60
60
60
20
90
ENDCHAR
STARTCHAR uni1E37.a
ENCODING -1
SWIDTH 276 0
DWIDTH 2 0
BBX 2 7 0 -1
BITMAP
60
60
60
60
60
60
60
ENDCHAR
STARTCHAR uni1E39.a
ENCODING -1
SWIDTH 276 0
DWIDTH 2 0
BBX 3 9 0 -1
BITMAP
F4
00
60
60
60
60
60
60
60
ENDCHAR
STARTCHAR uni1E3B.a
ENCODING -1
SWIDTH 276 0
DWIDTH 2 0
BBX 3 7 0 -1
BITMAP
60
60
60
60
60
60
F4
ENDCHAR
STARTCHAR lslash.a
ENCODING -1
SWIDTH 299 0
DWIDTH 2 0
BBX 3 6 0 0
BITMAP
60
60
74
F0
60
60
ENDCHAR
STARTCHAR fl.a
ENCODING -1
SWIDTH 635 0
DWIDTH 5 0
BBX 5 6 0 0
BITMAP
2E80
7280
BA80
7280
7280
7280
ENDCHAR
STARTCHAR anoteleia.cap
ENCODING -1
SWIDTH 300 0
DWIDTH 2 0
BBX 2 1 0 4
BITMAP
60
ENDCHAR
STARTCHAR tonos.cap
ENCODING -1
SWIDTH 119 0
DWIDTH 1 0
BBX 1 2 0 3
BITMAP
C0
80
ENDCHAR
STARTCHAR uni1FBD.cap
ENCODING -1
SWIDTH 164 0
DWIDTH 1 0
BBX 2 2 0 3
BITMAP
C0
90
ENDCHAR
STARTCHAR uni1FFE.cap
ENCODING -1
SWIDTH 161 0
DWIDTH 1 0
BBX 2 2 0 3
BITMAP
90
C0
ENDCHAR
STARTCHAR uni1FEF.cap
ENCODING -1
SWIDTH 119 0
DWIDTH 1 0
BBX 1 1 0 4
BITMAP
80
ENDCHAR
STARTCHAR uni1FCD.cap
ENCODING -1
SWIDTH 326 0
DWIDTH 3 0
BBX 3 1 0 4
BITMAP
D8
ENDCHAR
STARTCHAR uni1FDD.cap
ENCODING -1
SWIDTH 325 0
DWIDTH 3 0
BBX 3 2 0 3
BITMAP
98
80
ENDCHAR
STARTCHAR uni1FCE.cap
ENCODING -1
SWIDTH 326 0
DWIDTH 3 0
BBX 3 2 0 3
BITMAP
D8
14
ENDCHAR
STARTCHAR uni1FDE.cap
ENCODING -1
SWIDTH 317 0
DWIDTH 3 0
BBX 3 2 0 3
BITMAP
A8
94
ENDCHAR
STARTCHAR uni1FCF.cap
ENCODING -1
SWIDTH 223 0
DWIDTH 2 0
BBX 2 2 0 3
BITMAP
F0
50
ENDCHAR
STARTCHAR uni1FDF.cap
ENCODING -1
SWIDTH 223 0
DWIDTH 2 0
BBX 2 2 0 3
BITMAP
F0
40
ENDCHAR
STARTCHAR uni0407.a
ENCODING -1
SWIDTH 301 0
DWIDTH 2 0
BBX 3 7 0 0
BITMAP
A4
00
60
60
60
60
60
ENDCHAR
STARTCHAR uni0457.a
ENCODING -1
SWIDTH 299 0
DWIDTH 2 0
BBX 3 6 0 0
BITMAP
A4
00
60
60
60
60
ENDCHAR
STARTCHAR uni0431.srb
ENCODING -1
SWIDTH 546 0
DWIDTH 4 0
BBX 4 6 0 0
BITMAP
2F
34
2D
A7
A7
7D
ENDCHAR
STARTCHAR zero.0
ENCODING -1
SWIDTH 528 0
DWIDTH 4 0
BBX 4 5 0 0
BITMAP
3D
A6
AB
A6
3D
ENDCHAR
STARTCHAR zero.0s
ENCODING -1
SWIDTH 528 0
DWIDTH 4 0
BBX 4 5 0 0
BITMAP
3D
A6
AB
AA
3D
ENDCHAR
STARTCHAR zero.pnum
ENCODING -1
SWIDTH 580 0
DWIDTH 5 0
BBX 5 5 0 0
BITMAP
2D00
6300
A340
6300
2D00
ENDCHAR
STARTCHAR one.pnum
ENCODING -1
SWIDTH 410 0
DWIDTH 3 0
BBX 3 5 0 0
BITMAP
34
B4
24
24
24
ENDCHAR
STARTCHAR two.pnum
ENCODING -1
SWIDTH 526 0
DWIDTH 4 0
BBX 4 5 0 0
BITMAP
7D
4A
0D
38
BE
ENDCHAR
STARTCHAR three.pnum
ENCODING -1
SWIDTH 528 0
DWIDTH 4 0
BBX 4 5 0 0
BITMAP
7D
0A
2D
4A
7D
ENDCHAR
STARTCHAR four.pnum
ENCODING -1
SWIDTH 560 0
DWIDTH 4 0
BBX 5 5 0 0
BITMAP
1E00
2A00
6600
BF40
0A00
ENDCHAR
STARTCHAR five.pnum
ENCODING -1
SWIDTH 528 0
DWIDTH 4 0
BBX 4 5 0 0
BITMAP
7E
60
7D
5A
7D
ENDCHAR
STARTCHAR six.pnum
ENCODING -1
SWIDTH 562 0
DWIDTH 5 0
BBX 4 5 0 0
BITMAP
2E
60
7E
67
2E
ENDCHAR
STARTCHAR seven.pnum
ENCODING -1
SWIDTH 516 0
DWIDTH 4 0
BBX 4 5 0 0
BITMAP
BE
09
18
28
24
ENDCHAR
STARTCHAR eight.pnum
ENCODING -1
SWIDTH 549 0
DWIDTH 4 0
BBX 4 5 0 0
BITMAP
3D
7A
3D
A7
7D
ENDCHAR
STARTCHAR nine.pnum
ENCODING -1
SWIDTH 562 0
DWIDTH 5 0
BBX 4 5 0 0
BITMAP
7D
A7
7F
06
7D
ENDCHAR
STARTCHAR zero.0p
ENCODING -1
SWIDTH 580 0
DWIDTH 5 0
BBX 5 5 0 0
BITMAP
2D00
6300
AB40
6300
2D00
ENDCHAR
STARTCHAR zero.0ps
ENCODING -1
SWIDTH 580 0
DWIDTH 5 0
BBX 5 5 0 0
BITMAP
2D00
7700
AB40
6700
2D00
ENDCHAR
STARTCHAR zero.tnum
ENCODING -1
SWIDTH 528 0
DWIDTH 4 0
BBX 4 5 0 0
BITMAP
2D
A6
97
A6
2D
ENDCHAR
STARTCHAR one.tnum
ENCODING -1
SWIDTH 528 0
DWIDTH 4 0
BBX 4 5 0 0
BITMAP
2C
7C
1C
1C
7E
ENDCHAR
STARTCHAR two.tnum
ENCODING -1
SWIDTH 528 0
DWIDTH 4 0
BBX 4 5 0 0
BITMAP
7C
4A
0D
78
BF
ENDCHAR
STARTCHAR three.tnum
ENCODING -1
SWIDTH 528 0
DWIDTH 4 0
BBX 4 6 0 -1
BITMAP
7D
0A
2C
0A
4A
7D
ENDCHAR
STARTCHAR four.tnum
ENCODING -1
SWIDTH 528 0
DWIDTH 4 0
BBX 4 6 0 -1
BITMAP
1D
39
69
FF
09
04
ENDCHAR
STARTCHAR five.tnum
ENCODING -1
SWIDTH 528 0
DWIDTH 4 0
BBX 4 6 0 -1
BITMAP
7E
60
7D
0A
4A
7D
ENDCHAR
STARTCHAR six.tnum
ENCODING -1
SWIDTH 528 0
DWIDTH 4 0
BBX 4 5 0 0
BITMAP
2E
60
BE
A7
2D
ENDCHAR
STARTCHAR seven.tnum
ENCODING -1
SWIDTH 528 0
DWIDTH 4 0
BBX 4 6 0 -1
BITMAP
BF
09
1C
18
28
10
ENDCHAR
STARTCHAR eight.tnum
ENCODING -1
SWIDTH 528 0
DWIDTH 4 0
BBX 4 5 0 0
BITMAP
7D
6A
3D
97
7D
ENDCHAR
STARTCHAR nine.tnum
ENCODING -1
SWIDTH 528 0
DWIDTH 4 0
BBX 4 6 0 -1
BITMAP
7C
96
97
7B
0A
78
ENDCHAR
STARTCHAR zero.onum
ENCODING -1
SWIDTH 545 0
DWIDTH 4 0
BBX 4 5 0 0
BITMAP
2D
66
93
66
2D
ENDCHAR
STARTCHAR one.onum
ENCODING -1
SWIDTH 410 0
DWIDTH 3 0
BBX 3 5 0 0
BITMAP
34
B4
24
24
24
ENDCHAR
STARTCHAR two.onum
ENCODING -1
SWIDTH 518 0
DWIDTH 4 0
BBX 4 5 0 0
BITMAP
7C
49
0D
38
BE
ENDCHAR
STARTCHAR three.onum
ENCODING -1
SWIDTH 528 0
DWIDTH 4 0
BBX 4 6 0 -1
BITMAP
7D
0A
2C
0A
4A
7D
ENDCHAR
STARTCHAR four.onum
ENCODING -1
SWIDTH 545 0
DWIDTH 4 0
BBX 4 5 0 0
BITMAP
1E
2A
6A
BF
0A
ENDCHAR
STARTCHAR five.onum
ENCODING -1
SWIDTH 528 0
DWIDTH 4 0
BBX 4 6 0 -1
BITMAP
7E
60
7D
0A
4A
7D
ENDCHAR
STARTCHAR six.onum
ENCODING -1
SWIDTH 545 0
DWIDTH 4 0
BBX 4 5 0 0
BITMAP
2E
60
BE
67
2D
ENDCHAR
STARTCHAR seven.onum
ENCODING -1
SWIDTH 516 0
DWIDTH 4 0
BBX 4 6 0 -1
BITMAP
BE
09
18
28
24
10
ENDCHAR
STARTCHAR eight.onum
ENCODING -1
SWIDTH 547 0
DWIDTH 4 0
BBX 4 5 0 0
BITMAP
3D
7A
3D
A7
7D
ENDCHAR
STARTCHAR nine.onum
ENCODING -1
SWIDTH 545 0
DWIDTH 4 0
BBX 4 6 0 -1
BITMAP
7D
A6
97
7B
06
78
ENDCHAR
STARTCHAR at.case
ENCODING -1
SWIDTH 830 0
DWIDTH 7 0
BBX 7 6 0 0
BITMAP
1B90
3460
5BA4
9E60
6EE0
2F40
ENDCHAR
STARTCHAR i.trk
ENCODING -1
SWIDTH 276 0
DWIDTH 2 0
BBX 2 6 0 0
BITMAP
60
00
60
60
60
60
ENDCHAR
STARTCHAR A.sc
ENCODING -1
SWIDTH 503 0
DWIDTH 4 0
BBX 4 4 0 0
BITMAP
3C
69
BE
D7
ENDCHAR
STARTCHAR B.sc
ENCODING -1
SWIDTH 546 0
DWIDTH 4 0
BBX 4 4 0 0
BITMAP
7E
7E
67
7E
ENDCHAR
STARTCHAR C.sc
ENCODING -1
SWIDTH 520 0
DWIDTH 4 0
BBX 4 4 0 0
BITMAP
2E
A0
A0
2E
ENDCHAR
STARTCHAR D.sc
ENCODING -1
SWIDTH 580 0
DWIDTH 5 0
BBX 5 4 0 0
BITMAP
7E00
6740
6700
7E00
ENDCHAR
STARTCHAR E.sc
ENCODING -1
SWIDTH 499 0
DWIDTH 4 0
BBX 4 4 0 0
BITMAP
7D
7D
60
7E
ENDCHAR
STARTCHAR F.sc
ENCODING -1
SWIDTH 476 0
DWIDTH 4 0
BBX 4 4 0 0
BITMAP
7E
60
7D
60
ENDCHAR
STARTCHAR G.sc
ENCODING -1
SWIDTH 576 0
DWIDTH 5 0
BBX 4 4 0 0
BITMAP
2E
A0
AB
2F
ENDCHAR
STARTCHAR H.sc
ENCODING -1
SWIDTH 621 0
DWIDTH 5 0
BBX 5 4 0 0
BITMAP
6240
7F40
6240
6240
ENDCHAR
STARTCHAR I.sc
ENCODING -1
SWIDTH 301 0
DWIDTH 2 0
BBX 2 4 0 0
BITMAP
60
60
60
60
ENDCHAR
STARTCHAR J.sc
ENCODING -1
SWIDTH 470 0
DWIDTH 4 0
BBX 4 4 0 0
BITMAP
0D
0D
0C
78
ENDCHAR
STARTCHAR K.sc
ENCODING -1
SWIDTH 555 0
DWIDTH 4 0
BBX 5 4 0 0
BITMAP
6600
7C00
7900
6340
ENDCHAR
STARTCHAR L.sc
ENCODING -1
SWIDTH 471 0
DWIDTH 4 0
BBX 4 4 0 0
BITMAP
60
60
60
7D
ENDCHAR
STARTCHAR M.sc
ENCODING -1
SWIDTH 685 0
DWIDTH 5 0
BBX 5 4 0 0
BITMAP
72C0
76C0
6EC0
65C0
ENDCHAR
STARTCHAR N.sc
ENCODING -1
SWIDTH 606 0
DWIDTH 5 0
BBX 5 4 0 0
BITMAP
7340
7A40
6B40
6740
ENDCHAR
STARTCHAR O.sc
ENCODING -1
SWIDTH 616 0
DWIDTH 5 0
BBX 5 4 0 0
BITMAP
2E00
A240
A240
2E00
ENDCHAR
STARTCHAR P.sc
ENCODING -1
SWIDTH 551 0
DWIDTH 4 0
BBX 4 4 0 0
BITMAP
7E
67
7E
60
ENDCHAR
STARTCHAR Q.sc
ENCODING -1
SWIDTH 614 0
DWIDTH 5 0
BBX 5 6 0 -2
BITMAP
2E00
A240
A340
3E00
0D00
0780
ENDCHAR
STARTCHAR R.sc
ENCODING -1
SWIDTH 561 0
DWIDTH 4 0
BBX 4 4 0 0
BITMAP
7E
67
7E
67
ENDCHAR
STARTCHAR S.sc
ENCODING -1
SWIDTH 504 0
DWIDTH 4 0
BBX 4 4 0 0
BITMAP
7D
74
1A
7D
ENDCHAR
STARTCHAR T.sc
ENCODING -1
SWIDTH 491 0
DWIDTH 4 0
BBX 4 4 0 0
BITMAP
BE
28
28
28
ENDCHAR
STARTCHAR U.sc
ENCODING -1
SWIDTH 607 0
DWIDTH 5 0
BBX 5 4 0 0
BITMAP
6340
6340
7340
2E00
ENDCHAR
STARTCHAR V.sc
ENCODING -1
SWIDTH 491 0
DWIDTH 4 0
BBX 4 4 0 0
BITMAP
D6
A9
7C
38
ENDCHAR
STARTCHAR W.sc
ENCODING -1
SWIDTH 717 0
DWIDTH 6 0
BBX 6 4 0 0
BITMAP
9AA0
AE90
6BC0
76C0
ENDCHAR
STARTCHAR X.sc
ENCODING -1
SWIDTH 509 0
DWIDTH 4 0
BBX 4 4 0 0
BITMAP
AA
3C
3C
AA
ENDCHAR
STARTCHAR Y.sc
ENCODING -1
SWIDTH 467 0
DWIDTH 4 0
BBX 4 4 0 0
BITMAP
9A
6C
28
24
ENDCHAR
STARTCHAR Z.sc
ENCODING -1
SWIDTH 481 0
DWIDTH 4 0
BBX 4 4 0 0
BITMAP
BE
1C
74
BE
ENDCHAR
STARTCHAR Agrave.sc
ENCODING -1
SWIDTH 503 0
DWIDTH 4 0
BBX 4 6 0 0
BITMAP
20
24
3C
69
BE
D7
ENDCHAR
STARTCHAR Aacute.sc
ENCODING -1
SWIDTH 503 0
DWIDTH 4 0
BBX 4 6 0 0
BITMAP
08
18
3C
69
BE
D7
ENDCHAR
STARTCHAR Acircumflex.sc
ENCODING -1
SWIDTH 503 0
DWIDTH 4 0
BBX 4 5 0 0
BITMAP
28
3C
69
BE
D7
ENDCHAR
STARTCHAR Atilde.sc
ENCODING -1
SWIDTH 503 0
DWIDTH 4 0
BBX 4 6 0 0
BITMAP
79
98
3C
69
BE
D7
ENDCHAR
STARTCHAR Adieresis.sc
ENCODING -1
SWIDTH 503 0
DWIDTH 4 0
BBX 4 6 0 0
BITMAP
59
00
3C
69
BE
D7
ENDCHAR
STARTCHAR Amacron.sc
ENCODING -1
SWIDTH 503 0
DWIDTH 4 0
BBX 4 6 0 0
BITMAP
7D
00
3C
69
BE
D7
ENDCHAR
STARTCHAR Abreve.sc
ENCODING -1
SWIDTH 503 0
DWIDTH 4 0
BBX 4 6 0 0
BITMAP
59
28
3C
69
BE
D7
ENDCHAR
STARTCHAR Aring.sc
ENCODING -1
SWIDTH 503 0
DWIDTH 4 0
BBX 4 6 0 0
BITMAP
28
28
3C
69
BE
D7
ENDCHAR
STARTCHAR uni01CD.sc
ENCODING -1
SWIDTH 503 0
DWIDTH 4 0
BBX 4 6 0 0
BITMAP
28
00
3C
69
BE
D7
ENDCHAR
STARTCHAR uni1EA0.sc
ENCODING -1
SWIDTH 503 0
DWIDTH 4 0
BBX 4 5 0 -1
BITMAP
3C
69
BE
D7
14
ENDCHAR
STARTCHAR uni1EA2.sc
ENCODING -1
SWIDTH 503 0
DWIDTH 4 0
BBX 4 6 0 0
BITMAP
24
18
3C
69
BE
D7
ENDCHAR
STARTCHAR uni1EA4.sc
ENCODING -1
SWIDTH 503 0
DWIDTH 4 0
BBX 4 6 0 0
BITMAP
2A
28
3C
69
BE
D7
ENDCHAR
STARTCHAR uni1EA6.sc
ENCODING -1
SWIDTH 503 0
DWIDTH 4 0
BBX 4 6 0 0
BITMAP
A8
28
3C
69
BE
D7
ENDCHAR
STARTCHAR uni1EA8.sc
ENCODING -1
SWIDTH 503 0
DWIDTH 4 0
BBX 4 8 0 0
BITMAP
06
03
2A
28
3C
69
BE
D7
ENDCHAR
STARTCHAR uni1EAA.sc
ENCODING -1
SWIDTH 503 0
DWIDTH 4 0
BBX 4 9 0 0
BITMAP
24
6C
00
28
28
3C
69
BE
D7
ENDCHAR
STARTCHAR uni1EAC.sc
ENCODING -1
SWIDTH 503 0
DWIDTH 4 0
BBX 4 6 0 -1
BITMAP
28
3C
69
BE
D7
14
ENDCHAR
STARTCHAR uni1EAE.sc
ENCODING -1
SWIDTH 503 0
DWIDTH 4 0
BBX 4 7 0 0
BITMAP
18
59
28
3C
69
BE
D7
ENDCHAR
STARTCHAR uni1EB0.sc
ENCODING -1
SWIDTH 503 0
DWIDTH 4 0
BBX 4 7 0 0
BITMAP
20
59
28
3C
69
BE
D7
ENDCHAR
STARTCHAR uni1EB2.sc
ENCODING -1
SWIDTH 503 0
DWIDTH 4 0
BBX 4 9 0 0
BITMAP
24
18
14
59
28
3C
69
BE
D7
ENDCHAR
STARTCHAR uni1EB4.sc
ENCODING -1
SWIDTH 503 0
DWIDTH 4 0
BBX 4 9 0 0
BITMAP
24
6C
00
58
28
3C
69
BE
D7
ENDCHAR
STARTCHAR uni1EB6.sc
ENCODING -1
SWIDTH 503 0
DWIDTH 4 0
BBX 4 7 0 -1
BITMAP
59
28
3C
69
BE
D7
14
ENDCHAR
STARTCHAR Aogonek.sc
ENCODING -1
SWIDTH 503 0
DWIDTH 4 0
BBX 4 6 0 -2
BITMAP
3C
69
BE
D7
06
07
ENDCHAR
STARTCHAR AE.sc
ENCODING -1
SWIDTH 741 0
DWIDTH 6 0
BBX 6 4 0 0
BITMAP
1FD0
2B80
7B40
EBE0
ENDCHAR
STARTCHAR uni01FC.sc
ENCODING -1
SWIDTH 741 0
DWIDTH 6 0
BBX 6 6 0 0
BITMAP
0180
0240
1FD0
2B80
7B40
EBE0
ENDCHAR
STARTCHAR uni01E2.sc
ENCODING -1
SWIDTH 741 0
DWIDTH 6 0
BBX 6 6 0 0
BITMAP
0B80
0000
1FD0
2B80
7B40
EBE0
ENDCHAR
STARTCHAR uni0243.sc
ENCODING -1
SWIDTH 570 0
DWIDTH 5 0
BBX 5 4 0 0
BITMAP
7E00
7E00
BB40
7E00
ENDCHAR
STARTCHAR uni1E06.sc
ENCODING -1
SWIDTH 546 0
DWIDTH 4 0
BBX 4 5 0 -1
BITMAP
7E
7E
67
7E
2E
ENDCHAR
STARTCHAR Ccedilla.sc
ENCODING -1
SWIDTH 520 0
DWIDTH 4 0
BBX 4 7 0 -3
BITMAP
2E
A0
A0
2E
0C
09
18
ENDCHAR
STARTCHAR Cacute.sc
ENCODING -1
SWIDTH 520 0
DWIDTH 4 0
BBX 4 6 0 0
BITMAP
06
09
2E
A0
A0
2E
ENDCHAR
STARTCHAR Ccircumflex.sc
ENCODING -1
SWIDTH 520 0
DWIDTH 4 0
BBX 4 5 0 0
BITMAP
29
2E
A0
A0
2E
ENDCHAR
STARTCHAR Ccaron.sc
ENCODING -1
SWIDTH 520 0
DWIDTH 4 0
BBX 4 6 0 0
BITMAP
29
00
2E
A0
A0
2E
ENDCHAR
STARTCHAR Cdotaccent.sc
ENCODING -1
SWIDTH 520 0
DWIDTH 4 0
BBX 4 6 0 0
BITMAP
0C
00
2E
A0
A0
2E
ENDCHAR
STARTCHAR Dcaron.sc
ENCODING -1
SWIDTH 580 0
DWIDTH 5 0
BBX 5 6 0 0
BITMAP
2900
0000
7E00
6740
6700
7E00
ENDCHAR
STARTCHAR uni1E0C.sc
ENCODING -1
SWIDTH 580 0
DWIDTH 5 0
BBX 5 5 0 -1
BITMAP
7E00
6740
6700
7E00
0800
ENDCHAR
STARTCHAR uni1E0E.sc
ENCODING -1
SWIDTH 580 0
DWIDTH 5 0
BBX 5 5 0 -1
BITMAP
7E00
6740
6700
7E00
2E00
ENDCHAR
STARTCHAR Dcroat.sc
ENCODING -1
SWIDTH 604 0
DWIDTH 5 0
BBX 5 4 0 0
BITMAP
7E00
BB40
7340
7E00
ENDCHAR
STARTCHAR Egrave.sc
ENCODING -1
SWIDTH 499 0
DWIDTH 4 0
BBX 4 6 0 0
BITMAP
20
18
7D
7D
60
7E
ENDCHAR
STARTCHAR Eacute.sc
ENCODING -1
SWIDTH 499 0
DWIDTH 4 0
BBX 4 6 0 0
BITMAP
09
18
7D
7D
60
7E
ENDCHAR
STARTCHAR Ecircumflex.sc
ENCODING -1
SWIDTH 499 0
DWIDTH 4 0
BBX 4 5 0 0
BITMAP
29
7D
7D
60
7E
ENDCHAR
STARTCHAR Ecaron.sc
ENCODING -1
SWIDTH 499 0
DWIDTH 4 0
BBX 4 6 0 0
BITMAP
29
00
7D
7D
60
7E
ENDCHAR
STARTCHAR Edieresis.sc
ENCODING -1
SWIDTH 499 0
DWIDTH 4 0
BBX 4 6 0 0
BITMAP
25
00
7D
7D
60
7E
ENDCHAR
STARTCHAR Emacron.sc
ENCODING -1
SWIDTH 499 0
DWIDTH 4 0
BBX 4 6 0 0
BITMAP
3D
00
7D
7D
60
7E
ENDCHAR
STARTCHAR Ebreve.sc
ENCODING -1
SWIDTH 499 0
DWIDTH 4 0
BBX 4 6 0 0
BITMAP
25
2C
7D
7D
60
7E
ENDCHAR
STARTCHAR Edotaccent.sc
ENCODING -1
SWIDTH 499 0
DWIDTH 4 0
BBX 4 6 0 0
BITMAP
18
00
7D
7D
60
7E
ENDCHAR
STARTCHAR uni1EB8.sc
ENCODING -1
SWIDTH 499 0
DWIDTH 4 0
BBX 4 5 0 -1
BITMAP
7D
7D
60
7E
18
ENDCHAR
STARTCHAR uni1EBA.sc
ENCODING -1
SWIDTH 499 0
DWIDTH 4 0
BBX 4 6 0 0
BITMAP
18
08
7D
7D
60
7E
ENDCHAR
STARTCHAR uni1EBC.sc
ENCODING -1
SWIDTH 499 0
DWIDTH 4 0
BBX 4 7 0 0
BITMAP
01
3A
59
7D
7D
60
7E
ENDCHAR
STARTCHAR uni1EBE.sc
ENCODING -1
SWIDTH 499 0
DWIDTH 4 0
BBX 4 6 0 0
BITMAP
2E
29
7E
7D
60
7E
ENDCHAR
STARTCHAR uni1EC0.sc
ENCODING -1
SWIDTH 499 0
DWIDTH 4 0
BBX 4 6 0 0
BITMAP
6C
29
7E
7D
60
7E
ENDCHAR
STARTCHAR uni1EC2.sc
ENCODING -1
SWIDTH 499 0
DWIDTH 4 0
BBX 4 8 0 0
BITMAP
02
02
2E
29
7E
7D
60
7E
ENDCHAR
STARTCHAR uni1EC4.sc
ENCODING -1
SWIDTH 499 0
DWIDTH 4 0
BBX 4 9 0 0
BITMAP
25
2C
00
2C
29
7E
7D
60
7E
ENDCHAR
STARTCHAR uni1EC6.sc
ENCODING -1
SWIDTH 499 0
DWIDTH 4 0
BBX 4 6 0 -1
BITMAP
29
7D
7D
60
7E
18
ENDCHAR
STARTCHAR Eogonek.sc
ENCODING -1
SWIDTH 499 0
DWIDTH 4 0
BBX 4 6 0 -2
BITMAP
7D
7D
60
7E
08
0E
ENDCHAR
STARTCHAR uni1E16.sc
ENCODING -1
SWIDTH 499 0
DWIDTH 4 0
BBX 4 8 0 0
BITMAP
08
00
3D
00
7D
7D
60
7E
ENDCHAR
STARTCHAR uni01F4.sc
ENCODING -1
SWIDTH 576 0
DWIDTH 5 0
BBX 4 6 0 0
BITMAP
06
09
2E
A0
AB
2F
ENDCHAR
STARTCHAR Gcircumflex.sc
ENCODING -1
SWIDTH 576 0
DWIDTH 5 0
BBX 4 5 0 0
BITMAP
1A
2E
A0
AB
2F
ENDCHAR
STARTCHAR Gbreve.sc
ENCODING -1
SWIDTH 576 0
DWIDTH 5 0
BBX 4 6 0 0
BITMAP
22
1D
2E
A0
AB
2F
ENDCHAR
STARTCHAR Gdotaccent.sc
ENCODING -1
SWIDTH 576 0
DWIDTH 5 0
BBX 4 6 0 0
BITMAP
0C
00
2E
A0
AB
2F
ENDCHAR
STARTCHAR uni0122.sc
ENCODING -1
SWIDTH 576 0
DWIDTH 5 0
BBX 4 7 0 -3
BITMAP
2E
A0
AB
2F
08
09
18
ENDCHAR
STARTCHAR Gcaron.sc
ENCODING -1
SWIDTH 576 0
DWIDTH 5 0
BBX 4 6 0 0
BITMAP
1A
00
2E
A0
AB
2F
ENDCHAR
STARTCHAR uni1E20.sc
ENCODING -1
SWIDTH 576 0
DWIDTH 5 0
BBX 4 6 0 0
BITMAP
2E
00
2E
A0
AB
2F
ENDCHAR
STARTCHAR uni00470303.sc
ENCODING -1
SWIDTH 576 0
DWIDTH 5 0
BBX 4 7 0 0
BITMAP
01
2A
25
2E
A0
AB
2F
ENDCHAR
STARTCHAR uni0193.sc
ENCODING -1
SWIDTH 576 0
DWIDTH 5 0
BBX 5 5 0 0
BITMAP
0340
2F00
A000
AB00
2F00
ENDCHAR
STARTCHAR Hcircumflex.sc
ENCODING -1
SWIDTH 621 0
DWIDTH 5 0
BBX 5 5 0 0
BITMAP
1900
6240
7F40
6240
6240
ENDCHAR
STARTCHAR uni1E24.sc
ENCODING -1
SWIDTH 621 0
DWIDTH 5 0
BBX 5 5 0 -1
BITMAP
6240
7F40
6240
6240
0C00
ENDCHAR
STARTCHAR uni1E2A.sc
ENCODING -1
SWIDTH 621 0
DWIDTH 5 0
BBX 5 6 0 -2
BITMAP
6240
7F40
6240
7340
2200
1D00
ENDCHAR
STARTCHAR Hbar.sc
ENCODING -1
SWIDTH 660 0
DWIDTH 5 0
BBX 5 4 0 0
BITMAP
7280
BFC0
7280
7F80
ENDCHAR
STARTCHAR Igrave.sc
ENCODING -1
SWIDTH 301 0
DWIDTH 2 0
BBX 2 6 0 0
BITMAP
80
60
60
60
60
60
ENDCHAR
STARTCHAR Iacute.sc
ENCODING -1
SWIDTH 301 0
DWIDTH 2 0
BBX 3 6 0 0
BITMAP
24
60
60
60
60
60
ENDCHAR
STARTCHAR Icircumflex.sc
ENCODING -1
SWIDTH 301 0
DWIDTH 2 0
BBX 3 5 0 0
BITMAP
A4
60
60
60
60
ENDCHAR
STARTCHAR Itilde.sc
ENCODING -1
SWIDTH 301 0
DWIDTH 2 0
BBX 4 7 -1 0
BITMAP
01
3A
59
18
18
18
18
ENDCHAR
STARTCHAR Idieresis.sc
ENCODING -1
SWIDTH 301 0
DWIDTH 2 0
BBX 3 6 0 0
BITMAP
94
00
60
60
60
60
ENDCHAR
STARTCHAR Imacron.sc
ENCODING -1
SWIDTH 301 0
DWIDTH 2 0
BBX 3 6 0 0
BITMAP
F4
00
60
60
60
60
ENDCHAR
STARTCHAR Idotaccent.sc
ENCODING -1
SWIDTH 301 0
DWIDTH 2 0
BBX 2 6 0 0
BITMAP
60
00
60
60
60
60
ENDCHAR
STARTCHAR uni01CF.sc
ENCODING -1
SWIDTH 301 0
DWIDTH 2 0
BBX 3 6 0 0
BITMAP
A4
00
60
60
60
60
ENDCHAR
STARTCHAR uni1EC8.sc
ENCODING -1
SWIDTH 301 0
DWIDTH 2 0
BBX 2 6 0 0
BITMAP
60
20
60
60
60
60
ENDCHAR
STARTCHAR uni1ECA.sc
ENCODING -1
SWIDTH 301 0
DWIDTH 2 0
BBX 2 5 0 -1
BITMAP
60
60
60
60
60
ENDCHAR
STARTCHAR Iogonek.sc
ENCODING -1
SWIDTH 301 0
DWIDTH 2 0
BBX 2 6 0 -2
BITMAP
60
60
60
60
50
70
ENDCHAR
STARTCHAR uni012C.sc
ENCODING -1
SWIDTH 301 0
DWIDTH 2 0
BBX 3 6 0 0
BITMAP
94
B0
60
60
60
60
ENDCHAR
STARTCHAR Jcircumflex.sc
ENCODING -1
SWIDTH 470 0
DWIDTH 4 0
BBX 4 5 0 0
BITMAP
1A
0D
0D
0C
78
ENDCHAR
STARTCHAR uni0136.sc
ENCODING -1
SWIDTH 555 0
DWIDTH 4 0
BBX 5 7 0 -3
BITMAP
6600
7C00
7900
6340
0800
0900
1800
ENDCHAR
STARTCHAR uni1E32.sc
ENCODING -1
SWIDTH 555 0
DWIDTH 4 0
BBX 5 5 0 -1
BITMAP
6600
7C00
7900
6340
0C00
ENDCHAR
STARTCHAR uni1E34.sc
ENCODING -1
SWIDTH 555 0
DWIDTH 4 0
BBX 5 5 0 -1
BITMAP
6600
7C00
7900
6340
2E00
ENDCHAR
STARTCHAR Lacute.sc
ENCODING -1
SWIDTH 471 0
DWIDTH 4 0
BBX 4 6 0 0
BITMAP
24
20
60
60
60
7D
ENDCHAR
STARTCHAR Lcaron.sc
ENCODING -1
SWIDTH 471 0
DWIDTH 4 0
BBX 4 5 0 0
BITMAP
05
60
60
60
7D
ENDCHAR
STARTCHAR uni013B.sc
ENCODING -1
SWIDTH 471 0
DWIDTH 4 0
BBX 4 7 0 -3
BITMAP
60
60
60
7D
18
0C
24
ENDCHAR
STARTCHAR Ldot.sc
ENCODING -1
SWIDTH 471 0
DWIDTH 4 0
BBX 4 4 0 0
BITMAP
60
66
60
7D
ENDCHAR
STARTCHAR uni1E36.sc
ENCODING -1
SWIDTH 471 0
DWIDTH 4 0
BBX 4 5 0 -1
BITMAP
60
60
60
7D
18
ENDCHAR
STARTCHAR uni1E38.sc
ENCODING -1
SWIDTH 471 0
DWIDTH 4 0
BBX 4 7 0 -1
BITMAP
F4
00
60
60
60
7D
18
ENDCHAR
STARTCHAR uni1E3A.sc
ENCODING -1
SWIDTH 471 0
DWIDTH 4 0
BBX 4 5 0 -1
BITMAP
60
60
60
7D
3D
ENDCHAR
STARTCHAR Lslash.sc
ENCODING -1
SWIDTH 471 0
DWIDTH 4 0
BBX 4 4 0 0
BITMAP
70
78
F4
7E
ENDCHAR
STARTCHAR uni1E3E.sc
ENCODING -1
SWIDTH 685 0
DWIDTH 5 0
BBX 5 6 0 0
BITMAP
0200
0900
72C0
76C0
6EC0
65C0
ENDCHAR
STARTCHAR uni1E40.sc
ENCODING -1
SWIDTH 685 0
DWIDTH 5 0
BBX 5 6 0 0
BITMAP
0900
0000
72C0
76C0
6EC0
65C0
ENDCHAR
STARTCHAR uni1E42.sc
ENCODING -1
SWIDTH 685 0
DWIDTH 5 0
BBX 5 5 0 -1
BITMAP
72C0
76C0
6EC0
65C0
0900
ENDCHAR
STARTCHAR Nacute.sc
ENCODING -1
SWIDTH 606 0
DWIDTH 5 0
BBX 5 6 0 0
BITMAP
0600
0900
7340
7A40
6B40
6740
ENDCHAR
STARTCHAR uni01F8.sc
ENCODING -1
SWIDTH 606 0
DWIDTH 5 0
BBX 5 6 0 0
BITMAP
2400
1800
7340
7A40
6B40
6740
ENDCHAR
STARTCHAR Ncaron.sc
ENCODING -1
SWIDTH 606 0
DWIDTH 5 0
BBX 5 6 0 0
BITMAP
1900
0000
7340
7A40
6B40
6740
ENDCHAR
STARTCHAR Ntilde.sc
ENCODING -1
SWIDTH 606 0
DWIDTH 5 0
BBX 5 7 0 0
BITMAP
0100
2A00
2500
7340
7A40
6B40
6740
ENDCHAR
STARTCHAR uni0145.sc
ENCODING -1
SWIDTH 606 0
DWIDTH 5 0
BBX 5 7 0 -3
BITMAP
7340
7A40
6B40
6740
0800
0900
1800
ENDCHAR
STARTCHAR uni1E44.sc
ENCODING -1
SWIDTH 606 0
DWIDTH 5 0
BBX 5 6 0 0
BITMAP
0C00
0000
7340
7A40
6B40
6740
ENDCHAR
STARTCHAR uni1E46.sc
ENCODING -1
SWIDTH 606 0
DWIDTH 5 0
BBX 5 5 0 -1
BITMAP
7340
7A40
6B40
6740
0C00
ENDCHAR
STARTCHAR uni1E48.sc
ENCODING -1
SWIDTH 606 0
DWIDTH 5 0
BBX 5 5 0 -1
BITMAP
7340
7A40
6B40
6740
2E00
ENDCHAR
STARTCHAR Ograve.sc
ENCODING -1
SWIDTH 616 0
DWIDTH 5 0
BBX 5 6 0 0
BITMAP
2400
1800
2E00
A240
A240
2E00
ENDCHAR
STARTCHAR Oacute.sc
ENCODING -1
SWIDTH 616 0
DWIDTH 5 0
BBX 5 6 0 0
BITMAP
0600
0900
2E00
A240
A240
2E00
ENDCHAR
STARTCHAR Ocircumflex.sc
ENCODING -1
SWIDTH 616 0
DWIDTH 5 0
BBX 5 5 0 0
BITMAP
2900
2E00
A240
A240
2E00
ENDCHAR
STARTCHAR Otilde.sc
ENCODING -1
SWIDTH 616 0
DWIDTH 5 0
BBX 5 7 0 0
BITMAP
0100
2A00
2500
2E00
A240
A240
2E00
ENDCHAR
STARTCHAR Odieresis.sc
ENCODING -1
SWIDTH 616 0
DWIDTH 5 0
BBX 5 6 0 0
BITMAP
2200
0000
2E00
A240
A240
2E00
ENDCHAR
STARTCHAR Omacron.sc
ENCODING -1
SWIDTH 616 0
DWIDTH 5 0
BBX 5 6 0 0
BITMAP
2E00
0000
2E00
A240
A240
2E00
ENDCHAR
STARTCHAR Ohungarumlaut.sc
ENCODING -1
SWIDTH 616 0
DWIDTH 5 0
BBX 5 7 0 0
BITMAP
0A40
1600
0000
2E00
A240
A240
2E00
ENDCHAR
STARTCHAR uni01D1.sc
ENCODING -1
SWIDTH 616 0
DWIDTH 5 0
BBX 5 6 0 0
BITMAP
2900
0000
2E00
A240
A240
2E00
ENDCHAR
STARTCHAR uni1ECC.sc
ENCODING -1
SWIDTH 616 0
DWIDTH 5 0
BBX 5 5 0 -1
BITMAP
2E00
A240
A240
2E00
0C00
ENDCHAR
STARTCHAR uni1ECE.sc
ENCODING -1
SWIDTH 616 0
DWIDTH 5 0
BBX 5 6 0 0
BITMAP
1C00
0800
2E00
A240
A240
2E00
ENDCHAR
STARTCHAR uni1ED0.sc
ENCODING -1
SWIDTH 616 0
DWIDTH 5 0
BBX 5 6 0 0
BITMAP
1D40
2600
3F00
A240
A240
2E00
ENDCHAR
STARTCHAR uni1ED2.sc
ENCODING -1
SWIDTH 616 0
DWIDTH 5 0
BBX 5 6 0 0
BITMAP
5C00
2600
3F00
A240
A240
2E00
ENDCHAR
STARTCHAR uni1ED4.sc
ENCODING -1
SWIDTH 616 0
DWIDTH 5 0
BBX 5 8 0 0
BITMAP
0240
0140
1E40
2600
3F00
A240
A240
2E00
ENDCHAR
STARTCHAR uni1ED6.sc
ENCODING -1
SWIDTH 616 0
DWIDTH 5 0
BBX 5 9 0 0
BITMAP
1600
2900
0000
1C00
2600
3F00
A240
A240
2E00
ENDCHAR
STARTCHAR uni1ED8.sc
ENCODING -1
SWIDTH 616 0
DWIDTH 5 0
BBX 5 6 0 -1
BITMAP
2900
2E00
A240
A240
2E00
0C00
ENDCHAR
STARTCHAR Oslash.sc
ENCODING -1
SWIDTH 616 0
DWIDTH 5 0
BBX 5 4 0 0
BITMAP
2F40
A740
B640
6E00
ENDCHAR
STARTCHAR OE.sc
ENCODING -1
SWIDTH 766 0
DWIDTH 6 0
BBX 6 4 0 0
BITMAP
2FE0
A7D0
A700
2FE0
ENDCHAR
STARTCHAR Ohorn.sc
ENCODING -1
SWIDTH 616 0
DWIDTH 5 0
BBX 5 5 0 0
BITMAP
00C0
2F40
A240
A240
2E00
ENDCHAR
STARTCHAR uni1EDA.sc
ENCODING -1
SWIDTH 616 0
DWIDTH 5 0
BBX 5 6 0 0
BITMAP
0600
09C0
2F40
A240
A240
2E00
ENDCHAR
STARTCHAR uni1EDC.sc
ENCODING -1
SWIDTH 616 0
DWIDTH 5 0
BBX 5 6 0 0
BITMAP
2400
18C0
2F40
A240
A240
2E00
ENDCHAR
STARTCHAR uni1EDE.sc
ENCODING -1
SWIDTH 616 0
DWIDTH 5 0
BBX 5 6 0 0
BITMAP
1C00
09C0
2F40
A240
A240
2E00
ENDCHAR
STARTCHAR uni1EE0.sc
ENCODING -1
SWIDTH 616 0
DWIDTH 5 0
BBX 5 7 0 0
BITMAP
0100
3A00
65C0
2F40
A240
A240
2E00
ENDCHAR
STARTCHAR uni1EE2.sc
ENCODING -1
SWIDTH 616 0
DWIDTH 5 0
BBX 5 6 0 -1
BITMAP
00C0
2F40
A240
A240
2E00
0C00
ENDCHAR
STARTCHAR uni01EA.sc
ENCODING -1
SWIDTH 616 0
DWIDTH 5 0
BBX 5 6 0 -2
BITMAP
2E00
A240
A240
2E00
0800
0D00
ENDCHAR
STARTCHAR uni014E.sc
ENCODING -1
SWIDTH 616 0
DWIDTH 5 0
BBX 5 6 0 0
BITMAP
2200
1D00
2E00
A240
A240
2E00
ENDCHAR
STARTCHAR uni1E52.sc
ENCODING -1
SWIDTH 616 0
DWIDTH 5 0
BBX 5 8 0 0
BITMAP
0900
0000
2E00
0000
2E00
A240
A240
2E00
ENDCHAR
STARTCHAR Racute.sc
ENCODING -1
SWIDTH 561 0
DWIDTH 4 0
BBX 4 6 0 0
BITMAP
05
08
7E
67
7E
67
ENDCHAR
STARTCHAR uni1E58.sc
ENCODING -1
SWIDTH 561 0
DWIDTH 4 0
BBX 4 6 0 0
BITMAP
08
00
7E
67
7E
67
ENDCHAR
STARTCHAR Rcaron.sc
ENCODING -1
SWIDTH 561 0
DWIDTH 4 0
BBX 4 6 0 0
BITMAP
29
00
7E
67
7E
67
ENDCHAR
STARTCHAR uni0156.sc
ENCODING -1
SWIDTH 561 0
DWIDTH 4 0
BBX 4 7 0 -3
BITMAP
7E
67
7E
67
08
08
18
ENDCHAR
STARTCHAR uni1E5A.sc
ENCODING -1
SWIDTH 561 0
DWIDTH 4 0
BBX 4 5 0 -1
BITMAP
7E
67
7E
67
08
ENDCHAR
STARTCHAR uni1E5C.sc
ENCODING -1
SWIDTH 561 0
DWIDTH 4 0
BBX 4 7 0 -1
BITMAP
2E
00
7E
67
7E
67
08
ENDCHAR
STARTCHAR uni1E5E.sc
ENCODING -1
SWIDTH 561 0
DWIDTH 4 0
BBX 4 5 0 -1
BITMAP
7E
67
7E
67
2E
ENDCHAR
STARTCHAR Sacute.sc
ENCODING -1
SWIDTH 504 0
DWIDTH 4 0
BBX 4 6 0 0
BITMAP
09
18
7D
74
1A
7D
ENDCHAR
STARTCHAR Scircumflex.sc
ENCODING -1
SWIDTH 504 0
DWIDTH 4 0
BBX 4 5 0 0
BITMAP
29
7D
74
1A
7D
ENDCHAR
STARTCHAR Scaron.sc
ENCODING -1
SWIDTH 504 0
DWIDTH 4 0
BBX 4 6 0 0
BITMAP
29
00
7D
74
1A
7D
ENDCHAR
STARTCHAR uni015E.sc
ENCODING -1
SWIDTH 504 0
DWIDTH 4 0
BBX 4 7 0 -3
BITMAP
7D
74
1A
7D
28
18
24
ENDCHAR
STARTCHAR uni0218.sc
ENCODING -1
SWIDTH 504 0
DWIDTH 4 0
BBX 4 7 0 -3
BITMAP
7D
74
1A
7D
18
0C
24
ENDCHAR
STARTCHAR uni1E60.sc
ENCODING -1
SWIDTH 504 0
DWIDTH 4 0
BBX 4 6 0 0
BITMAP
18
00
7D
74
1A
7D
ENDCHAR
STARTCHAR uni1E62.sc
ENCODING -1
SWIDTH 504 0
DWIDTH 4 0
BBX 4 5 0 -1
BITMAP
7D
74
1A
7D
18
ENDCHAR
STARTCHAR uni1E9E.sc
ENCODING -1
SWIDTH 636 0
DWIDTH 5 0
BBX 5 4 0 0
BITMAP
2F00
7740
6680
6B40
ENDCHAR
STARTCHAR Tcaron.sc
ENCODING -1
SWIDTH 491 0
DWIDTH 4 0
BBX 4 6 0 0
BITMAP
28
00
BE
28
28
28
ENDCHAR
STARTCHAR uni0162.sc
ENCODING -1
SWIDTH 491 0
DWIDTH 4 0
BBX 4 7 0 -3
BITMAP
BE
28
28
38
28
18
24
ENDCHAR
STARTCHAR uni021A.sc
ENCODING -1
SWIDTH 491 0
DWIDTH 4 0
BBX 4 7 0 -3
BITMAP
BE
28
28
28
24
18
24
ENDCHAR
STARTCHAR uni1E6C.sc
ENCODING -1
SWIDTH 491 0
DWIDTH 4 0
BBX 4 5 0 -1
BITMAP
BE
28
28
28
24
ENDCHAR
STARTCHAR uni1E6E.sc
ENCODING -1
SWIDTH 491 0
DWIDTH 4 0
BBX 4 5 0 -1
BITMAP
BE
28
28
28
7C
ENDCHAR
STARTCHAR uni0166.sc
ENCODING -1
SWIDTH 491 0
DWIDTH 4 0
BBX 4 4 0 0
BITMAP
BE
28
69
28
ENDCHAR
STARTCHAR Ugrave.sc
ENCODING -1
SWIDTH 607 0
DWIDTH 5 0
BBX 5 6 0 0
BITMAP
2400
1800
6340
6340
7340
2E00
ENDCHAR
STARTCHAR Uacute.sc
ENCODING -1
SWIDTH 607 0
DWIDTH 5 0
BBX 5 6 0 0
BITMAP
0600
0800
6340
6340
7340
2E00
ENDCHAR
STARTCHAR Ucircumflex.sc
ENCODING -1
SWIDTH 607 0
DWIDTH 5 0
BBX 5 5 0 0
BITMAP
2900
6340
6340
7340
2E00
ENDCHAR
STARTCHAR Utilde.sc
ENCODING -1
SWIDTH 607 0
DWIDTH 5 0
BBX 5 7 0 0
BITMAP
0100
2A00
2500
6340
6340
7340
2E00
ENDCHAR
STARTCHAR Udieresis.sc
ENCODING -1
SWIDTH 607 0
DWIDTH 5 0
BBX 5 6 0 0
BITMAP
2200
0000
6340
6340
7340
2E00
ENDCHAR
STARTCHAR Umacron.sc
ENCODING -1
SWIDTH 607 0
DWIDTH 5 0
BBX 5 6 0 0
BITMAP
2E00
0000
6340
6340
7340
2E00
ENDCHAR
STARTCHAR Ubreve.sc
ENCODING -1
SWIDTH 607 0
DWIDTH 5 0
BBX 5 6 0 0
BITMAP
2200
1D00
6340
6340
7340
2E00
ENDCHAR
STARTCHAR Uring.sc
ENCODING -1
SWIDTH 607 0
DWIDTH 5 0
BBX 5 6 0 0
BITMAP
1C00
1C00
6340
6340
7340
2E00
ENDCHAR
STARTCHAR Uhungarumlaut.sc
ENCODING -1
SWIDTH 607 0
DWIDTH 5 0
BBX 5 7 0 0
BITMAP
0A00
1600
0000
6340
6340
7340
2E00
ENDCHAR
STARTCHAR uni01D3.sc
ENCODING -1
SWIDTH 607 0
DWIDTH 5 0
BBX 5 6 0 0
BITMAP
2900
0000
6340
6340
7340
2E00
ENDCHAR
STARTCHAR uni01D5.sc
ENCODING -1
SWIDTH 607 0
DWIDTH 5 0
BBX 5 8 0 0
BITMAP
2E00
0000
2200
0000
6340
6340
7340
2E00
ENDCHAR
STARTCHAR uni01D7.sc
ENCODING -1
SWIDTH 607 0
DWIDTH 5 0
BBX 5 7 0 0
BITMAP
0800
2200
0000
6340
6340
7340
2E00
ENDCHAR
STARTCHAR uni01D9.sc
ENCODING -1
SWIDTH 607 0
DWIDTH 5 0
BBX 5 9 0 0
BITMAP
2500
1C00
0000
2200
0000
6340
6340
7340
2E00
ENDCHAR
STARTCHAR uni01DB.sc
ENCODING -1
SWIDTH 607 0
DWIDTH 5 0
BBX 5 7 0 0
BITMAP
1400
2200
0000
6340
6340
7340
2E00
ENDCHAR
STARTCHAR uni1EE4.sc
ENCODING -1
SWIDTH 607 0
DWIDTH 5 0
BBX 5 5 0 -1
BITMAP
6340
6340
7340
2E00
0800
ENDCHAR
STARTCHAR uni1EE6.sc
ENCODING -1
SWIDTH 607 0
DWIDTH 5 0
BBX 5 6 0 0
BITMAP
1800
0800
6340
6340
7340
2E00
ENDCHAR
STARTCHAR Uogonek.sc
ENCODING -1
SWIDTH 607 0
DWIDTH 5 0
BBX 5 6 0 -2
BITMAP
6340
6340
7340
2E00
0800
0900
ENDCHAR
STARTCHAR Uhorn.sc
ENCODING -1
SWIDTH 625 0
DWIDTH 5 0
BBX 6 5 0 0
BITMAP
0090
6380
6340
7340
2E00
ENDCHAR
STARTCHAR uni1EE8.sc
ENCODING -1
SWIDTH 625 0
DWIDTH 5 0
BBX 6 6 0 0
BITMAP
0600
0990
6380
6340
7340
2E00
ENDCHAR
STARTCHAR uni1EEA.sc
ENCODING -1
SWIDTH 625 0
DWIDTH 5 0
BBX 6 6 0 0
BITMAP
2400
1890
6380
6340
7340
2E00
ENDCHAR
STARTCHAR uni1EEC.sc
ENCODING -1
SWIDTH 625 0
DWIDTH 5 0
BBX 6 6 0 0
BITMAP
1800
0890
6380
6340
7340
2E00
ENDCHAR
STARTCHAR uni1EEE.sc
ENCODING -1
SWIDTH 625 0
DWIDTH 5 0
BBX 6 7 0 0
BITMAP
0100
2A00
2590
6380
6340
7340
2E00
ENDCHAR
STARTCHAR uni1EF0.sc
ENCODING -1
SWIDTH 625 0
DWIDTH 5 0
BBX 6 6 0 -1
BITMAP
0090
6380
6340
7340
2E00
0800
ENDCHAR
STARTCHAR Wgrave.sc
ENCODING -1
SWIDTH 717 0
DWIDTH 6 0
BBX 6 6 0 0
BITMAP
1800
0900
9AA0
AE90
6BC0
76C0
ENDCHAR
STARTCHAR Wacute.sc
ENCODING -1
SWIDTH 717 0
DWIDTH 6 0
BBX 6 6 0 0
BITMAP
0200
0500
9AA0
AE90
6BC0
76C0
ENDCHAR
STARTCHAR Wcircumflex.sc
ENCODING -1
SWIDTH 717 0
DWIDTH 6 0
BBX 6 5 0 0
BITMAP
1A00
9AA0
AE90
6BC0
76C0
ENDCHAR
STARTCHAR Wdieresis.sc
ENCODING -1
SWIDTH 717 0
DWIDTH 6 0
BBX 6 6 0 0
BITMAP
1640
0000
9AA0
AE90
6BC0
76C0
ENDCHAR
STARTCHAR Ygrave.sc
ENCODING -1
SWIDTH 467 0
DWIDTH 4 0
BBX 4 6 0 0
BITMAP
60
24
9A
6C
28
24
ENDCHAR
STARTCHAR Yacute.sc
ENCODING -1
SWIDTH 467 0
DWIDTH 4 0
BBX 4 6 0 0
BITMAP
08
24
9A
6C
28
24
ENDCHAR
STARTCHAR Ycircumflex.sc
ENCODING -1
SWIDTH 467 0
DWIDTH 4 0
BBX 4 5 0 0
BITMAP
68
9A
6C
28
24
ENDCHAR
STARTCHAR Ydieresis.sc
ENCODING -1
SWIDTH 467 0
DWIDTH 4 0
BBX 4 6 0 0
BITMAP
58
00
9A
6C
28
24
ENDCHAR
STARTCHAR uni1E8E.sc
ENCODING -1
SWIDTH 467 0
DWIDTH 4 0
BBX 4 6 0 0
BITMAP
24
00
9A
6C
28
24
ENDCHAR
STARTCHAR uni1EF4.sc
ENCODING -1
SWIDTH 467 0
DWIDTH 4 0
BBX 4 5 0 -1
BITMAP
9A
6C
28
24
24
ENDCHAR
STARTCHAR uni1EF6.sc
ENCODING -1
SWIDTH 467 0
DWIDTH 4 0
BBX 4 6 0 0
BITMAP
24
14
9A
6C
28
24
ENDCHAR
STARTCHAR uni1EF8.sc
ENCODING -1
SWIDTH 467 0
DWIDTH 4 0
BBX 4 6 0 0
BITMAP
79
98
9A
6C
28
24
ENDCHAR
STARTCHAR Zacute.sc
ENCODING -1
SWIDTH 481 0
DWIDTH 4 0
BBX 4 6 0 0
BITMAP
09
18
BE
1C
74
BE
ENDCHAR
STARTCHAR Zcaron.sc
ENCODING -1
SWIDTH 481 0
DWIDTH 4 0
BBX 4 6 0 0
BITMAP
28
00
BE
1C
74
BE
ENDCHAR
STARTCHAR Zdotaccent.sc
ENCODING -1
SWIDTH 481 0
DWIDTH 4 0
BBX 4 6 0 0
BITMAP
18
00
BE
1C
74
BE
ENDCHAR
STARTCHAR uni1E92.sc
ENCODING -1
SWIDTH 481 0
DWIDTH 4 0
BBX 4 5 0 -1
BITMAP
BE
1C
74
BE
14
ENDCHAR
STARTCHAR uni1E94.sc
ENCODING -1
SWIDTH 481 0
DWIDTH 4 0
BBX 4 5 0 -1
BITMAP
BE
1C
74
BE
7D
ENDCHAR
STARTCHAR Eth.sc
ENCODING -1
SWIDTH 604 0
DWIDTH 5 0
BBX 5 4 0 0
BITMAP
7E00
BB40
7340
7E00
ENDCHAR
STARTCHAR Thorn.sc
ENCODING -1
SWIDTH 562 0
DWIDTH 5 0
BBX 4 4 0 0
BITMAP
7E
67
7E
60
ENDCHAR
STARTCHAR uni018F.sc
ENCODING -1
SWIDTH 604 0
DWIDTH 5 0
BBX 5 4 0 0
BITMAP
2E00
0340
BF40
2E00
ENDCHAR
STARTCHAR uni014A.sc
ENCODING -1
SWIDTH 602 0
DWIDTH 5 0
BBX 5 4 0 0
BITMAP
7F00
7340
6240
6B00
ENDCHAR
STARTCHAR uni0132.sc
ENCODING -1
SWIDTH 602 0
DWIDTH 5 0
BBX 5 5 0 -1
BITMAP
6340
6340
6340
6340
0A00
ENDCHAR
STARTCHAR Alpha.sc
ENCODING -1
SWIDTH 503 0
DWIDTH 4 0
BBX 4 4 0 0
BITMAP
3C
69
BE
D7
ENDCHAR
STARTCHAR Beta.sc
ENCODING -1
SWIDTH 546 0
DWIDTH 4 0
BBX 4 4 0 0
BITMAP
7E
7E
67
7E
ENDCHAR
STARTCHAR Gamma.sc
ENCODING -1
SWIDTH 472 0
DWIDTH 4 0
BBX 4 4 0 0
BITMAP
7E
60
60
60
ENDCHAR
STARTCHAR uni0394.sc
ENCODING -1
SWIDTH 570 0
DWIDTH 5 0
BBX 5 4 0 0
BITMAP
2D00
3A00
6300
BF40
ENDCHAR
STARTCHAR Epsilon.sc
ENCODING -1
SWIDTH 499 0
DWIDTH 4 0
BBX 4 4 0 0
BITMAP
7D
7D
60
7E
ENDCHAR
STARTCHAR Zeta.sc
ENCODING -1
SWIDTH 481 0
DWIDTH 4 0
BBX 4 4 0 0
BITMAP
BE
1C
74
BE
ENDCHAR
STARTCHAR Eta.sc
ENCODING -1
SWIDTH 621 0
DWIDTH 5 0
BBX 5 4 0 0
BITMAP
6240
7F40
6240
6240
ENDCHAR
STARTCHAR Theta.sc
ENCODING -1
SWIDTH 616 0
DWIDTH 5 0
BBX 5 4 0 0
BITMAP
2E00
BF40
A240
2E00
ENDCHAR
STARTCHAR Iota.sc
ENCODING -1
SWIDTH 301 0
DWIDTH 2 0
BBX 2 4 0 0
BITMAP
60
60
60
60
ENDCHAR
STARTCHAR Kappa.sc
ENCODING -1
SWIDTH 555 0
DWIDTH 4 0
BBX 5 4 0 0
BITMAP
6600
7C00
7900
6340
ENDCHAR
STARTCHAR Lambda.sc
ENCODING -1
SWIDTH 488 0
DWIDTH 4 0
BBX 4 4 0 0
BITMAP
38
6C
A9
D6
ENDCHAR
STARTCHAR Mu.sc
ENCODING -1
SWIDTH 685 0
DWIDTH 5 0
BBX 5 4 0 0
BITMAP
72C0
76C0
6EC0
65C0
ENDCHAR
STARTCHAR Nu.sc
ENCODING -1
SWIDTH 606 0
DWIDTH 5 0
BBX 5 4 0 0
BITMAP
7340
7A40
6B40
6740
ENDCHAR
STARTCHAR Xi.sc
ENCODING -1
SWIDTH 513 0
DWIDTH 4 0
BBX 4 4 0 0
BITMAP
BE
3D
00
BE
ENDCHAR
STARTCHAR Omicron.sc
ENCODING -1
SWIDTH 616 0
DWIDTH 5 0
BBX 5 4 0 0
BITMAP
2E00
A240
A240
2E00
ENDCHAR
STARTCHAR Pi.sc
ENCODING -1
SWIDTH 615 0
DWIDTH 5 0
BBX 5 4 0 0
BITMAP
7F40
6340
6340
6340
ENDCHAR
STARTCHAR Rho.sc
ENCODING -1
SWIDTH 551 0
DWIDTH 4 0
BBX 4 4 0 0
BITMAP
7E
67
7E
60
ENDCHAR
STARTCHAR Sigma.sc
ENCODING -1
SWIDTH 486 0
DWIDTH 4 0
BBX 4 4 0 0
BITMAP
BD
64
64
BE
ENDCHAR
STARTCHAR Tau.sc
ENCODING -1
SWIDTH 491 0
DWIDTH 4 0
BBX 4 4 0 0
BITMAP
BE
28
28
28
ENDCHAR
STARTCHAR Upsilon.sc
ENCODING -1
SWIDTH 467 0
DWIDTH 4 0
BBX 4 4 0 0
BITMAP
9A
6C
28
24
ENDCHAR
STARTCHAR Phi.sc
ENCODING -1
SWIDTH 708 0
DWIDTH 6 0
BBX 6 6 0 -1
BITMAP
0900
2F80
A9D0
A9D0
2F80
0900
ENDCHAR
STARTCHAR Chi.sc
ENCODING -1
SWIDTH 509 0
DWIDTH 4 0
BBX 4 4 0 0
BITMAP
AA
3C
3C
AA
ENDCHAR
STARTCHAR Psi.sc
ENCODING -1
SWIDTH 682 0
DWIDTH 5 0
BBX 5 4 0 0
BITMAP
A9C0
AAC0
2F40
0900
ENDCHAR
STARTCHAR uni03A9.sc
ENCODING -1
SWIDTH 633 0
DWIDTH 5 0
BBX 5 4 0 0
BITMAP
2E00
6280
6240
B780
ENDCHAR
STARTCHAR Iotadieresis.sc
ENCODING -1
SWIDTH 301 0
DWIDTH 2 0
BBX 3 6 0 0
BITMAP
94
00
60
60
60
60
ENDCHAR
STARTCHAR Upsilondieresis.sc
ENCODING -1
SWIDTH 467 0
DWIDTH 4 0
BBX 4 6 0 0
BITMAP
58
00
9A
6C
28
24
ENDCHAR
STARTCHAR Alphaiotasub.sc
ENCODING -1
SWIDTH 805 0
DWIDTH 6 0
BBX 6 4 0 0
BITMAP
3C60
6960
BE60
D760
ENDCHAR
STARTCHAR Etaiotasub.sc
ENCODING -1
SWIDTH 923 0
DWIDTH 7 0
BBX 7 4 0 0
BITMAP
6258
7F58
6258
6258
ENDCHAR
STARTCHAR Omegaiotasub.sc
ENCODING -1
SWIDTH 932 0
DWIDTH 7 0
BBX 7 4 0 0
BITMAP
2E1C
629C
625C
B79C
ENDCHAR
STARTCHAR uni0410.sc
ENCODING -1
SWIDTH 503 0
DWIDTH 4 0
BBX 4 4 0 0
BITMAP
3C
69
BE
D7
ENDCHAR
STARTCHAR uni0411.sc
ENCODING -1
SWIDTH 543 0
DWIDTH 4 0
BBX 4 4 0 0
BITMAP
7E
79
77
7E
ENDCHAR
STARTCHAR uni0412.sc
ENCODING -1
SWIDTH 546 0
DWIDTH 4 0
BBX 4 4 0 0
BITMAP
7E
7E
67
7E
ENDCHAR
STARTCHAR uni0413.sc
ENCODING -1
SWIDTH 472 0
DWIDTH 4 0
BBX 4 4 0 0
BITMAP
7E
60
60
60
ENDCHAR
STARTCHAR uni0414.sc
ENCODING -1
SWIDTH 604 0
DWIDTH 5 0
BBX 5 5 0 -1
BITMAP
2F00
3300
6300
FF80
9180
ENDCHAR
STARTCHAR uni0415.sc
ENCODING -1
SWIDTH 499 0
DWIDTH 4 0
BBX 4 4 0 0
BITMAP
7D
7D
60
7E
ENDCHAR
STARTCHAR uni0416.sc
ENCODING -1
SWIDTH 766 0
DWIDTH 6 0
BBX 6 4 0 0
BITMAP
AAB0
3FC0
7690
9670
ENDCHAR
STARTCHAR uni0417.sc
ENCODING -1
SWIDTH 500 0
DWIDTH 4 0
BBX 4 4 0 0
BITMAP
7D
2D
0A
7D
ENDCHAR
STARTCHAR uni0418.sc
ENCODING -1
SWIDTH 606 0
DWIDTH 5 0
BBX 5 4 0 0
BITMAP
6740
6B40
7A40
7340
ENDCHAR
STARTCHAR uni0419.sc
ENCODING -1
SWIDTH 606 0
DWIDTH 5 0
BBX 5 6 0 0
BITMAP
3700
1D00
6740
6B40
7A40
7340
ENDCHAR
STARTCHAR uni041A.sc
ENCODING -1
SWIDTH 567 0
DWIDTH 5 0
BBX 5 4 0 0
BITMAP
6740
7D00
6A00
6340
ENDCHAR
STARTCHAR uni041B.sc
ENCODING -1
SWIDTH 590 0
DWIDTH 5 0
BBX 4 4 0 0
BITMAP
2F
37
73
D3
ENDCHAR
STARTCHAR uni041C.sc
ENCODING -1
SWIDTH 685 0
DWIDTH 5 0
BBX 5 4 0 0
BITMAP
72C0
76C0
6EC0
65C0
ENDCHAR
STARTCHAR uni041D.sc
ENCODING -1
SWIDTH 621 0
DWIDTH 5 0
BBX 5 4 0 0
BITMAP
6240
7F40
6240
6240
ENDCHAR
STARTCHAR uni041E.sc
ENCODING -1
SWIDTH 616 0
DWIDTH 5 0
BBX 5 4 0 0
BITMAP
2E00
A240
A240
2E00
ENDCHAR
STARTCHAR uni041F.sc
ENCODING -1
SWIDTH 615 0
DWIDTH 5 0
BBX 5 4 0 0
BITMAP
7F40
6340
6340
6340
ENDCHAR
STARTCHAR uni0420.sc
ENCODING -1
SWIDTH 551 0
DWIDTH 4 0
BBX 4 4 0 0
BITMAP
7E
67
7E
60
ENDCHAR
STARTCHAR uni0421.sc
ENCODING -1
SWIDTH 520 0
DWIDTH 4 0
BBX 4 4 0 0
BITMAP
2E
A0
A0
2E
ENDCHAR
STARTCHAR uni0422.sc
ENCODING -1
SWIDTH 491 0
DWIDTH 4 0
BBX 4 4 0 0
BITMAP
BE
28
28
28
ENDCHAR
STARTCHAR uni0423.sc
ENCODING -1
SWIDTH 487 0
DWIDTH 4 0
BBX 4 4 0 0
BITMAP
96
79
28
74
ENDCHAR
STARTCHAR uni0424.sc
ENCODING -1
SWIDTH 677 0
DWIDTH 5 0
BBX 5 4 0 0
BITMAP
0900
7F80
7F80
0900
ENDCHAR
STARTCHAR uni0425.sc
ENCODING -1
SWIDTH 509 0
DWIDTH 4 0
BBX 4 4 0 0
BITMAP
AA
3C
3C
AA
ENDCHAR
STARTCHAR uni0426.sc
ENCODING -1
SWIDTH 610 0
DWIDTH 5 0
BBX 5 5 0 -1
BITMAP
6300
6300
6300
7F80
0180
ENDCHAR
STARTCHAR uni0427.sc
ENCODING -1
SWIDTH 576 0
DWIDTH 5 0
BBX 4 4 0 0
BITMAP
A7
7F
07
07
ENDCHAR
STARTCHAR uni0428.sc
ENCODING -1
SWIDTH 823 0
DWIDTH 7 0
BBX 6 4 0 0
BITMAP
6730
6730
6730
7FF0
ENDCHAR
STARTCHAR uni0429.sc
ENCODING -1
SWIDTH 837 0
DWIDTH 7 0
BBX 7 5 0 -1
BITMAP
6730
6730
6730
7FF8
0028
ENDCHAR
STARTCHAR uni042A.sc
ENCODING -1
SWIDTH 639 0
DWIDTH 5 0
BBX 5 4 0 0
BITMAP
B800
2F40
2980
2F40
ENDCHAR
STARTCHAR uni042B.sc
ENCODING -1
SWIDTH 779 0
DWIDTH 6 0
BBX 6 4 0 0
BITMAP
60A0
7DA0
67A0
7DA0
ENDCHAR
STARTCHAR uni042C.sc
ENCODING -1
SWIDTH 544 0
DWIDTH 4 0
BBX 4 4 0 0
BITMAP
60
7E
67
7E
ENDCHAR
STARTCHAR uni042D.sc
ENCODING -1
SWIDTH 516 0
DWIDTH 4 0
BBX 4 4 0 0
BITMAP
79
3E
0A
79
ENDCHAR
STARTCHAR uni042E.sc
ENCODING -1
SWIDTH 849 0
DWIDTH 7 0
BBX 7 4 0 0
BITMAP
67E0
7E34
6634
62E0
ENDCHAR
STARTCHAR uni042F.sc
ENCODING -1
SWIDTH 561 0
DWIDTH 4 0
BBX 4 4 0 0
BITMAP
7F
A7
3F
67
ENDCHAR
STARTCHAR uni0400.sc
ENCODING -1
SWIDTH 499 0
DWIDTH 4 0
BBX 4 6 0 0
BITMAP
20
18
7D
7D
60
7E
ENDCHAR
STARTCHAR uni0401.sc
ENCODING -1
SWIDTH 499 0
DWIDTH 4 0
BBX 4 6 0 0
BITMAP
25
00
7D
7D
60
7E
ENDCHAR
STARTCHAR uni0402.sc
ENCODING -1
SWIDTH 617 0
DWIDTH 5 0
BBX 5 4 0 0
BITMAP
BE00
2F40
2680
2740
ENDCHAR
STARTCHAR uni0403.sc
ENCODING -1
SWIDTH 472 0
DWIDTH 4 0
BBX 4 6 0 0
BITMAP
09
18
7E
60
60
60
ENDCHAR
STARTCHAR uni0404.sc
ENCODING -1
SWIDTH 515 0
DWIDTH 4 0
BBX 4 4 0 0
BITMAP
2E
BC
A0
2E
ENDCHAR
STARTCHAR uni0405.sc
ENCODING -1
SWIDTH 504 0
DWIDTH 4 0
BBX 4 4 0 0
BITMAP
7D
74
1A
7D
ENDCHAR
STARTCHAR uni0406.sc
ENCODING -1
SWIDTH 301 0
DWIDTH 2 0
BBX 2 4 0 0
BITMAP
60
60
60
60
ENDCHAR
STARTCHAR uni0407.sc
ENCODING -1
SWIDTH 301 0
DWIDTH 2 0
BBX 3 6 0 0
BITMAP
94
00
60
60
60
60
ENDCHAR
STARTCHAR uni0407.sca
ENCODING -1
SWIDTH 301 0
DWIDTH 2 0
BBX 3 6 0 0
BITMAP
A4
00
60
60
60
60
ENDCHAR
STARTCHAR uni0408.sc
ENCODING -1
SWIDTH 470 0
DWIDTH 4 0
BBX 4 4 0 0
BITMAP
0D
0D
0C
78
ENDCHAR
STARTCHAR uni0409.sc
ENCODING -1
SWIDTH 785 0
DWIDTH 6 0
BBX 6 4 0 0
BITMAP
2F00
37E0
7770
D7E0
ENDCHAR
STARTCHAR uni040A.sc
ENCODING -1
SWIDTH 821 0
DWIDTH 7 0
BBX 7 4 0 0
BITMAP
6340
7FE0
6374
63E0
ENDCHAR
STARTCHAR uni040B.sc
ENCODING -1
SWIDTH 639 0
DWIDTH 5 0
BBX 5 4 0 0
BITMAP
BE00
2F40
2680
2680
ENDCHAR
STARTCHAR uni040C.sc
ENCODING -1
SWIDTH 567 0
DWIDTH 5 0
BBX 5 6 0 0
BITMAP
0600
0900
6740
7D00
6A00
6340
ENDCHAR
STARTCHAR uni040D.sc
ENCODING -1
SWIDTH 606 0
DWIDTH 5 0
BBX 5 6 0 0
BITMAP
2400
1800
6740
6B40
7A40
7340
ENDCHAR
STARTCHAR uni040E.sc
ENCODING -1
SWIDTH 487 0
DWIDTH 4 0
BBX 4 6 0 0
BITMAP
69
3C
96
79
28
74
ENDCHAR
STARTCHAR uni040F.sc
ENCODING -1
SWIDTH 603 0
DWIDTH 5 0
BBX 5 5 0 -1
BITMAP
6340
6340
6340
7B40
0C00
ENDCHAR
STARTCHAR uni0462.sc
ENCODING -1
SWIDTH 565 0
DWIDTH 5 0
BBX 5 5 0 0
BITMAP
3000
BE00
3E00
3740
3E00
ENDCHAR
STARTCHAR uni0472.sc
ENCODING -1
SWIDTH 616 0
DWIDTH 5 0
BBX 5 4 0 0
BITMAP
2E00
BF40
A340
2E00
ENDCHAR
STARTCHAR uni0474.sc
ENCODING -1
SWIDTH 505 0
DWIDTH 4 0
BBX 5 4 0 0
BITMAP
D740
A900
7C00
3C00
ENDCHAR
STARTCHAR uni0490.sc
ENCODING -1
SWIDTH 472 0
DWIDTH 4 0
BBX 4 6 0 0
BITMAP
06
0A
7E
60
60
60
ENDCHAR
STARTCHAR uni0492.sc
ENCODING -1
SWIDTH 497 0
DWIDTH 4 0
BBX 4 4 0 0
BITMAP
7E
BC
70
70
ENDCHAR
STARTCHAR uni0496.sc
ENCODING -1
SWIDTH 813 0
DWIDTH 7 0
BBX 7 5 0 -1
BITMAP
AAB0
3FC0
7690
9674
0024
ENDCHAR
STARTCHAR uni0498.sc
ENCODING -1
SWIDTH 500 0
DWIDTH 4 0
BBX 4 5 0 -1
BITMAP
7D
2D
0A
7D
28
ENDCHAR
STARTCHAR uni049A.sc
ENCODING -1
SWIDTH 612 0
DWIDTH 5 0
BBX 5 5 0 -1
BITMAP
6740
7D00
6A00
6380
0180
ENDCHAR
STARTCHAR uni04A0.sc
ENCODING -1
SWIDTH 674 0
DWIDTH 5 0
BBX 5 4 0 0
BITMAP
B9C0
2F40
2A40
28C0
ENDCHAR
STARTCHAR uni04A2.sc
ENCODING -1
SWIDTH 636 0
DWIDTH 5 0
BBX 5 5 0 -1
BITMAP
6240
7F40
6240
62C0
00C0
ENDCHAR
STARTCHAR uni04AA.sc
ENCODING -1
SWIDTH 520 0
DWIDTH 4 0
BBX 4 5 0 -1
BITMAP
2E
A0
A0
3E
1C
ENDCHAR
STARTCHAR uni04AE.sc
ENCODING -1
SWIDTH 467 0
DWIDTH 4 0
BBX 4 4 0 0
BITMAP
9A
6C
28
24
ENDCHAR
STARTCHAR uni04B0.sc
ENCODING -1
SWIDTH 467 0
DWIDTH 4 0
BBX 4 4 0 0
BITMAP
9A
6C
7D
68
ENDCHAR
STARTCHAR uni04B2.sc
ENCODING -1
SWIDTH 547 0
DWIDTH 4 0
BBX 5 5 0 -1
BITMAP
AA00
3C00
3C00
AB40
0340
ENDCHAR
STARTCHAR uni04B6.sc
ENCODING -1
SWIDTH 591 0
DWIDTH 5 0
BBX 5 5 0 -1
BITMAP
A700
7F00
0700
0780
0280
ENDCHAR
STARTCHAR uni04BA.sc
ENCODING -1
SWIDTH 576 0
DWIDTH 5 0
BBX 4 4 0 0
BITMAP
60
7E
63
63
ENDCHAR
STARTCHAR uni04C0.sc
ENCODING -1
SWIDTH 301 0
DWIDTH 2 0
BBX 2 4 0 0
BITMAP
60
60
60
60
ENDCHAR
STARTCHAR uni04C1.sc
ENCODING -1
SWIDTH 766 0
DWIDTH 6 0
BBX 6 6 0 0
BITMAP
1A40
0B00
AAB0
3FC0
7690
9670
ENDCHAR
STARTCHAR uni04D0.sc
ENCODING -1
SWIDTH 503 0
DWIDTH 4 0
BBX 4 6 0 0
BITMAP
69
3C
3C
69
BE
D7
ENDCHAR
STARTCHAR uni04D4.sc
ENCODING -1
SWIDTH 741 0
DWIDTH 6 0
BBX 6 4 0 0
BITMAP
1FD0
2B80
7B40
EBE0
ENDCHAR
STARTCHAR uni04D6.sc
ENCODING -1
SWIDTH 499 0
DWIDTH 4 0
BBX 4 6 0 0
BITMAP
6A
2C
7D
7D
60
7E
ENDCHAR
STARTCHAR uni04D8.sc
ENCODING -1
SWIDTH 604 0
DWIDTH 5 0
BBX 5 4 0 0
BITMAP
2E00
0340
BF40
2E00
ENDCHAR
STARTCHAR uni04E2.sc
ENCODING -1
SWIDTH 606 0
DWIDTH 5 0
BBX 5 6 0 0
BITMAP
2E00
0000
6740
6B40
7A40
7340
ENDCHAR
STARTCHAR uni04E6.sc
ENCODING -1
SWIDTH 616 0
DWIDTH 5 0
BBX 5 6 0 0
BITMAP
2200
0000
2E00
A240
A240
2E00
ENDCHAR
STARTCHAR uni04E8.sc
ENCODING -1
SWIDTH 616 0
DWIDTH 5 0
BBX 5 4 0 0
BITMAP
2E00
BF40
A340
2E00
ENDCHAR
STARTCHAR uni04EE.sc
ENCODING -1
SWIDTH 487 0
DWIDTH 4 0
BBX 4 6 0 0
BITMAP
7D
00
96
79
28
74
ENDCHAR
STARTCHAR uni04F2.sc
ENCODING -1
SWIDTH 487 0
DWIDTH 4 0
BBX 4 7 0 0
BITMAP
16
25
00
96
79
28
74
ENDCHAR
STARTCHAR ampersand.sc
ENCODING -1
SWIDTH 596 0
DWIDTH 5 0
BBX 5 4 0 0
BITMAP
3C00
3900
AB00
7E40
ENDCHAR
STARTCHAR zero.sc
ENCODING -1
SWIDTH 550 0
DWIDTH 4 0
BBX 4 4 0 0
BITMAP
2D
A7
67
2D
ENDCHAR
STARTCHAR one.sc
ENCODING -1
SWIDTH 400 0
DWIDTH 3 0
BBX 3 4 0 0
BITMAP
34
B4
24
24
ENDCHAR
STARTCHAR two.sc
ENCODING -1
SWIDTH 482 0
DWIDTH 4 0
BBX 4 4 0 0
BITMAP
78
0D
28
BD
ENDCHAR
STARTCHAR three.sc
ENCODING -1
SWIDTH 495 0
DWIDTH 4 0
BBX 4 4 0 0
BITMAP
7D
3C
09
7D
ENDCHAR
STARTCHAR four.sc
ENCODING -1
SWIDTH 523 0
DWIDTH 4 0
BBX 4 4 0 0
BITMAP
1D
69
BF
09
ENDCHAR
STARTCHAR five.sc
ENCODING -1
SWIDTH 494 0
DWIDTH 4 0
BBX 4 4 0 0
BITMAP
7D
7D
49
7C
ENDCHAR
STARTCHAR six.sc
ENCODING -1
SWIDTH 519 0
DWIDTH 4 0
BBX 4 4 0 0
BITMAP
2D
7E
66
2D
ENDCHAR
STARTCHAR seven.sc
ENCODING -1
SWIDTH 464 0
DWIDTH 4 0
BBX 4 4 0 0
BITMAP
BD
18
24
34
ENDCHAR
STARTCHAR eight.sc
ENCODING -1
SWIDTH 511 0
DWIDTH 4 0
BBX 4 4 0 0
BITMAP
7D
7D
AA
7D
ENDCHAR
STARTCHAR nine.sc
ENCODING -1
SWIDTH 513 0
DWIDTH 4 0
BBX 4 4 0 0
BITMAP
7D
AA
7E
7C
ENDCHAR
STARTCHAR exclam.sc
ENCODING -1
SWIDTH 340 0
DWIDTH 3 0
BBX 2 4 0 0
BITMAP
70
20
00
60
ENDCHAR
STARTCHAR exclamdown.sc
ENCODING -1
SWIDTH 340 0
DWIDTH 3 0
BBX 2 4 0 0
BITMAP
60
00
20
70
ENDCHAR
STARTCHAR question.sc
ENCODING -1
SWIDTH 463 0
DWIDTH 4 0
BBX 4 5 0 0
BITMAP
7C
0D
28
00
24
ENDCHAR
STARTCHAR quotesingle.sc
ENCODING -1
SWIDTH 300 0
DWIDTH 2 0
BBX 2 3 0 2
BITMAP
60
60
60
ENDCHAR
STARTCHAR quotedbl.sc
ENCODING -1
SWIDTH 536 0
DWIDTH 4 0
BBX 4 3 0 2
BITMAP
66
66
65
ENDCHAR
STARTCHAR quoteleft.sc
ENCODING -1
SWIDTH 300 0
DWIDTH 2 0
BBX 2 3 0 2
BITMAP
10
50
60
ENDCHAR
STARTCHAR quoteright.sc
ENCODING -1
SWIDTH 300 0
DWIDTH 2 0
BBX 2 2 0 2
BITMAP
60
20
ENDCHAR
STARTCHAR quotedblleft.sc
ENCODING -1
SWIDTH 471 0
DWIDTH 4 0
BBX 4 3 0 2
BITMAP
11
59
6A
ENDCHAR
STARTCHAR quotedblright.sc
ENCODING -1
SWIDTH 471 0
DWIDTH 4 0
BBX 4 3 0 1
BITMAP
66
22
04
ENDCHAR
STARTCHAR hyphen.sc
ENCODING -1
SWIDTH 332 0
DWIDTH 3 0
BBX 3 1 0 2
BITMAP
B4
ENDCHAR
STARTCHAR endash.sc
ENCODING -1
SWIDTH 418 0
DWIDTH 3 0
BBX 3 1 0 2
BITMAP
BC
ENDCHAR
STARTCHAR emdash.sc
ENCODING -1
SWIDTH 696 0
DWIDTH 6 0
BBX 6 1 0 2
BITMAP
BFD0
ENDCHAR
STARTCHAR parenleft.sc
ENCODING -1
SWIDTH 344 0
DWIDTH 3 0
BBX 3 6 0 -1
BITMAP
24
20
60
60
60
24
ENDCHAR
STARTCHAR parenright.sc
ENCODING -1
SWIDTH 344 0
DWIDTH 3 0
BBX 2 6 0 -1
BITMAP
50
30
30
20
30
50
ENDCHAR
STARTCHAR bracketleft.sc
ENCODING -1
SWIDTH 344 0
DWIDTH 3 0
BBX 3 6 0 -1
BITMAP
74
60
60
60
60
74
ENDCHAR
STARTCHAR bracketright.sc
ENCODING -1
SWIDTH 344 0
DWIDTH 3 0
BBX 2 6 0 -1
BITMAP
B0
20
20
20
20
B0
ENDCHAR
STARTCHAR braceleft.sc
ENCODING -1
SWIDTH 344 0
DWIDTH 3 0
BBX 3 6 0 -1
BITMAP
34
30
A0
60
30
34
ENDCHAR
STARTCHAR braceright.sc
ENCODING -1
SWIDTH 344 0
DWIDTH 3 0
BBX 3 6 0 -1
BITMAP
A0
30
38
30
30
A0
ENDCHAR
STARTCHAR period.sups
ENCODING -1
SWIDTH 208 0
DWIDTH 2 0
BBX 2 1 0 3
BITMAP
90
ENDCHAR
STARTCHAR comma.sups
ENCODING -1
SWIDTH 208 0
DWIDTH 2 0
BBX 2 2 0 2
BITMAP
90
50
ENDCHAR
STARTCHAR period.subs
ENCODING -1
SWIDTH 208 0
DWIDTH 2 0
BBX 2 1 0 -1
BITMAP
90
ENDCHAR
STARTCHAR comma.subs
ENCODING -1
SWIDTH 208 0
DWIDTH 2 0
BBX 2 2 0 -2
BITMAP
90
50
ENDCHAR
STARTCHAR zero.dnom
ENCODING -1
SWIDTH 376 0
DWIDTH 3 0
BBX 3 3 0 0
BITMAP
74
98
74
ENDCHAR
STARTCHAR one.dnom
ENCODING -1
SWIDTH 376 0
DWIDTH 3 0
BBX 3 3 0 0
BITMAP
74
24
24
ENDCHAR
STARTCHAR two.dnom
ENCODING -1
SWIDTH 376 0
DWIDTH 3 0
BBX 3 3 0 0
BITMAP
74
64
B8
ENDCHAR
STARTCHAR three.dnom
ENCODING -1
SWIDTH 376 0
DWIDTH 3 0
BBX 3 3 0 0
BITMAP
74
74
74
ENDCHAR
STARTCHAR four.dnom
ENCODING -1
SWIDTH 376 0
DWIDTH 3 0
BBX 3 3 0 0
BITMAP
24
64
BC
ENDCHAR
STARTCHAR five.dnom
ENCODING -1
SWIDTH 376 0
DWIDTH 3 0
BBX 3 3 0 0
BITMAP
78
B4
74
ENDCHAR
STARTCHAR six.dnom
ENCODING -1
SWIDTH 376 0
DWIDTH 3 0
BBX 3 3 0 0
BITMAP
74
B8
74
ENDCHAR
STARTCHAR seven.dnom
ENCODING -1
SWIDTH 376 0
DWIDTH 3 0
BBX 3 3 0 0
BITMAP
B8
24
30
ENDCHAR
STARTCHAR eight.dnom
ENCODING -1
SWIDTH 376 0
DWIDTH 3 0
BBX 3 3 0 0
BITMAP
74
74
74
ENDCHAR
STARTCHAR nine.dnom
ENCODING -1
SWIDTH 376 0
DWIDTH 3 0
BBX 3 3 0 0
BITMAP
74
B8
74
ENDCHAR
STARTCHAR parenleft.dnom
ENCODING -1
SWIDTH 268 0
DWIDTH 2 0
BBX 2 5 0 -1
BITMAP
20
50
50
50
20
ENDCHAR
STARTCHAR parenright.dnom
ENCODING -1
SWIDTH 268 0
DWIDTH 2 0
BBX 2 5 0 -1
BITMAP
90
60
60
60
90
ENDCHAR
STARTCHAR period.dnom
ENCODING -1
SWIDTH 208 0
DWIDTH 2 0
BBX 2 1 0 0
BITMAP
90
ENDCHAR
STARTCHAR comma.dnom
ENCODING -1
SWIDTH 208 0
DWIDTH 2 0
BBX 2 2 0 -1
BITMAP
90
50
ENDCHAR
STARTCHAR zero.numr
ENCODING -1
SWIDTH 376 0
DWIDTH 3 0
BBX 3 3 0 2
BITMAP
74
98
74
ENDCHAR
STARTCHAR one.numr
ENCODING -1
SWIDTH 376 0
DWIDTH 3 0
BBX 3 3 0 2
BITMAP
74
24
24
ENDCHAR
STARTCHAR two.numr
ENCODING -1
SWIDTH 376 0
DWIDTH 3 0
BBX 3 3 0 2
BITMAP
74
64
B8
ENDCHAR
STARTCHAR three.numr
ENCODING -1
SWIDTH 376 0
DWIDTH 3 0
BBX 3 3 0 2
BITMAP
74
74
74
ENDCHAR
STARTCHAR four.numr
ENCODING -1
SWIDTH 376 0
DWIDTH 3 0
BBX 3 3 0 2
BITMAP
24
64
BC
ENDCHAR
STARTCHAR five.numr
ENCODING -1
SWIDTH 376 0
DWIDTH 3 0
BBX 3 3 0 2
BITMAP
78
B4
74
ENDCHAR
STARTCHAR six.numr
ENCODING -1
SWIDTH 376 0
DWIDTH 3 0
BBX 3 3 0 2
BITMAP
74
B8
74
ENDCHAR
STARTCHAR seven.numr
ENCODING -1
SWIDTH 376 0
DWIDTH 3 0
BBX 3 3 0 2
BITMAP
B8
24
30
ENDCHAR
STARTCHAR eight.numr
ENCODING -1
SWIDTH 376 0
DWIDTH 3 0
BBX 3 3 0 2
BITMAP
74
74
74
ENDCHAR
STARTCHAR nine.numr
ENCODING -1
SWIDTH 376 0
DWIDTH 3 0
BBX 3 3 0 2
BITMAP
74
B8
74
ENDCHAR
STARTCHAR parenleft.numr
ENCODING -1
SWIDTH 268 0
DWIDTH 2 0
BBX 2 5 0 1
BITMAP
20
50
50
50
20
ENDCHAR
STARTCHAR parenright.numr
ENCODING -1
SWIDTH 268 0
DWIDTH 2 0
BBX 2 5 0 1
BITMAP
90
60
60
60
90
ENDCHAR
STARTCHAR period.numr
ENCODING -1
SWIDTH 208 0
DWIDTH 2 0
BBX 2 1 0 2
BITMAP
90
ENDCHAR
STARTCHAR comma.numr
ENCODING -1
SWIDTH 208 0
DWIDTH 2 0
BBX 2 2 0 1
BITMAP
90
50
ENDCHAR
STARTCHAR ordfeminine.a
ENCODING -1
SWIDTH 385 0
DWIDTH 3 0
BBX 3 3 0 3
BITMAP
78
98
78
ENDCHAR
STARTCHAR A.sups
ENCODING -1
SWIDTH 387 0
DWIDTH 3 0
BBX 3 3 0 3
BITMAP
34
68
98
ENDCHAR
STARTCHAR B.sups
ENCODING -1
SWIDTH 407 0
DWIDTH 3 0
BBX 3 3 0 3
BITMAP
B8
A8
B8
ENDCHAR
STARTCHAR C.sups
ENCODING -1
SWIDTH 390 0
DWIDTH 3 0
BBX 3 4 0 3
BITMAP
78
90
90
78
ENDCHAR
STARTCHAR D.sups
ENCODING -1
SWIDTH 427 0
DWIDTH 3 0
BBX 3 3 0 3
BITMAP
B8
98
B8
ENDCHAR
STARTCHAR E.sups
ENCODING -1
SWIDTH 369 0
DWIDTH 3 0
BBX 3 3 0 3
BITMAP
B8
B4
B8
ENDCHAR
STARTCHAR F.sups
ENCODING -1
SWIDTH 354 0
DWIDTH 3 0
BBX 3 3 0 3
BITMAP
B8
B4
90
ENDCHAR
STARTCHAR G.sups
ENCODING -1
SWIDTH 431 0
DWIDTH 3 0
BBX 3 4 0 3
BITMAP
78
90
9C
7C
ENDCHAR
STARTCHAR H.sups
ENCODING -1
SWIDTH 452 0
DWIDTH 4 0
BBX 4 3 0 3
BITMAP
99
BD
99
ENDCHAR
STARTCHAR I.sups
ENCODING -1
SWIDTH 203 0
DWIDTH 2 0
BBX 2 3 0 3
BITMAP
90
90
90
ENDCHAR
STARTCHAR J.sups
ENCODING -1
SWIDTH 344 0
DWIDTH 3 0
BBX 3 3 0 3
BITMAP
14
24
B4
ENDCHAR
STARTCHAR K.sups
ENCODING -1
SWIDTH 414 0
DWIDTH 3 0
BBX 3 3 0 3
BITMAP
98
B4
98
ENDCHAR
STARTCHAR L.sups
ENCODING -1
SWIDTH 349 0
DWIDTH 3 0
BBX 3 3 0 3
BITMAP
90
90
B8
ENDCHAR
STARTCHAR M.sups
ENCODING -1
SWIDTH 514 0
DWIDTH 4 0
BBX 4 3 0 3
BITMAP
96
AA
96
ENDCHAR
STARTCHAR N.sups
ENCODING -1
SWIDTH 446 0
DWIDTH 4 0
BBX 4 3 0 3
BITMAP
A9
A9
9D
ENDCHAR
STARTCHAR O.sups
ENCODING -1
SWIDTH 461 0
DWIDTH 4 0
BBX 4 4 0 3
BITMAP
78
99
99
78
ENDCHAR
STARTCHAR P.sups
ENCODING -1
SWIDTH 408 0
DWIDTH 3 0
BBX 3 3 0 3
BITMAP
B8
B8
90
ENDCHAR
STARTCHAR Q.sups
ENCODING -1
SWIDTH 461 0
DWIDTH 4 0
BBX 4 5 0 2
BITMAP
78
99
99
7C
1E
ENDCHAR
STARTCHAR R.sups
ENCODING -1
SWIDTH 416 0
DWIDTH 3 0
BBX 3 3 0 3
BITMAP
B8
B8
98
ENDCHAR
STARTCHAR S.sups
ENCODING -1
SWIDTH 374 0
DWIDTH 3 0
BBX 3 4 0 3
BITMAP
74
A0
18
74
ENDCHAR
STARTCHAR T.sups
ENCODING -1
SWIDTH 376 0
DWIDTH 3 0
BBX 3 3 0 3
BITMAP
FC
20
20
ENDCHAR
STARTCHAR U.sups
ENCODING -1
SWIDTH 448 0
DWIDTH 4 0
BBX 4 3 0 3
BITMAP
99
99
78
ENDCHAR
STARTCHAR V.sups
ENCODING -1
SWIDTH 378 0
DWIDTH 3 0
BBX 3 3 0 3
BITMAP
88
A8
34
ENDCHAR
STARTCHAR W.sups
ENCODING -1
SWIDTH 549 0
DWIDTH 4 0
BBX 5 3 0 3
BITMAP
9A40
AA00
7600
ENDCHAR
STARTCHAR X.sups
ENCODING -1
SWIDTH 386 0
DWIDTH 3 0
BBX 3 3 0 3
BITMAP
98
34
98
ENDCHAR
STARTCHAR Y.sups
ENCODING -1
SWIDTH 356 0
DWIDTH 3 0
BBX 3 3 0 3
BITMAP
98
70
20
ENDCHAR
STARTCHAR Z.sups
ENCODING -1
SWIDTH 364 0
DWIDTH 3 0
BBX 3 3 0 3
BITMAP
B8
64
B8
ENDCHAR
STARTCHAR q.sups
ENCODING -1
SWIDTH 385 0
DWIDTH 3 0
BBX 3 4 0 2
BITMAP
78
98
78
08
ENDCHAR
STARTCHAR egrave.sups
ENCODING -1
SWIDTH 346 0
DWIDTH 3 0
BBX 3 4 0 3
BITMAP
50
74
B8
74
ENDCHAR
STARTCHAR eacute.sups
ENCODING -1
SWIDTH 346 0
DWIDTH 3 0
BBX 3 4 0 3
BITMAP
14
74
B8
74
ENDCHAR
STARTCHAR a.supa
ENCODING -1
SWIDTH 385 0
DWIDTH 3 0
BBX 3 3 0 3
BITMAP
78
98
78
ENDCHAR
STARTCHAR g.supa
ENCODING -1
SWIDTH 392 0
DWIDTH 3 0
BBX 3 4 0 2
BITMAP
78
98
B8
74
ENDCHAR
STARTCHAR l.supa
ENCODING -1
SWIDTH 188 0
DWIDTH 2 0
BBX 2 4 0 3
BITMAP
90
90
90
90
ENDCHAR
STARTCHAR colon.sups
ENCODING -1
SWIDTH 208 0
DWIDTH 2 0
BBX 2 3 0 3
BITMAP
90
00
90
ENDCHAR
STARTCHAR hyphen.sups
ENCODING -1
SWIDTH 251 0
DWIDTH 2 0
BBX 2 1 0 4
BITMAP
A0
ENDCHAR
STARTCHAR endash.sups
ENCODING -1
SWIDTH 349 0
DWIDTH 3 0
BBX 3 1 0 4
BITMAP
B4
ENDCHAR
STARTCHAR emdash.sups
ENCODING -1
SWIDTH 563 0
DWIDTH 5 0
BBX 5 1 0 4
BITMAP
BF40
ENDCHAR
STARTCHAR slash.frac
ENCODING -1
SWIDTH 96 0
DWIDTH 1 0
BBX 3 5 -1 0
BITMAP
08
14
20
90
80
ENDCHAR
STARTCHAR uni0300.cap
ENCODING -1
SWIDTH 0 0
DWIDTH 0 0
BBX 2 2 -1 5
BITMAP
80
90
ENDCHAR
STARTCHAR uni0300.g
ENCODING -1
SWIDTH 0 0
DWIDTH 0 0
BBX 2 2 -1 5
BITMAP
90
90
ENDCHAR
STARTCHAR uni0301.cap
ENCODING -1
SWIDTH 0 0
DWIDTH 0 0
BBX 2 2 -1 5
BITMAP
20
60
ENDCHAR
STARTCHAR uni0301.g
ENCODING -1
SWIDTH 0 0
DWIDTH 0 0
BBX 2 2 -1 5
BITMAP
60
60
ENDCHAR
STARTCHAR uni0302.cap
ENCODING -1
SWIDTH 0 0
DWIDTH 0 0
BBX 2 1 -1 5
BITMAP
A0
ENDCHAR
STARTCHAR uni0303.cap
ENCODING -1
SWIDTH 0 0
DWIDTH 0 0
BBX 4 3 -2 5
BITMAP
01
79
98
ENDCHAR
STARTCHAR uni0304.cap
ENCODING -1
SWIDTH 0 0
DWIDTH 0 0
BBX 4 1 -2 6
BITMAP
7D
ENDCHAR
STARTCHAR uni0306.c
ENCODING -1
SWIDTH 0 0
DWIDTH 0 0
BBX 4 2 -2 4
BITMAP
69
3C
ENDCHAR
STARTCHAR uni0306.cap
ENCODING -1
SWIDTH 0 0
DWIDTH 0 0
BBX 4 2 -2 5
BITMAP
69
28
ENDCHAR
STARTCHAR uni0306.ccap
ENCODING -1
SWIDTH 0 0
DWIDTH 0 0
BBX 4 2 -2 5
BITMAP
69
3C
ENDCHAR
STARTCHAR uni0307.cap
ENCODING -1
SWIDTH 0 0
DWIDTH 0 0
BBX 2 1 -1 6
BITMAP
50
ENDCHAR
STARTCHAR uni0308.cap
ENCODING -1
SWIDTH 0 0
DWIDTH 0 0
BBX 4 1 -2 6
BITMAP
69
ENDCHAR
STARTCHAR uni0309.cap
ENCODING -1
SWIDTH 0 0
DWIDTH 0 0
BBX 2 2 -1 5
BITMAP
90
60
ENDCHAR
STARTCHAR uni030A.cap
ENCODING -1
SWIDTH 0 0
DWIDTH 0 0
BBX 2 2 -1 5
BITMAP
A0
A0
ENDCHAR
STARTCHAR uni030B.cap
ENCODING -1
SWIDTH 0 0
DWIDTH 0 0
BBX 3 2 -1 6
BITMAP
58
94
ENDCHAR
STARTCHAR uni030C.cap
ENCODING -1
SWIDTH 0 0
DWIDTH 0 0
BBX 2 1 -1 6
BITMAP
A0
ENDCHAR
STARTCHAR uni030C.a
ENCODING -1
SWIDTH 41 0
DWIDTH 0 0
BBX 2 1 -1 5
BITMAP
50
ENDCHAR
STARTCHAR uni030F.cap
ENCODING -1
SWIDTH 0 0
DWIDTH 0 0
BBX 3 2 -2 6
BITMAP
94
58
ENDCHAR
STARTCHAR uni0312.g
ENCODING -1
SWIDTH 0 0
DWIDTH 0 0
BBX 2 2 -1 4
BITMAP
60
90
ENDCHAR
STARTCHAR uni0313.g
ENCODING -1
SWIDTH 0 0
DWIDTH 0 0
BBX 2 2 -1 4
BITMAP
90
60
ENDCHAR
STARTCHAR uni0326.a
ENCODING -1
SWIDTH 0 0
DWIDTH 0 0
BBX 2 3 -1 4
BITMAP
60
90
50
ENDCHAR
STARTCHAR uni0327.cap
ENCODING -1
SWIDTH 0 0
DWIDTH 0 0
BBX 2 4 -1 -3
BITMAP
40
A0
60
90
ENDCHAR
STARTCHAR uni0328.cap
ENCODING -1
SWIDTH 0 0
DWIDTH 0 0
BBX 2 2 -1 -2
BITMAP
90
B0
ENDCHAR
STARTCHAR uni03080301
ENCODING -1
SWIDTH 0 0
DWIDTH 0 0
BBX 4 3 -2 5
BITMAP
04
18
69
ENDCHAR
STARTCHAR uni03080301.cap
ENCODING -1
SWIDTH 0 0
DWIDTH 0 0
BBX 4 2 -2 6
BITMAP
08
55
ENDCHAR
STARTCHAR uni03080301.g
ENCODING -1
SWIDTH 0 0
DWIDTH 0 0
BBX 4 2 -2 5
BITMAP
04
69
ENDCHAR
STARTCHAR uni03080300
ENCODING -1
SWIDTH 0 0
DWIDTH 0 0
BBX 4 2 -2 5
BITMAP
10
55
ENDCHAR
STARTCHAR uni03080300.cap
ENCODING -1
SWIDTH 0 0
DWIDTH 0 0
BBX 4 2 -2 6
BITMAP
20
55
ENDCHAR
STARTCHAR uni03080300.g
ENCODING -1
SWIDTH 0 0
DWIDTH 0 0
BBX 4 2 -2 5
BITMAP
10
69
ENDCHAR
STARTCHAR uni03080303
ENCODING -1
SWIDTH 0 0
DWIDTH 0 0
BBX 4 2 -2 5
BITMAP
35
7D
ENDCHAR
STARTCHAR uni03080304
ENCODING -1
SWIDTH 0 0
DWIDTH 0 0
BBX 4 3 -2 5
BITMAP
7D
00
55
ENDCHAR
STARTCHAR uni03080304.cap
ENCODING -1
SWIDTH 0 0
DWIDTH 0 0
BBX 4 3 -2 6
BITMAP
7D
00
55
ENDCHAR
STARTCHAR uni0308030C
ENCODING -1
SWIDTH 0 0
DWIDTH 0 0
BBX 4 4 -2 5
BITMAP
28
28
00
55
ENDCHAR
STARTCHAR uni0308030C.cap
ENCODING -1
SWIDTH 0 0
DWIDTH 0 0
BBX 4 4 -2 6
BITMAP
28
28
00
55
ENDCHAR
STARTCHAR uni03020301
ENCODING -1
SWIDTH 0 0
DWIDTH 0 0
BBX 3 2 -1 4
BITMAP
A8
A0
ENDCHAR
STARTCHAR uni03020301.cap
ENCODING -1
SWIDTH 0 0
DWIDTH 0 0
BBX 3 2 -1 5
BITMAP
A8
A0
ENDCHAR
STARTCHAR uni03020300
ENCODING -1
SWIDTH 0 0
DWIDTH 0 0
BBX 3 2 -2 4
BITMAP
A8
28
ENDCHAR
STARTCHAR uni03020300.cap
ENCODING -1
SWIDTH 0 0
DWIDTH 0 0
BBX 3 2 -2 5
BITMAP
A8
28
ENDCHAR
STARTCHAR uni03020309
ENCODING -1
SWIDTH 0 0
DWIDTH 0 0
BBX 3 4 -1 4
BITMAP
18
08
A8
A0
ENDCHAR
STARTCHAR uni03020309.cap
ENCODING -1
SWIDTH 0 0
DWIDTH 0 0
BBX 3 4 -1 5
BITMAP
18
08
A8
A0
ENDCHAR
STARTCHAR uni03020303
ENCODING -1
SWIDTH 0 0
DWIDTH 0 0
BBX 2 5 -1 4
BITMAP
90
B0
00
A0
A0
ENDCHAR
STARTCHAR uni03020303.cap
ENCODING -1
SWIDTH 0 0
DWIDTH 0 0
BBX 2 5 -1 5
BITMAP
90
B0
00
A0
A0
ENDCHAR
STARTCHAR uni03060301
ENCODING -1
SWIDTH 0 0
DWIDTH 0 0
BBX 4 3 -2 4
BITMAP
08
55
28
ENDCHAR
STARTCHAR uni03060301.cap
ENCODING -1
SWIDTH 0 0
DWIDTH 0 0
BBX 4 3 -2 5
BITMAP
08
59
28
ENDCHAR
STARTCHAR uni03060300
ENCODING -1
SWIDTH 0 0
DWIDTH 0 0
BBX 4 3 -2 4
BITMAP
20
55
28
ENDCHAR
STARTCHAR uni03060300.cap
ENCODING -1
SWIDTH 0 0
DWIDTH 0 0
BBX 4 3 -2 5
BITMAP
20
59
28
ENDCHAR
STARTCHAR uni03060309
ENCODING -1
SWIDTH 0 0
DWIDTH 0 0
BBX 4 5 -2 4
BITMAP
24
18
14
55
28
ENDCHAR
STARTCHAR uni03060309.cap
ENCODING -1
SWIDTH 0 0
DWIDTH 0 0
BBX 4 5 -2 5
BITMAP
24
18
14
59
28
ENDCHAR
STARTCHAR uni03060303
ENCODING -1
SWIDTH 0 0
DWIDTH 0 0
BBX 4 5 -2 4
BITMAP
25
6C
00
28
28
ENDCHAR
STARTCHAR uni03060303.cap
ENCODING -1
SWIDTH 0 0
DWIDTH 0 0
BBX 4 5 -2 5
BITMAP
24
2C
00
69
28
ENDCHAR
STARTCHAR uni03020306
ENCODING -1
SWIDTH 0 0
DWIDTH 0 0
BBX 2 5 -1 4
BITMAP
A0
A0
00
A0
A0
ENDCHAR
STARTCHAR uni03020306.cap
ENCODING -1
SWIDTH 0 0
DWIDTH 0 0
BBX 2 5 -1 5
BITMAP
A0
A0
00
A0
A0
ENDCHAR
STARTCHAR uni03040301
ENCODING -1
SWIDTH 0 0
DWIDTH 0 0
BBX 4 3 -2 5
BITMAP
18
00
7D
ENDCHAR
STARTCHAR uni03040301.cap
ENCODING -1
SWIDTH 0 0
DWIDTH 0 0
BBX 4 3 -2 6
BITMAP
18
00
7D
ENDCHAR
STARTCHAR uni03120301
ENCODING -1
SWIDTH 0 0
DWIDTH 0 0
BBX 3 3 -2 4
BITMAP
04
68
54
ENDCHAR
STARTCHAR uni03120300
ENCODING -1
SWIDTH 0 0
DWIDTH 0 0
BBX 3 3 -2 4
BITMAP
04
68
54
ENDCHAR
STARTCHAR uni03120303
ENCODING -1
SWIDTH 0 0
DWIDTH 0 0
BBX 2 3 -1 4
BITMAP
F0
60
50
ENDCHAR
STARTCHAR uni03130301
ENCODING -1
SWIDTH 0 0
DWIDTH 0 0
BBX 3 3 -2 4
BITMAP
04
98
24
ENDCHAR
STARTCHAR uni03130300
ENCODING -1
SWIDTH 0 0
DWIDTH 0 0
BBX 3 3 -2 4
BITMAP
04
98
24
ENDCHAR
STARTCHAR uni03130303
ENCODING -1
SWIDTH 0 0
DWIDTH 0 0
BBX 2 3 -1 4
BITMAP
F0
90
50
ENDCHAR
STARTCHAR space.frac
ENCODING -1
SWIDTH 139 0
DWIDTH 1 0
BBX 1 1 0 0
BITMAP
00
ENDCHAR
STARTCHAR nbspace.frac
ENCODING -1
SWIDTH 139 0
DWIDTH 1 0
BBX 1 1 0 0
BITMAP
00
ENDCHAR
ENDFONT
